<mxfile host="app.diagrams.net" modified="2022-07-17T21:54:14.086Z" agent="5.0 (Windows NT 10.0; Win64; x64) AppleWebKit/537.36 (KHTML, like Gecko) Chrome/103.0.0.0 Safari/537.36" etag="uCKcCMqo75X1eFEF0gpK" version="20.1.1" type="github">
  <diagram id="JkuXxkwmdOD8nHHWbTgR" name="Page-1">
    <mxGraphModel dx="2062" dy="1057" grid="1" gridSize="10" guides="1" tooltips="1" connect="1" arrows="1" fold="1" page="1" pageScale="1" pageWidth="850" pageHeight="1100" math="0" shadow="0">
      <root>
        <mxCell id="0" />
        <mxCell id="1" parent="0" />
        <mxCell id="QM9VKalPo0pKlb0j7DAL-10" value="" style="rounded=0;whiteSpace=wrap;html=1;dashed=1;fillColor=default;strokeColor=none;" vertex="1" parent="1">
          <mxGeometry x="40" y="300" width="770" height="540" as="geometry" />
        </mxCell>
        <mxCell id="QM9VKalPo0pKlb0j7DAL-2" value="" style="rounded=0;whiteSpace=wrap;html=1;fillColor=none;dashed=1;" vertex="1" parent="1">
          <mxGeometry x="207.45" y="320" width="160" height="480" as="geometry" />
        </mxCell>
        <mxCell id="QM9VKalPo0pKlb0j7DAL-4" value="" style="rounded=0;whiteSpace=wrap;html=1;fillColor=none;dashed=1;" vertex="1" parent="1">
          <mxGeometry x="404.46" y="320" width="160" height="480" as="geometry" />
        </mxCell>
        <mxCell id="QM9VKalPo0pKlb0j7DAL-5" value="" style="rounded=0;whiteSpace=wrap;html=1;fillColor=none;dashed=1;" vertex="1" parent="1">
          <mxGeometry x="601.46" y="320" width="160" height="480" as="geometry" />
        </mxCell>
        <mxCell id="DlqXC4TE-N95-IHuBmYz-18" value="" style="shape=image;verticalLabelPosition=bottom;verticalAlign=top;imageAspect=0;aspect=fixed;image=data:image/png,iVBORw0KGgoAAAANSUhEUgAAAgAAAAGOCAYAAADhKrvPAAAAAXNSR0IArs4c6QAAAARnQU1BAACxjwv8YQUAAAAJcEhZcwAADsMAAA7DAcdvqGQAAA/KSURBVHhe7d0LkF/VQcfxsxDIgwRCJyk0dGgtbyEBC8mUygqJhCJBUYLBFkOqpajVoSK1U0cdZBSrlA592NoCtYYINaEwpUMqNZhAgxZTHgECFCyOhYrQrBBIICQkrP+7/xsmpR1MsnfJzf4+n5lLzrkwYXfO3D3f/2P/t6dsu4s7x/b89wDAG6u/c1zSHb6+19vQl3SOaZ1j74EZALAreb5zrOgcMwdmr7Fb/efW/qJzbOocJ3cOmz8A7JqqPbzay6s9vdrbf8RrnwFY2TmO7g4BgGHkvs5xTHf4o88A3NA5bP4AMDxVe3y11w/Y+hmA6o0DAMDwNrD3b3kG4Jn6TwBgeBvY87c8A+DRPwDk6Nm9849Pdo7jB6YAQIK9q5cAjuuOAYAQx1UvAaztHGMHpgBAgnVVAHj9HwDC/KRPAgQAhjkBAACBBAAABBIAABBIAABAIAEAAIEEAAAEEgAAEKjRDwKaNLGUn/+5kWWPkXvUZwCAwXp5w8vlX761oTy5uj7RgEYDYM6ppSy8op4AAI05+8JSFt1STxrgJQAACCQAACCQAACAQAIAAAIJAAAIJAAAIJAAAIBAAgAAAgkAAAgkAAAgkI8ChgZdu3JK+c8nOpdUY1cV7NrefkB/mXvsqnq2c/39tw8vT6wemnvVHLj/5jJv2kP1bGg0/VHAAgAG6ZK/27s89MDzA+M77i6N3qwDdnWTJpZywrHd8dg3jS2nnHlwOfvIld0TQ+zKZe8oy5c8UTauf3lgPpTX59bf56hxo8vJv/hTZe7UZoNAAEBLfP6bB5bbb3ncpg/bodooL/zwfuUjs5+uzwyNj312dFlw/fqddm1W3+eHztu3/PG5z9ZnBs/NgKAF/vBTo8qllz4+cDHa/GHbVdfLFZ9+ulx0+Yj6TLO+/O3DBjbKnbn5V6r/9+evfrZc8JfV4+x2EgCwnT7+lQnluhtfsvHDDqqunX/8+qbyJ1/Yqz7TnFsWPdKaMK++hhtu6S9/cNnu9Zl2EQCwHao3+f3N3/bZ/GGQqmvoy9e9UK66/aD6zOD90efGDLwk1ybV97nw5s3lE9fvV59pDwEA22Hxtats/tCQ6lq69WuP1bPB+dLyQ8o1C19s5fVZfU2f+uzT5fqH31mfaQcBANth86ZX6hHQhOoR+/x/P6Ke7bg7v/VUq+O8+tpW3tv9baG2EACwjb50xyGte3oRdnXVxrhq1Qv1bMc937e2HrXXU489VY/aQQDANrr/vrWtfoQBu6qnHvufejS8rXtmXT1qBwEA26jvcbs/DIUtH9Szo2565KjyvcfrCdtMAMA22vctb6pHQJNG7Dm4X5M747BV5eAD6wnbTADANpr49vb9Gg8MB/u9Y/96NLyN2WdMPWoHAQDb6IjD9hz4eE+gOdU1NXnK2Hq248aMb9fm+pPsf1C7QkcAwDaac8Q9pXdqPQEaUd1A5zeOf6Se7bhp735zqwO9+tqOmjKunrWDAIDtcOpZh3sWABpSXUu9M99azwbnd2b+V3nvGe18lq76mqobA51z9H31mXYQALAd3n/8d8v5799bBMAgVdfQ+35lZPm9035Qnxm8yy/a+Ootedukd2pPo3cFbIoAgO108W8+X+actpsIgB1UXTuz31PKJy7cUJ9pzomnHtiaa7P6Oqrb5J9+zpH1mXapfvfiz7rDwTvy4FJ+tfPNwnB36gn9ZeOoCeXhh14sa1+sTwL/r2pT/MDcvctlv9/85l+ZevBz5YDjji4jN/SV/32mf6ddn9X3OfesUeWLF28qU97yw/rs4Hz1m6U8+L160oDqRsX93eHgVaWz8Ip6AgGuvXdyWXzdgwP3CKg+JtgnBcKPqzbDLU/NnzL7kPKBE/6jOxlif71wYrnnzu5F+UZcn1t/n9UzER96T7OfTnT2hWXgVsdNEQDQkIUPvrN899ENZW3fc6W/v7HLCnZpe+07rvz04SPLr03euW+AW3DXkeWhh9eXjeuH5pmH0ePGlCOOGF3OOeb++kzzBAAABGo6ALwJEAACCQAACCQAACCQAACAQAIAAAIJAAAIJAAAIJAAAIBAAgAAAgkAAAgkAAAgkAAAgEACAAACCQAACCQAACCQAACAQAIAAAIJAAAIJAAAIJAAAIBAAgAAAjUaAHfcXcpVtx9UzwCAJlR7a7XHNqmnc/R3h82YNLGUE46tJwDAoFWb/5Or60lDGg8AAKD9vAcAAAIJAAAIJAAAIJAAAIBAAgAAAgkAAAgkAAAgkAAAgEACAAACCQAACCQAACCQAACAQAIAAAIJAAAIJAAAIJAAAIBAAgAAAvV0jv7usBkTxpcy+dB6Qqs88GgpfWvqSQOsdTs1vc4Va91OrukcQ3FdNx4AX7x8ejl/1rLl9ZQWmTGv9C5bUU8GqfpBcfWnTypnTLvNWrfMrQ/O6n3veYsb+2FRrfVXrp5VTj5ysbVumZtWnNR73odva2ytp08rZen8Yp1b6MrF03t/6yPL6lkzGn8JYMKbJ9YjhrPqUYLNv52qjbrJR3HV32Xzb6fqGvSIPcNQ7K3eAwAAgQQAAAQSAAAQSAAAQCABAACBBAAABBIAABBIAABAIAEAAIEEAAAEEgAAEEgAAEAgAQAAgQQAAAQSAAAQSAAAQCABAACBBAAABBIAABBIAABAIAEAAIEEAAAEEgAAEEgAAEAgAQAAgQQAAAQSAAAQSAAAQCABAACBBAAABBIAABBIAABAIAEAAIEEAAAEEgAAEEgAAEAgAQAAgQQAAAQSAAAQSAAAQCABAACBBAAABBIAABBIAABAIAEAAIEEAAAEEgAAEEgAAEAgAQAAgQQAAAQSAAAQSAAAQCABAACBejpHf3fYjAnjS5l8aD2hVR54tJS+NfVkkKxzu1nrHNY6Q5PrvEXjAQAAtJ+XAAAgkAAAgEACAAACCQAACCQAACCQAACAQAIAAAIJAAAIJAAAIJAAAIBAAgAAAgkAAAgkAAAgkAAAgEACAAACCQAACCQAACCQAACAQD2do787bMbcub9QfnnmuHpGW2x46aVywUe/XvrW1CcGacL4Ui7+2All0qRJ9Rna4rnn1pSP/uk/N7rWl/35KWWffToDWuXJJ58sl/zVHY2u9Wcu+6UyctSo+gxt8bUla8uCBf9Uz5rReADccM2ccubURcvrKS0yY17pXbaingzS9GmlLJ1frHNLWesc1jrDjd+Z0zv73EX1rBleAgCAQAIAAAIJAAAIJAAAIJAAAIBAAgAAAgkAAAgkAAAgkAAAgEACAAACCQAACCQAACCQAACAQAIAAAIJAAAIJAAAIJAAAIBAAgAAAgkAAAgkAAAgkAAAgEACAAACCQAACCQAACCQAACAQAIAAAIJAAAIJAAAIJAAAIBAAgAAAgkAAAgkAAAgkAAAgEACAAACCQAACCQAACCQAACAQAIAAAIJAAAIJAAAIJAAAIBAAgAAAgkAAAgkAAAgkAAAgEACAAACCQAACCQAACCQAACAQAIAAAIJAAAIJAAAIJAAAIBAPZ2jvztsxoyTppTTZ4yuZ7TFhg2byic/d3fpW1OfGKQJ40v54NzDysSJnQGtsm7d+vKZK+9vdK0vOH9KGTvWdd02q1evKVcteKTRtb7od48tI0eOqM/QFjcvXV+W3nZ/PWtG4wEAALSflwAAIJAAAIBAAgAAAgkAAAgkAAAgkAAAgEACAAACCQAACCQAACCQAACAQAIAAAIJAAAIJAAAIJAAAIBAAgAAAgkAAAgkAAAgkAAAgEA9naO/O2zGsT9zYJn5s6PqGW3x8suby/yFj5W+NfWJQZowvpSzTj+gjB+/V32Gtli/fkO59obvN7rW58x+Wxk9emR9hrZYs+aF8tWb/7vRtZ539kFljz12r8/QFkv+9aVy972P17NmNB4AN1wzp5w5ddHyekqLzJhXepetqCeDNH1aKUvnF+vcUtY6h7XOcON35vTOPndRPWuGlwAAIJAAAIBAAgAAAgkAAAgkAAAgkAAAgEACAAACCQAACCQAACCQAACAQAIAAAIJAAAIJAAAIJAAAIBAAgAAAgkAAAgkAAAgkAAAgEACAAACCQAACCQAACCQAACAQAIAAAIJAAAIJAAAIJAAAIBAAgAAAgkAAAgkAAAgkAAAgEACAAACCQAACCQAACCQAACAQAIAAAIJAAAIJAAAIJAAAIBAAgAAAgkAAAgkAAAgkAAAgEACAAACCQAACCQAACCQAACAQAIAAAIJAAAIJAAAIJAAAIBAAgAAAgkAAAgkAAAgUOMB0PfD1fWI4eyBR0u5acVJvfWUFrn1wVm91fo0pfq7qr+zntIi1TXY5FrTXkOxt/Z0jv7usBkTxpcy+dB6QqtUPyj61tSTBljrdmp6nSvWup1c0zmG4rpuPAAAgPbzHgAACCQAACCQAACAQAIAAAIJAAAIJAAAIJAAAIBAAgAAAgkAAAgkAAAgkAAAgEACAAACCQAACCQAACCQAACAQAIAAAIJAAAI1NM5+rvDZkwYX8rkQ+sJrfLAo6X0raknDbDW7dXkWlvn9nJN52h6rSuNB8CCL8wqv37i4uX1lBaZMa/0LltRTwap+kFx3VWnlZlHfcNat1CTaz19WilL5xfr3EJLVp3W+74PfqOxjcFat9c/3D6rd+5vL65nzWj8JYAxY/aqRwxn1aMEmz/sXNU16BF7hqHYW70HAAACCQAACCQAACCQAACAQAIAAAIJAAAIJAAAIJAAAIBAAgAAAgkAAAgkAAAgkAAAgEACAAACCQAACCQAACCQAACAQAIAAAIJAAAIJAAAIJAAAIBAAgAAAgkAAAgkAAAgkAAAgEACAAACCQAACCQAACCQAACAQAIAAAIJAAAIJAAAIJAAAIBAAgAAAgkAAAgkAAAgkAAAgEACAAACCQAACCQAACCQAACAQAIAAAIJAAAIJAAAIJAAAIBAAgAAAgkAAAgkAAAgkAAAgEACAAACCQAACCQAACCQAACAQAIAAAL1dI7+7rAZb3vrXuVdx+xez2iLV17pL8v+bW3pW1OfGKQJ40vpnTam7LnniPoMbbFp0yvl9jvXNbrWJ75rbBkxwuOFttm4cVNZvuLFRtd6+rvHld12q7YG2uTOlZvL93/wQj1rRuMBAAC0n6QHgEACAAACCQAACCQAACCQAACAQAIAAAIJAAAIJAAAIFAVAOu6QwAgxLoqAO7pjgGAEPdUAXBXdwwAhLhryx0f3A8AAHL0bHkT4LP1nwDA8Daw5299z0fPAgDA8Dew92/9a4A31n8CAMPTq3v91s8AVFZ2jqO7QwBgGLmvcxzTHf74BwFV/+LSzrF5YAYA7OqqPb3a21/d/CuvfQZga0s6x7TOsffADADYlTzfOVZ0jpkDs9d4vQB4rYs7x/b89wDAG6t6Q/8l3eHrKeX/AOWb0xyD1c9XAAAAAElFTkSuQmCC" parent="1" vertex="1">
          <mxGeometry x="630" y="360" width="102.92" height="80" as="geometry" />
        </mxCell>
        <mxCell id="DlqXC4TE-N95-IHuBmYz-34" style="edgeStyle=orthogonalEdgeStyle;rounded=0;orthogonalLoop=1;jettySize=auto;html=1;entryX=0;entryY=0.5;entryDx=0;entryDy=0;fontSize=14;strokeWidth=2;" parent="1" source="DlqXC4TE-N95-IHuBmYz-20" target="DlqXC4TE-N95-IHuBmYz-18" edge="1">
          <mxGeometry relative="1" as="geometry" />
        </mxCell>
        <mxCell id="DlqXC4TE-N95-IHuBmYz-20" value="" style="shape=image;verticalLabelPosition=bottom;verticalAlign=top;imageAspect=0;aspect=fixed;image=data:image/png,iVBORw0KGgoAAAANSUhEUgAAAgAAAAGOCAYAAADhKrvPAAAAAXNSR0IArs4c6QAAAARnQU1BAACxjwv8YQUAAAAJcEhZcwAADsMAAA7DAcdvqGQAABCqSURBVHhe7d0PbF3VfcDxY5I4f3nhT4AALQYKIQ2YROB2KssKhHaSmaqJdZCOdVu7oqlq8Top06ohZIbFWJkW9Y/bqZpoaTf+lZVKUzUirVsKXcZYG1iCgxTSEWqS0ALhTx4OiZ0E793nE5QyxOy8a3Lj3+cjXXzPtRXxdHR9vve+5/fa0vjd1Ngm8vMAwDtrtLHdPLb79t5uQf9BY3t/Y6s1RwDA0aTe2H7c2D7cHL3JMfnroW5pbPsb24cam8UfAI5OxRperOXFml6s7b/kzXcANjS2pWO7AMAUsrGxLRvb/eU7APc3Nos/AExNxRpfrPVNh94BKF44AABMbc21/+AdgJfyVwBgamuu+QfvALj6B4A42qY1/rO6sX2gOQQAIqgVTwF0je0DAEF0FU8BvNrY5jWHAEAEQ0UAeP4fAIJ5q3cCBACmOAEAAAEJAAAISAAAQEACAAACEgAAEJAAAICABAAABFTqGwEtWrQo/cEnP5lmtM/MRwCAVu0bGU7fvuOOtGXLlnykdaUGQG9vb1qxYkUeAQBlWbt2berr68uj1nkKAAACEgAAEJAAAICABAAABCQAACAgAQAAAQkAAAhIAABAQAIAAAISAAAQkLcChhKN7D+QhvbsaZxUpZ1WcFSbN2t2mjljeh4dWXtGRtJrw8N5VK65s2alWTNm5NHkKPutgAUAtOj5nTvTz7ZuTUNDQ2n9+vXp2Wefzd8BTjvttNTV1dXcX3j66encc85JM6ZNa44nWxHj/7NlS3rpxReb48k8Pw99nCedsjAtWnRuI3zKDQIBABVR3/1a2vzEpvTggw+mdevWpXq9nr8DvJVarZa6u7vTymuvTSfMn5+PTo5t27ene+6++4icmwcf52+vXJlOOuGEfLR1ZQdAkWF/MbbbuksvvTSdddZZeQRT18+eeSZ9+45vpjvvvDNt2rQpDU/SbUWYSorzZNu2bWnnCy+khaeemk44/vj8nfLsGR5J//3Yo+lLX/xieuSRR47IuXnwcb60c2dasGBBcyvD008/nR566KE8ap0XAcIEvfjyK+m+e+9NDzzwgKt+mKDinCnOndu+8IW0fRJuxw9s3JBuueWWUj83/3AcfJyrV69OT23dmo9WiwCACShe5Hffvfc0bysCh69YoO++8860e8/efKR123bsSLfffnulwrx4nPd/97vppV278pHqEAAwAcXVxZo1a1z5QwmKkH5i4PE8as3uvcPpnrvuOuJX/m+leJzfufvutP/11/ORahAAMAG7GhVv8YdyFOdS8SLaPSP78pHD98wzz1T2zlzxOJ988sn08q5q/e4QADBOxd8PF39GBJSn+LO8XSVE9c+3b6t0nG/dujW98PxzeVQNAgDG6YWdOz33DyUrFsZf7NieR1NXESe/2LEjj6pBAMA4DTZ+Ubn9D+UqzqmDb9RzuF4fHU2Dg4N5xHgJABind3ec2XyDD6Bc01t8x7xj2tpSR0dHHjFeAgDGqXbccenss8/OI6AMRVSfdc65eTR1FY/z5IUL86gaBACM0/y5c5vv9w2UZ/ny5WlBCW+Xe8qpp1X6Dl1x8XDywlPzqBoEAIzT9GnHpMsuv9zTAFCS4ly67LLL0uyZ7fnI4Tuj44xmTFRR8TjPO++8dFzFfncIAJiAzqVLmx/yIQKgdcWCfd6SJXnUmmPnzEnXrFyZFi1alI9UR/E4iw8Gap/+znwK4ngJAJiA2e3t6aNXX13ZKw04WhQL9TUf+1iaP29ePtK6Mzs60nXXXVepQC/+X1asuKLUTwUsiwCACTp5wYJ01VVXpSuvvNKdAJig4pwpzp1Vq1alM884Ix8tz+Lzz6/MXboicm688cbUuWxpPlItPg4YDsOJJ56YFi85P40M721+7KePA4b/X7EoF4vztR//eOqYhMW/MLO9PS276KK0ZMmSNG3atPTcc8+94+dn8TivuOKK9Jnrr09L3vveNP2Ycq61y/444LbGNjq227re3t60YsWKPIKpb3j//rRp48bmZwQUbxNcvK1poXh3M28aRHTFQli8+r3465murq40b968dMHSpWnOzJn5JybXi6+8kp7asiUNDQ29cX5Oxrn5Vo9z8fkXpNrcOfknyrF27drU19eXR60TAFCS/QdeT7t27077Glcb+w8cSEOvvZa/AzHNmzMnzZo9q/k8/4zG1fiRNLxvX9r16lAaGRkp/dwsHufMRtTMP3Zeap8+PR8tnwAAgIDKDgAvAgSAgAQAAAQkAAAgIAEAAAEJAAAISAAAQEACAAACEgAAEJAAAICABAAABCQAACAgAQAAAQkAAAhIAABAQAIAAAISAAAQkAAAgIAEAAAEJAAAICABAAABCQAACKjUAFi/fn3avXdvHgEAZSjW1mKNLVNbYxsd221drVZLy5cvT11dXfkIANCqYvFft25dqtfr+UjrSg0AAODo4DUAABCQAACAgAQAAAQkAAAgIAEAAAEJAAAISAAAQEACAAACEgAAEJAAAICABAAABCQAACAgAQAAAQkAAAhIAABAQAIAAAISAAAQUFtjGx3bLUetVksdHR15RJUMDg6mer2eR60z19VU9jwXzHU1OafjmIzzuvQAuKnv1nT5By9Zk4dUSE9PT/fAwEAetab4RdF361+nZRcsNtcV89Ont3ev+txnSvtlUcz16i//bTr3rHeZ64rZsGlzd+8Nf1baXHd2dqb+/n7zXEE//NHD3Tf33pBH5Sj9KYCTTj4l7zGVFVcJFv9qKhbqMq/iin/L4l9NxTnoij2GyVhbvQYAAAISAAAQkAAAgIAEAAAEJAAAICABAAABCQAACEgAAEBAAgAAAhIAABCQAACAgAQAAAQkAAAgIAEAAAEJAAAISAAAQEACAAACEgAAEJAAAICABAAABCQAACAgAQAAAQkAAAhIAABAQAIAAAISAAAQkAAAgIAEAAAEJAAAICABAAABCQAACEgAAEBAAgAAAhIAABCQAACAgAQAAAQkAAAgIAEAAAEJAAAISAAAQEACAAACEgAAEJAAAICABAAABCQAACAgAQAAAQkAAAhIAABAQAIAAAISAAAQkAAAgIAEAAAEJAAAIKC2xjY6tluOWq2WOjo68ogqGRwcTPV6PY9aY56rzVzHYa5jKHOeDyo9AACA6vMUAAAEJAAAICABAAABCQAACEgAAEBAAgAAAhIAABCQAACAgAQAAAQkAAAgIAEAAAEJAAAISAAAQEACAAACEgAAEJAAAICABAAABCQAACCgtsY2OrZbjmt+5/fTBy+9NI+oir1796a+3j9P9Xo9H2lNrVZLn/3cqnT66e/KR6iKXa+8nG67ta/Uuf78Db1p/nHH5yNUxY4d29PXvry61Lnu7furNGvWrHyEqvjRQw+l++75+zwqR+kB8NWvfyNdsPg9a/KQCunp6ekeGBjIo9Z0dnam/v5+81xR5joOcx3Dps1PdV//6U/lUTk8BQAAAQkAAAhIAABAQAIAAAISAAAQkAAAgIAEAAAEJAAAICABAAABCQAACEgAAEBAAgAAAhIAABCQAACAgAQAAAQkAAAgIAEAAAEJAAAISAAAQEACAAACEgAAEJAAAICABAAABCQAACAgAQAAAQkAAAhIAABAQAIAAAISAAAQkAAAgIAEAAAEJAAAICABAAABCQAACEgAAEBAAgAAAhIAABCQAACAgAQAAAQkAAAgIAEAAAEJAAAISAAAQEACAAACEgAAEJAAAICABAAABCQAACAgAQAAAQkAAAhIAABAQAIAAAISAAAQUFtjGx3bLcev/trl6QOXXJJHVMXI8HD61jf/LtXr9XykNbVaLX306pXpxAUn5yNUxe6hV9Nd//CtUuf6d3/vE2nuvGPzEarixZ3Pp/v/8TulzvUn/vCPUvvMmfkIVfGfDz+c/uPff5hH5Sg9AACA6vMUAAAEJAAAICABAAABCQAACEgAAEBAAgAAAhIAABCQAACAgAQAAAQkAAAgIAEAAAEJAAAISAAAQEACAAACEgAAEJAAAICABAAABCQAACCgtsY2OrZbjvM7l6b3db0vj6iKffv3p+//0/dSvV7PR1pTq9XSFR/69TR//nH5CFWxZ++etOafv1/qXHf/xkfS7Fmz8xGqYteuV9K//eu/lDrXH/nN30ozpk/PR6iKn6z/SXpiYGMelaP0APjq17+RLlj8njV5SIX09PR0DwwM5FFrOjs7U39/v3muKHMdh7mOYdPmp7qv//Sn8qgcngIAgIAEAAAEJAAAICABAAABCQAACEgAAEBAAgAAAhIAABCQAACAgAQAAAQkAAAgIAEAAAEJAAAISAAAQEACAAACEgAAEJAAAICABAAABCQAACAgAQAAAQkAAAhIAABAQAIAAAISAAAQkAAAgIAEAAAEJAAAICABAAABCQAACEgAAEBAAgAAAhIAABCQAACAgAQAAAQkAAAgIAEAAAEJAAAISAAAQEACAAACEgAAEJAAAICABAAABCQAACAgAQAAAQkAAAhIAABAQAIAAAISAAAQkAAAgIAEAAAEJAAAICABAAABCQAACKj0AHjh+efyHlPZ4OBg2rBpc3ceUiE/fXp7dzE/ZSn+reLfzEMqpDgHy5xrqmsy1ta2xjY6tluOWq2WOjo68ogqKX5R1Ov1PGqdua6msue5YK6ryTkdx2Sc16UHAABQfV4DAAABCQAACEgAAEBAAgAAAhIAABCQAACAgAQAAAQkAAAgIAEAAAEJAAAISAAAQEACAAACEgAAEJAAAICABAAABCQAACAgAQAAAbU1ttGx3XLUarXU0dGRR1TJ4OBgqtfredQ6c11dZc61ea4u53QcZc91ofQAuG31V9KvXHzhmjykQnp6eroHBgbyqDXFL4q/+dLX0qKz322uK6jMue7s7Ez9/f3muYK2bN3W/ad/8tnSFgZzXV3/9ejj3Z9f9cd5VI7SnwKYO3du3mMqK64SLP5wZBXnoCv2GCZjbfUaAAAISAAAQEACAAACEgAAEJAAAICABAAABCQAACAgAQAAAQkAAAhIAABAQAIAAAISAAAQkAAAgIAEAAAEJAAAICABAAABCQAACEgAAEBAAgAAAhIAABCQAACAgAQAAAQkAAAgIAEAAAEJAAAISAAAQEACAAACEgAAEJAAAICABAAABCQAACAgAQAAAQkAAAhIAABAQAIAAAISAAAQkAAAgIAEAAAEJAAAICABAAABCQAACEgAAEBAAgAAAhIAABCQAACAgAQAAAQkAAAgIAEAAAEJAAAISAAAQEACAAACEgAAEJAAAICA2hrb6NhuOU497fS0ePHiPKIqRkdfT489+miq1+v5SGtqtVq68MKlaUZ7ez5CVRzYfyBt2PBYqXO9bNlFadr0afkIVbFvZCQ9/vjGUuf6oosvTm1trg2rZvPmzennz+7Io3KUHgAAQPXJPAAISAAAQEACAAACEgAAEJAAAICABAAABCQAACAgAQAAARUBMDS2CwAEMVQEwGNj+wBAEI8VAbB+bB8ACGJ98VkABZ8HAABxvPGRTy/nrwDA1NZc8w/eASi4CwAAU19z7T/0zwC/l78CAFPTG2v9oXcAChsa29KxXQBgCtnY2JaN7f7fNwIqvvGXje1AcwQAHO2KNb1Y299Y/AtvvgNwqB80tvc3tlpzBAAcTeqN7ceN7cPN0Zu8XQC82U2NbSI/DwC8s4oX9N88tvt2UvpfAAWxBXWtmXcAAAAASUVORK5CYII=" parent="1" vertex="1">
          <mxGeometry x="433" y="360" width="102.91" height="80" as="geometry" />
        </mxCell>
        <mxCell id="DlqXC4TE-N95-IHuBmYz-33" style="edgeStyle=orthogonalEdgeStyle;rounded=0;orthogonalLoop=1;jettySize=auto;html=1;entryX=0;entryY=0.5;entryDx=0;entryDy=0;fontSize=14;strokeWidth=2;" parent="1" source="DlqXC4TE-N95-IHuBmYz-21" target="DlqXC4TE-N95-IHuBmYz-20" edge="1">
          <mxGeometry relative="1" as="geometry" />
        </mxCell>
        <mxCell id="DlqXC4TE-N95-IHuBmYz-21" value="" style="shape=image;verticalLabelPosition=bottom;verticalAlign=top;imageAspect=0;aspect=fixed;image=data:image/png,iVBORw0KGgoAAAANSUhEUgAAAgAAAAGOCAYAAADhKrvPAAAAAXNSR0IArs4c6QAAAARnQU1BAACxjwv8YQUAAAAJcEhZcwAADsMAAA7DAcdvqGQAABAgSURBVHhe7d19bJ3VfcDxY0ziGDuOSwKBUGgCIc14C1kCjIFZgZLR0rVSga2aNugmtazS1rF/NvamUq3b2KStXVuto5UmYJPWrWUSbeko0LI23XhLykshi7IAaYBAiBM7wcF5c7z7+J6glFYszj0mj/37fKRDnvMkCraOHp/vfe7NvW3p0H2iMcbz5wGAt9ZoY3yyefjm3mxDv68xzm+MnrEZADCZ7GiMRxrjirHZGxyVfz3YpxpjX2O8uzFs/gAwOVV7eLWXV3t6tbf/mDfeAXi8MZY0DwGAKeSJxji3efjjdwDubAybPwBMTdUeX+31Yw6+A1C9cAAAmNrG9v4DdwC25V8BgKltbM8/cAfAo38AiKOtvfGfv2mMC8emAEAEPdVTAMubxwBAEMurpwBebYzusSkAEMFQFQCe/weAYH7aOwECAFOcAACAgAQAAAQkAAAgIAEAAAEJAAAISAAAQEACAAACKvpGQHO6p6ULFs9JR0+fns8AAK3at2dPenhtf+of2pvPtK5oAFxxRm+65dpT8wwAKOWmrzyb7lszmGet8xQAAAQkAAAgIAEAAAEJAAAISAAAQEACAAACEgAAEJAAAICABAAABCQAACAgbwUMBd27c156YduuxlGxywomtXmzpqcrezbn2ZF199Zj0+bXJubaPHHm0ek9vVvybGKUfitgAQAt+tKjQ+mZDa+MHT+2cWfRD+uAya76kLilp3SNHR/TOytddMmSdHnHC2PziXbXpq60evW6tGfX7rH5RF6fB3+fHV1d6cKLzkpXziobBAIAauKrP+pIqx75H5s+jEO1Uf76VWelX1tcbT8T53Mrt6VvPPLiEbs2q+/zVy5bmH5zaWc+07rSAdDeGDc3D1t32nEz0rvPfFuewdT1d//Zn/712+vSUy++ll7bsz+fBf4/1fWy/kdbU//waLrw1O58tpy7t74t/ePda9L31jT+H0cwzKvv87kXt6eXd+xNFy3syWdbc/+agfTsluopxjK8CBDG6bYf7k3fXP2SR/1wmKpr557Ht6S//+/t+Uw5K7+zeuxRch2uz+pruP/pgfS397+Uz9SLAIBxuHfnielf7l1r84cWVdfQXQ9uTHe9XO4uwOf/a2DsKbk6qb7Pbz3Rn/5pTf3uFAoAGIfv3vuQzR8Kqa6lB1c+mWet+fors9LXH3qhltdn9TX98388nR7Ye0o+Uw8CAMZhZN9IPgJKqB6xf3NgTp4dvieefK7WcV59bWufaf5roboQAHCIqkcYdbu9CJNdtTGu37g1zw7f0EC5V8dPlC3Pv5iP6kEAwCFat2FLrR9hwGTVv/GteV+AI+21wfIvemyFAIBDtG3Ty/kIKOnAG/Ucru/vnpee39ba3xGRAIBD1Ht8689TAj+pffq0fHR4Lu7YlE4+tiPPOFQCAA7RsSfNy0dASce9Pca11Tmz/BsftUIAwCFacGLP2Nt7AuVU19Tp81u/u9bZMzMf1deck0/KR/UgAOAQXTZ9Y1r6jnoVPEx21QfoXDV7IM8O39lnvKPWgd4MnePyrB4EAIxD36XL3AWAQqpradnyd+ZZaz548mvpPUvn1vL6rL6m6oOBVnRtymfqQQDAOFw1e1u65pIFIgBaVF1D7112Qrp2Qbl/WnvjZce//pG8dfKz83uKfipgKQIAxukj53WnFWfPFgFwmKpr5/IzetPvvqv8LfHl5/9Mba7N6uuoPib/XSvOz2fqxccBw2H4+dNmppGZx6Znnx/wccAwDtWm+MGL50/I5l85o3ckzVu6NLUPbUuDO/ceseuz+j7fd9689MfvPSkt7CjzDqKlPw5YAMBhOndue5p7zpI0bee2tGB2R9oxPCIG4KeoNsPqM/GrPeKa91+QfvWdo/l3Jsap015Nly+elUZ7Zqeett1j/9+34vo8+Pv8pSuWpN9YMj3/ThmlA6CtMYqtRHWr45ZrT80ziOXbu09OG17akYYGBtLoxP58g0njmJ6Z6bSTZqXLO4/sC+Du2X58euaFgbR398S8Y+CMrq506tt704quifvs/5u+8my6b025zzwQAAAwCZQOAC8CBICABAAABCQAACAgAQAAAQkAAAhIAABAQAIAAAISAAAQkAAAgIAEAAAEJAAAICABAAABCQAACEgAAEBAAgAAAhIAABCQAACAgAQAAAQkAAAgIAEAAAEJAAAIqGgAPLZxZ/rayzPzDAAoodpbqz22pLbGGG0eljGne1paekpXngEArao2//6hvXlWRvEAAADqz2sAACAgAQAAAQkAAAhIAABAQAIAAAISAAAQkAAAgIAEAAAEJAAAICABAAABCQAACEgAAEBAAgAAAhIAABCQAACAgAQAAAQkAAAgoLbGGG0eltHb2Z4Wzu3MM+pk/ebhNDg8kmets9b1VHqdK9a6nlzTcUzEdV08AP7it69Ovzj7uZV5So3ccPu6vlUbhvKsNdUPir/6+DVp+Yz/tdY1s6Z9ad/v/OVtxX5YVGv9uT/8cDpj5DFrXTOrdp3e9wef/WqxtV4+vzvdev0i61xD39q6oO+PPn9nnpVR/CmAOXOOz0dMZdWjBJt/PVUbdclHcdXfZfOvp+oa9Ig9honYW70GAAACEgAAEJAAAICABAAABCQAACAgAQAAAQkAAAhIAABAQAIAAAISAAAQkAAAgIAEAAAEJAAAICABAAABCQAACEgAAEBAAgAAAhIAABCQAACAgAQAAAQkAAAgIAEAAAEJAAAISAAAQEACAAACEgAAEJAAAICABAAABCQAACAgAQAAAQkAAAhIAABAQAIAAAISAAAQkAAAgIAEAAAEJAAAICABAAABCQAACEgAAEBAAgAAAhIAABCQAACAgAQAAAQkAAAgIAEAAAEJAAAISAAAQEACAAACEgAAEJAAAICABAAABCQAACCgtsYYbR6W0dvZnhbO7cwz6mT95uE0ODySZ62xzvVmreOw1jGUXOcDigcAAFB/ngIAgIAEAAAEJAAAICABAAABCQAACEgAAEBAAgAAAhIAABCQAACAgAQAAAQkAAAgIAEAAAEJAAAISAAAQEACAAACEgAAEJAAAICABAAABNTWGKPNwzI+dPUH0mVnz8sz6mL37l3pTz9zRxocHslnWtPb2Z5+77r3pRNPtNZ1s2P7YPrUP/xb0bX+k9/65dQzqzefoS5eemlT+vQd3yi61n9243Wpo2NGPkNdfOeHm9KX77wrz8ooHgBfvPljadnowyvzlBq54fZ1fas2DOVZa5bP7063Xr/IOteUtY7DWsewuu2Cvo/e/IU8K8NTAAAQkAAAgIAEAAAEJAAAICABAAABCQAACEgAAEBAAgAAAhIAABCQAACAgAQAAAQkAAAgIAEAAAEJAAAISAAAQEACAAACEgAAEJAAAICABAAABCQAACAgAQAAAQkAAAhIAABAQAIAAAISAAAQkAAAgIAEAAAEJAAAICABAAABCQAACEgAAEBAAgAAAhIAABCQAACAgAQAAAQkAAAgIAEAAAEJAAAISAAAQEACAAACEgAAEJAAAICABAAABCQAACAgAQAAAQkAAAhIAABAQAIAAAISAAAQkAAAgIAEAAAEJAAAICABAAABtTXGaPOwjL4LlqVfOHNunlEXu/fsSV+684E0ODySz7Smt7M9fWjFeWnO7GPzGepiaOfOdNvXvl90rT/8/otTd1dXPkNd9G/dlr5876NF1/ojV1+aOqZPz2eoi+8+vTmtfHh1npVRPAAAgPrzFAAABCQAACAgAQAAAQkAAAhIAABAQAIAAAISAAAQkAAAgIAEAAAEJAAAICABAAABCQAACEgAAEBAAgAAAhIAABCQAACAgAQAAAQkAAAgoLbGGG0elnHO4tPShYvm5Bl1sW/fSLrzgcfS4PBIPtOa3s72dOXPLU6zZnbnM9TFrt270l3fe6roWn/gkrPSjI4Z+Qx1sf3VoXTPQ2uLrvXVly5NRx/dns9QFw+u609Prn0mz8ooHgBfvPljadnowyvzlBq54fZ1fas2DOVZa5bP7063Xr/IOteUtY7DWsewuu2Cvo/e/IU8K8NTAAAQkAAAgIAEAAAEJAAAICABAAABCQAACEgAAEBAAgAAAhIAABCQAACAgAQAAAQkAAAgIAEAAAEJAAAISAAAQEACAAACEgAAEJAAAICABAAABCQAACAgAQAAAQkAAAhIAABAQAIAAAISAAAQkAAAgIAEAAAEJAAAICABAAABCQAACEgAAEBAAgAAAhIAABCQAACAgAQAAAQkAAAgIAEAAAEJAAAISAAAQEACAAACEgAAEJAAAICABAAABCQAACAgAQAAAQkAAAhIAABAQAIAAAISAAAQkAAAgIAEAAAEJAAAICABAAABFQ+A/v5X8hFT2frNw2nVrtP78pQaWdO+tK9an1Kqv6v6O/OUGqmuwZJrTX1NxN7a1hijzcMyejvb08K5nXlGnVQ/KAaHR/Ksdda6nkqvc8Va15NrOo6JuK6LBwAAUH9eAwAAAQkAAAhIAABAQAIAAAISAAAQkAAAgIAEAAAEJAAAICABAAABCQAACEgAAEBAAgAAAhIAABCQAACAgAQAAAQkAAAgIAEAAAG1NcZo87CM3s72tHBuZ55RJ+s3D6fB4ZE8a521rq+Sa22d68s1HUfpta4UD4DP/P51qa/zqZV5So3ccPu6vlUbhvKsNdUPis/edH06c//j1rqGSq718vnd6dbrF1nnGnr6qHP7Pn7L7cU2BmtdXyuHz+q78a/vyLMyij8FcMwxXfmIqax6lGDzhyOrugY9Yo9hIvZWrwEAgIAEAAAEJAAAICABAAABCQAACEgAAEBAAgAAAhIAABCQAACAgAQAAAQkAAAgIAEAAAEJAAAISAAAQEACAAACEgAAEJAAAICABAAABCQAACAgAQAAAQkAAAhIAABAQAIAAAISAAAQkAAAgIAEAAAEJAAAICABAAABCQAACEgAAEBAAgAAAhIAABCQAACAgAQAAAQkAAAgIAEAAAEJAAAISAAAQEACAAACEgAAEJAAAICABAAABCQAACAgAQAAAQkAAAhIAABAQAIAAAISAAAQkAAAgIAEAAAEJAAAICABAAABCQAACKitMUabh2XMO643nXPKzDyjLvbv358eWftyGhweyWda09vZnpYtPC5Nmz4tn6EuRvbtT4+uK7vW5y06IbUf7fFC3ezdszetXr+l6Fqfv/iEdNRR1rpuntz4atq0ZTDPyigeAABA/ck8AAhIAABAQAIAAAISAAAQkAAAgIAEAAAEJAAAICABAAABVQEw1DwEAIIYqgLgB81jACCIH1QBsKp5DAAEsar6LICKzwMAgDjaDrwIcCD/CgBMbWN7/oE7ABV3AQBg6hvb+w/+Z4D/nn8FAKam1/f6g+8AVB5vjCXNQwBgCnmiMc5tHv7kGwFVv/HnjTEyNgMAJrtqT6/29tc3/8ob7wAc7L7GOL8xesZmAMBksqMxHmmMK8Zmb/BmAfBGn2iM8fx5AOCtVb2g/5PNwzeT0v8B6ORdQwBIqxEAAAAASUVORK5CYII=" parent="1" vertex="1">
          <mxGeometry x="236" y="360" width="102.91" height="80" as="geometry" />
        </mxCell>
        <mxCell id="DlqXC4TE-N95-IHuBmYz-32" style="edgeStyle=orthogonalEdgeStyle;rounded=0;orthogonalLoop=1;jettySize=auto;html=1;entryX=0;entryY=0.5;entryDx=0;entryDy=0;fontSize=14;strokeWidth=2;" parent="1" source="DlqXC4TE-N95-IHuBmYz-3" target="DlqXC4TE-N95-IHuBmYz-21" edge="1">
          <mxGeometry relative="1" as="geometry" />
        </mxCell>
        <mxCell id="DlqXC4TE-N95-IHuBmYz-3" value="" style="shape=image;verticalLabelPosition=bottom;verticalAlign=top;imageAspect=0;aspect=fixed;image=data:image/png,iVBORw0KGgoAAAANSUhEUgAAAZgAAAIACAYAAAC/5nrmAAAAAXNSR0IArs4c6QAAAARnQU1BAACxjwv8YQUAAAAJcEhZcwAADsMAAA7DAcdvqGQAACvVSURBVHhe7d0HnBXV2cfxZ9nGAsvSll6lLkpdmoCgqEiMSqLEQt5gCYoNG6iIKFVBUCKICRosaBQ1GBVJRKMoCIgo0qUjAlKWXpYmC++cu4eICrs75865e2fu7+tnMucZI7iA978zc85z4iQfmR26VHVOLdXwlCPdOQDAD044x1rn+OaUY978mdP2OmdYdMaAcYKlmHN6wjnucI58gwgAfGS3c/R2Qua13BI2nDY4nHBp75xedo7aoQsAEEzvOsetTtBsyy3hpSL6/D9OuAx0TjOcg3ABEHS/c45lzufepbklvPSzOxjnF7mLc/ogtwKAmHHUOf7g3MlMyS3hhf8FjBMupZzTUueoEroAALGFkPHYqY/InnYOwgVArEpyjn8632xfkVsiXKE7GOcXtJVz+lKNASDGcSfjkZN3MO30GQBiHXcyHjkZMGrxJAAgFyHjAQIGAE6PkAlTnPOLl+qc9zjHr9bEAAB4J2NKhUplfQYA/Bp3MoZUsNBnDADyRsgY4M4FAAqGkHGJgAGAgiNkXCBgAMAdQqaACBgAcI+QKQACBgDMEDL5IGAAwBwhkwcCBgDCQ8icAQEDAOEjZE6DgAEAbxAyv0DAAIB3CJlTqGaXDZzz8tzSeyfiRJZm7tYVAIQndW+C1FytevRGNRpkOuwHTJET8s25O3UFAOEpuTtJ6n5bUldRLeZDhkdkAGBHzD8uI2AAwJ6YDhkCBgDsitmQIWAAwL6YDBkCBgAiI+ZChoABgMiJqZAhYAAgsmImZAgYAIi8mAgZAgYACkfgQ4aAAYDCE+iQIWAAoHAFNmQIGAAofIEMGQIGAKJD4EKGgAGA6BGokInIfjDr6+3XFQCEJyU7QSpuStFVYAWi1b/1gAEAPylTupSUSisp69Zv0FcKje9DhkdkAHCKpKRE6XPnzVKrZjV9pdD4/nEZAQMAv5CSUlT63nkLIRMmAgYAToOQCR8BAwBnQMiEh4ABgDwQMuYIGADIByFjhoABgAIgZNwjYACggAgZdwgYAHDhfyFTg5DJDwEDAC6FQqY3IZMfAgYADBAy+SNgAMAQIZM3AgYAwqBCpk/vmwmZ0yBgACBMxVJSCJnTIGAAwAOEzK8RMADgkZMhU7N6VX2l0ERFyBAwAOAhFTJ977qFkHEQMADgMUImFwEDABYQMgQMAFgT6yFDwACARbEcMgQMAFgWqyET5/xEDZzz8tzSe3FxcVK3di1dAUB4Dh48KJs2b9WV9ypWSJfHH31AV946eOiQPDn2eVm/YZO+UmiOOscf5s+cNiW3tMN6wCQmJsjkieN1BQDh+WbRUhn8xNO68p7NgFFiKWR4RAYAERRLj8sIGACIsFgJGQIGAAqBCpk+vYMdMgQMABSS4sWCHTIEDAAUoiCHDAEDAIUsqCFDwABAFAhiyBAwABAlToZMjWpV9JVC40nIEDAAEEVUyPS9q1cgQoaAAYAoE5SQIWAAIAoFIWQIGACIUn4PGQIGAKKYn0OGgAGAKOfXkCFgAMAH/Bgy7AcDwFds7weTnJwsDevX0VX0yT54SFatWaerQpXvfjIEDABfsR0wcCXPkOERGQDAVJ6PywgYAEA4TobM5bnlTwgYAEC4VMi85oRM9dwyFwEDAPBCqnO8kDvMRcAAALxykXMXc6seEzAAAE+NckKmmhoQMAAAL5Vwji5qQMAAALzWXP0PAQMA8BoBAwCwonFmhy4JBAwAX0lOVksuEOWKOkdNAgaAr9SqXk3i4uJ0hSjGHQwAfylWLEUqlk/XFaIZAQPAd2qfVUOPEM0IGAC+U6dWTT1CNCNgAPhOh7atQo/KEN0IGAC+U7ZMabm5x3W6QrQiYAD4UqcObaVl8ya6QjQiYAD41h09e0hqCdX6CtGIgAHgW6VLpcnoxwZIo4YN9BVEEwIGgK+VTy8nQx/uI7fc0J1V/lGGgAHge2pl/287d5IxIwbJpZ0vkHp1zpKkJMKmkJ2Iy+zQRd1bLs+tvZeYmCCTJ47XFQBERk7Ocdn4w2ZZu/57yc4+qK/ipBdefVOPrMkgYAAgBnXt3lOPrMngERkAwAoCBgBgBQEDALCCgAEAWEHAAACsIGAAAFYQMAAAKwgYAIAVBAwAwAoCBgBgBQEDALCCgAEAWEHAAACsIGAAAFYQMAAAKwgYAIAVBAwAwAoCBgBgBQEDALCCgAEAWEHAAACsIGAAAFYQMAAAKwgYAIAVBAwAwAoCBgBgBQEDALCCgAEAWEHAAACsIGAAAFYQMAAAKwgYAIAVBAwAwAoCBgBgRVxmhy4NnPPy3NJ7iYkJMnnieF0B3hv15evy3d7NugqGWmmV5f7W3XWVv7mbl8krSz/QVXAMbHeTVCheRlfwUtfuPfXImgwCBr53+eQHZMG2VboKhmYV6sn73UbqKn9vrZgu930yVlfB8Vn3cVKndFVdwUuRCBgekQEArCBgAABWEDAAACsIGACAFbzkD4AN+7bJkNkvyokT+oJLfVtfJxlla+rK3KBZL8jGfVm6cicuLk6Gd+wl6cVK6ysFx0t+XvLDPWaRocDu/O9oeXfVTF2507ry2fL27x/TlZnp38+XHlOH6sq97g07y8gLbteVOwQMAQP3mEWGAhvcvqeULpqqK3e+3LxMpqyepSv3jh3PkaGzX9KVe+VS0uThtj10BSAoCJiAKJtSUga2v0lX7g2b87IcOnZEV+689u1Hsnr3Jl2592i7myQtuYSuAAQFARMg3epfIB2qNdWVO5sP7JBx89/WVcHtP3pQRs+bpCv32ldtLFfW76grAEFCwATMiPNvk5SEZF25M37Bu6EJA248M/+fsvPQPl25kxSfKMM73qorAEFDwARM9ZIVpK+LHlanOpJzVIa4eJeiwmjCoqm6cq93ZjepVaqyrgAEDQETQD2bXC6N02vryp1p6+bK5xsX6Spvw794RY7m/Kgrd2qXqiJ3Nr9KVwCCiIAJoPi4IjKq052SUCReX3Fn4KwJoZlheZm/daW8v2a2rtxTj/IS4xN0BSCICJiAOrtcLbmlaVddubNq10Z5ecl/dHV6g2e9qEfu/aFBJzm3yjm6AhBUBEyA9Wl1rdRMq6Qrd56aN+mML+/fW/25fLNtpa7cUWt1Hml3g64ABBkBE2DJ8UnGq+PV9OMRc1/V1U/URAD17sXUgLY3SJmiJXUFIMgImIBrW6WRXJtxka7ceXP5x7J4+1pd5Zqw6H3ZtH+7rtxRLWmuzuikKwBBR8DEAPVIKr1YKV0V3PETJ+SRmc/LCecvZcehvUaLMRX1Ql+92I9z/gIQGwiYGKDasAw972ZduaNmi/1r5YzQWL2XUY/OTNze7EqpS9NCIKYQMDHisjrtpHOtVrpy57E5E0Mv9V9f9pG+4o6aaHBXi266AhArCJgY8liHXlIiMUVXBZd1cLdc+95AyTlxXF9x5/GOvUITDgDEFgImhlQqUVYeMmyLf/DHw3rkzu/qdTBuwAnA3wiYGNPjnC7SoqLaY86+ksnFZWA78y0EAPgbO1rGILV3S+c375Efc47pK3aoWWP/d/YlurJn0/4sOXzsqK6CoWhCklRNLa+r/KnJF9uyd+kqOGqkVZTEIrQUsoEtk2HN6K/ekNHz3tCV9zIr1pd3rxrBtGQgSrFlMqzp3byb1CtTTVfeUk02nzj/dsIFiHEETIxSCx9HXnCHFInzPgRuaXqFNChbQ1cAYhUBE8PUy/4e5/xGV96ollpe7m15ra4AxDICJsb1O/dPoenLXnmsYy/jLZsBBAsBE+PUwkvTfWN+6be120qnGpm6AhDrCJgYd+jYEXlp8b91FZ7+55ot4gQQTARMjBs59zXZsG+brsKjWvkDwEkETAxbsG2VvLDYu1BQ2yzP3LhQVwBiHQETo9Qq/j7Tx4X2fPGK2jfmvk+ekb1HDugrAGIZK/ljlFrFr1bz29C17nnybOc+urKv/4zxsmrXRl0Fg1oE+3jHW3WVv882fGO8GVw0G3PRPVIlNV1X8BKtYmDFyl0b5JI375Vjx3P0Fe+NcwLmd07QRMLlkx8IPe4LkmYV6sn73UbqKn9vrZju3D2O1VVwfNZ9nNRhozoraBUDz6lHYn2mP2M1XJSHZzwnW7N36gpALCJgYsyERVNk4bbVurJHvYe51/mO+uR+/gBiDwETQ9R05FFfvq4r+z7fuEheXvwfXQGINQRMDLn/02dDCytNxMeZ/VF57IuJsmb3Jl0BiCUETIyY9O1/ZfamxbpyR/Uqe+HS/rpyR20EdtfHT1t/5wMg+hAwMUDtdDh0zsu6cm/IeT3lopot5OoGnfQVdxZnrZGnv3pTVwBiBQETAx6e+ZzsO5KtK3curNFCfnPWuaHxgHY3SOmiqaGxW8/Mnxy4qcQA8kbABNzUNbNl2rovdeWOars/rOMtuhIpU7SkDGh7g67cyTlxPPSozPQdEAD/IWACbM/hAzJg5vO6cu+elleHNhA71TUZF0qbymfryp3v9myWobNf0hWAoCNgAmzQrBdkx6G9unJHtSrp1fR3uvq5EeffFtpy2cQrS6fJp99/oysAQUbABJTqTTV55ae6cifO+Wt4x9skoUi8vvJzqnXHHc2u1JV7qpPA7sP7dQUgqAiYAMr+8bA8+NnfdOXe1RmdpHXlhro6vd4tuknNtEq6cifr4G7pF8a/HwB/IGACaMQXr8oP+7fryh01S+zhttfr6syS45Ocu5yCd/v9pX+vnSP/WjlDVwCCiIAJmK+2LA9t/GVKhYuaLVYQ51VrIr+v11FX7qnp05sP7NAVgKAhYALkaM6PoXYwpg0mW1XKCM0Sc2Ng+5skLbmErtzZf/Sg3PPxGBpiAgFFwATIX75607jvl3qhr2aHqRf8bpRLSXPuenroyr05PyxhL38goAiYgPh2x3r524J3dOXeLU27Sr0y1XXlznUNL5aWzt2PqRFf/CNwO1ICIGACQa2SD2cTsaqp6XJvy2t05Z6663nCufs507Tm/BzJUQ0x/0JDTCBgCJgAeG7Bu7Jk+1pduTesQ69QW5hwqLufMy3MLIil29fJU/Mm6QpAEBAwPqfarzw17w1dudflrDahTsleUHdB1UtW0JV7f/3mX/L11hW6AuB3cZkdujRwzstzS+8lJibI5InjdQV47/LJDwSuU3OzCvXk/W4jdZW/t1ZMl/s+Gaur4Pis+7hQ5wh4r2v3nnpkTQZ3MAAAKwgYAIAVPCKD76neazkBm4EWXyReiicW1VX+fsw5Fsi9dkokFZMice7WZqFgIvGIjIABgBjEOxgAgG8RMAAAKwgYAIAVBAwAwAoCBgBgBQEDALCCgAEAWEHAAACsIGAAAFawkt/H1u75QW77cJSugqNvq+7SuVYrXeXv7o+fluU71+sqGDLK1pQxF92jq/x99N08eXLe67oKjhd+01+qlSyvK3iJVjHI07Id38klb96rq+AYfeFdcnWDTrrKH+36adcP92gVAwDwLQIGAGAFAQMAsIKAAQBYQcAAAKwgYAAAVhAwAAArCBgAgBUEDADACgIGAGAFAQMAsIKAAQBYQcAAAKwgYAAAVhAwAAArCBgAgBUEDADACgIGAGAFAQMAsIKAAQBYQcAAAKwgYAAAVhAwPlYkLk6S4hMDd8THuftjmRSf8Ksfw/9Hgv7qCkb9mp3+x/H3UcTlnwVEl7jMDl0aOOfluaX3EhMTZPLE8boCAESDrt176pE1GXx7AACwgoABAFhBwAAArCBgAABWEDAAACsIGACAFQQMAMAKAgYAYAUBAwCwgoABAFhBqxgfW7Vrg1zz3qO6Co7B7XvKFXXb6yp/PaYOlSXb1+oqGBql15ZXLntEV/mbsnqWDJw1QVfB8c6Vw6VmWiVdwUuRaBVDwPjYsh3fySVv3qur4Bh94V1ydYNOusrf5ZMfkAXbVukqGJpVqCfvdxupq/y9tWK63PfJWF0Fx2fdx0md0lV1BS/RiwwA4FsEDADACgIGAGAFAQMAsIKAAQBYQcAAAKwgYAAAVhAwAAArCBgAgBUEDADACgIGAGAFAQMAsIKAAQBYQcAAAKwgYAAAVhAwAAArCBgAgBUEDADACgIGAGAFAQMAsIKAAQBYQcAAAKyIy+zQpYFzXp5bei8xMUEmTxyvK3hp1a4Ncs17j+oqOAa37ylX1G2vq/z1mDpUlmxfq6tgaJReW1657BFd5W/K6lkycNYEXQXHO1cOl5pplXQFL3Xt3lOPrMkgYAAgBkUiYHhEBgCwgoABAFhBwAAArCBgAABWEDAAACsIGACAFQQMAMAKAgYAYAUBAwCwgoABAFhBwAAArCBgAABWEDAAACsIGACAFQQMAMAKAgYAYAUBAwCwgoABAFhBwAAArCBgAABWEDAAACsIGACAFQQMAMAKAgYAYAUBAwCwgoABAFhBwAAArCBgAABWEDAAACsIGACAFQQMAMAKAgYAYAUBAwCwgoABAFhBwAAArCBgAABWEDAAACsIGACAFQQMAMAKAgYAYAUBAwCwgoABAFhBwAAArCBgAABWEDAAACsIGACAFQQMAMAKAgYAYAUBAwCwgoABAFhBwAAArCBgAABWEDAAACsIGACAFQQMAMAKAgYAYAUBAwCwgoABAFhBwAAArCBgAABWEDAAACsIGACAFQQMAMAKAgYAYAUBAwCwgoABAFhBwAAArCBgAABWEDAAACsIGACAFQQMAMAKAgYAYAUBAwCwgoABAFhBwAAArCBgAABWEDAAACsIGACAFQQMAMAKAgYAYAUBAwCwgoABAFhBwAAArCBgAABWEDAAACsIGACAFQQMAMAKAgYAYEVcZocuDZzz8tzSe4mJCTJ54nhdwW8OHzkiK1atke83bpbtO3c6xy7Zvn2nHDx4KPT3Dh05LEcOHZHEpERJKZoiKclJUrxEcalUobxUKF9WyqenS73ateSsmtX1jxid9uzdK2u/2+Ac3ztf6ybJdr6+7OyDsj87O/S1HnDORYoUkWIpxZyvs6iUTC0uFcunS4UKzlG+nDSoW0eqVamkfzREyokTJyQuLk5XcKNr9556ZE0GAYNfWbR0ucybvzAULGucD1wvFE1JlgznQ7h1ZlNpf24rSXVCqLB9+fUCmT7zC1nnfI1ZTniGS31N9evWllaZTaRty0xJTS2h/074Xnljsrw9ZZquCi69bBmZ8MxIXUXWp5/Pkaf/9qKu3Hnv9Ql6BFsIGESM+s79w+kzQ8Gye89efdWedq1bSJeLOkrjszP0lcjY4dyBfTJjthMss2Vr1g591Y6WzZvIxRecFwrVcK1YvVYeHDhcV+68PmGsFC9WTFeR85e/TpDPZs3VVcGpO95RQx/WFWwhYGDdkm9XyNSPpsvced/oK5HV+OwGcnmXC53v+pvpK/ZMenuKvOEckVa7VnW59OJOctH57fUVM6YfCA/efau0dQI90m68vY/sMvhm5U/XXCndul6qK9gSiYDhJX+M2pa1XUY/+3cZMOzJQgsXZfGyFfLYU8/KhFcm6SveW7p8ldz38NBCCRdFvdt55vmXQ/8OXzp3iKbq1KqhR+4sXGrt+8cz2rf/gFG4KG1a2v9mA5FBwMSgt979t/S69yGZMftLfaXwvT/tE7m73yDZtHmLvuKNt96dKg8PHRl6BFjY1L/D40+Nk+Gjxxk9hmxl+Kht0ZLIB8yiJd/qkXtVKzNZIigImBhy6NBhGfH0X+W1t96REyf0xSiyfsMm6T9klHNX480H4vvTPna+1nd1FT3mfr0wFKZffOXuztE0YLZmZcmRI0d1FRkLly7TI3canxPZd3Kwi4CJEevWb5C+A4bJF4X4OKwg9u7bJ4NH/EW+W79RXzHz308/lwmvvKGr6LN3334Z8Ze/yitv/EtfyV+tGtX0yL1Fhh/4pkzvmtp4MCEC0YOAiQEqXIaOHCObtmzVV6LbsZzj8uQzz+nKvaXfrpRxf5+oq+j29pT/hH5vCursBnX1yJ2FEXxMln3wYGi9lInWLXj/EiQETMCdDBfTF66FRYWhWvBo4vXJ0fdYLC9fL1wi41/8h67yZvqYbPEy83ciboXz/qVc2TJ6hCAgYAJs//4DMnLseN+Fi3JnrxulRrWquiq4aZ/MkGUrVuvKH9R6mVtv+j9d5c30O/yNP2yVY8eO6cou01lrpuGJ6EXABNjY51+WLVuzdOUfl1zYUS7u2E5XBXfo8GF5/Z/+unupXauGDOjbW1f5Uy14TC1aGpm7mMWGAdO6BQETNARMQKnWImpVvt+onmW3//lPunLnqwWLQy/P/SKtZKqMGNRPVwXXrPE5euTOoqUr9MgeNVttyzazb2q4gwkeVvIHkHrJ/fCwUbryVs3qVSWzaWMpXapk6AMyLTVVSjrno0d/lD379sk+5wN+9969snL1Ovna+cB364Vxo6RcmdK6cmfs+Jfkk5mzdRUe1cKmXp1aoTuG8ullpUL59NAjpqztO2Xb9h2h9Tqqj1l2drb+J9wbP/pxqVTR/R3JB//9VMa/9JquCk793o0ZMUhXdsybvyC0cNatoknJ8ubL7v85mKNVDIz0eXioZ00qlYx6teXcVpnSolkTqVKpgr6av/0HskMNJed+9U3o7iI/D959m7Rtnakr90xbk5yqTYvmctklnaTR2eo/i/xNV33NPp8jS5xQd+OxRx6QczLq6cqdXbv3yI139NWVO7abSP594iSZ+uEnuiq4ju1ay3133KwrRAKtYuDam/9639MOyLdcf52MGPSQdL20s6twUVR3YdV/a8D9d8nAB+8JdRo+k9/9tnNY4bJqzbqww+Xe23vKQ/fdXuBwUTp1bCfDBtwv/e+7Q6pVqayv5u2+O3oah4tSpnQpSUhI0JU7tqcrm663aR2BXnSIPAImQI7++KNM+eBjXYWn8wXnyXOjh8tvL7lQXwlP8ybnyMjBD8ntPXvoKz9Rd0g3/vFqXZnZuj28dvu9bvijnN++ja7cU7O7xo0aItdedYW+cnrXd7/K+W7d/Oc5qUXzxnrkzuJl9hZcqkeIaraaiRbNzL4eRDcCJkCmTvs4tDFWuK664lK54+brpVRaSX3FO5d06iBD+t+nK5GE+CJO3UdX5nbv3qNH7ql3E5d2vkBX4bnOCZinH3/UudurqK/85DInrK+87De6Co/pinebfckWGbb4Ue/ykpOTdIUgIWACxIu7l2uvvFx6XHulruxock7D0DsIZVC/+yQpKfwPlz1hPB7LbGo2K+tMatWsLk8M6icN6/206l6927n5+ut0FT7TGVdevpv7JdPwat2yuR4haAiYgJjz5ddhbxTWvVtXuc45IkG9g3jjxXGu3nfkRc1cM1WruvfbOavdLIcPetAJlqZSr3bN0LsdL6kNxEoUN9sVVG1fYIPpOps2mU30CEFDwATEzC/m6ZGZRg3ryzXO3Uskqb3tvaK6FpgqXSpNj7z30H13yhND7OzOmNm0kR65Y2vBpeqGbaJ5E7OvA9GPgAmAfQcOhN0l+Zbru+uRP6WVNH9ftGW73W4HReLi9MhbbQzbxoTTK+xMTGenVSxfTuIs/fqg8BEwATB/wRI9MqOmIlevVkVX/qQWe5pav97sO+/CZtpaZeWadXrkHdPZaZHYKhuFh4AJgCVhbNClVpJ7NRW5MKmZSKbmzJsfsUaQXoqPj5eyhl0PVqxeq0feMH7BT3uYQCNgAkDta2/qwg7um0pGI9XWxZRaGT9p8nu68pdMw/UjXj8mM52ddk7D+nqEICJgfG7Dps3GmzspFxp0LY5GZzeoZ7y6XZk85QOZvzC8R42FwXg9jIcv+pcud9cm5yS1/gjBRsD43PeGM3eU9m1ahtqOBEU47VeUISPHyOdzwpuNF2mmM8m83DOHx2M4EwLG50ynhipBW+B2wXlt9cjck+Oel3emfqgrfzhd14CCWLPOm0WXpndDaqM1BBsB43PrDbcVVurU8n6BYWFSvcQqVUjXlbmXX/+nPDToCVm+ao2+Et0Kez2M6ay0urXN35vBHwgYnzPdt151Oq5c0V13ZD+4tHMnPQrPt6tWS79BI0Lt53eE8Y4rEkwfNS30IGBMQ7h+3bP0CEFGwPjc7j379MidOmfV1KNgueI3F3v68ljtbfLn3g84dzWTZV8Y3QJsMp2JZbq18alMfwzTRaLwFwLGxw4ePGS8fqN2zRp6FDzXX9dNj7zzztRpctOdfUN7/h8+ckRfjR5qb38T332/UY/MmD5mM32sB38hYHxMbVFsKj29rB4Fj9p7psuFHXXlnR9/PCZvvjM1FDT/fPffcvz4cf13Cp/6mk2E+x7GdDZajWpMUY4FBIyP7d23X4/cK168mB4F021//pM0OSdDV97Kzj4k/3jrHSdo7pf3/vNffbVwqQ3PTCwMY8Gl6eLKpo0a6hGCjoDxsaNHj+qRe6mGrd795MF7bpOzatqbKae2R3jxH2/KzXf3kw8/maGvFo66hu/UwukCYdoNgO2RYwcB42OHD5u/CyheLEWPgkvtmfLg3bdJ5Up2Z8tlbd8hf33hVek3eHhYdwThOnWDs4LKycmRjT9s0ZU7prPQTB/nwX8IGB87EsYdTLEYCBilYoV0GfZwX6lfx/602OUr18rA4aNl9LN/D2uHTVPNDXfmNH0PYzKDTDXmV78niA0EjI8dOWIeMMVTYiNgFNVxeNiAvtLCsDGkWzNmfyn39B8ic79aoK9ERiTfw5jOPmvdgu2RYwkB42PhbNSUffCQHsUGte//I/ffJVdd0UVfsUu9nxn+l2dDXQEipXrVynrkjskdjOldT4vmTE+OJQSMjyU7H5qmDh6KrYA5qce13eTRB+6Wiunl9BW7VF+zwU88LQeyD+ordjVr7P4x2dGjP8rmrdt0VTCm75oy2R45phAwPpaUlKhH7sVqwChqkd+YkYPltx61lcnPN4uWhtrOhLuosSCaNzlbj9xxOyPMZPZZsaIpgerejfwRMD6WnGx+B6PWcsSyosnJcssN3WXsE4Ol/bkt9VV7Nv6wWfoNHiGr163XV+wwfg/jYldUNetMzT5zq1ULuifHGgLGx5KTkvXIvVi+gzlVjWpV5P7evWRI/z7SwnL7EjWt/Mkx42XHrt36ivcqpJczenS6eHHBA8Z0/UtmMwIm1hAwPlYy1Xyx5N4w2swEkVr1/8gDd8vjjz4gbVrZm+m0dfsOeWrs83LixAl9xXvNDKYrHzx8SLK279RV3ozXvzRmBX+sIWB8rGRqqh65t3bdBj3CqdTWyw/dc7uMGtJfOpzbSl/1ltoK4LmXXtOV9zINXvQrBZ0ZZjKDrEypNCkRA90j8HMEjI+lppaQuDiz38LV39l9F+B39eqcJX163yJPDx8oF3Zsp69654OPP5O5X9tZJ2P8HqYAwaFmm6lZZ261YnvkmETA+FypNLO7GNXeRK3VQN5q1agmd/W6Uf765DD5zUXn66vemDBxUliLZc8krWRq6HCrIO9WjN+/GHYZgL8RMD5XqVJ5PXJv9drv9Aj5qVK5otx60//JhLEjQ5uaeWH7zl3y748+0ZW3mjZyP115/4Fs2ZnPBAQ3s81O1dTwsR38jYDxuZrVqumRe2sN263HsvRyZeTPf7pGxowYJOd6MBlg6ofT9chbpncM+b1fcTPb7KRKFctLUqL5mi34FwHjczUM24Mo02fN0SO4pbZl7nfP7XLT/12jr5hRdwzTLLT6N+9LduYAUbPM1Gwzt1o15/1LrCJgfK5GGPvPZ2XtlHnzI9uQMWi6Xnpx2CGzOI8PdVNqIWn5su53LV2cxyMw0/5jpt0F4H8EjM+pNvQJ8fG6cu+TGbP1CKZUyHRs11pX7pm+18iPyXoYNfFj3/4Duvo50/UvJu+DEAwEjM8VKVJEGp3dQFfuzf16YYEX2OHMrrnycj1yLzs728qEi0zTffrPMFPMZAaZzR1FEf0ImABo1NA8YJRJb7+nRzBVpVJFaZRRX1fu7d23X4+8Y7r2ZMGSZXr0k12794RmmbmlGosidhEwAXBORj09MjN95hz5eMYsXcFU5coV9ci9PRZa96j9gqpVcT8J5HTvWkzfv9CeP7YRMAFQv25t54PE/MNN+ftLk2Rb1nZdwUTZMuat6PdZuINRTPa/37Fzt2Qf/Pn+NXnNLstLRv06eoRYRMAERPs24fXNOnz0iDz/8uu6gokdu/bokXslDVbeF4RX+8OY3MGc3aCuHiFWETAB4cWeJl8vXCIDho064ywi5G3V6rV65F7ptDQ98pbpDK6FS3+6Y1F/HkzaCjUznGSA4CBgAqJq5UrSslljXZlb8u1K6T9kpGzYtFlf8Yeu3XvKqLHj5duVq/WVyFrq/Lqt37BJV+6VLmUnYJQ6tWvpUcEtOuWRmGn/sea0h4l5BEyAXNbFmx5ZavdFdSdjY4V5Xnbs3KVH7hw/fjx0njX3a3lo8BNy4+19ZNLbU0I7L0aCel/xtxde1ZWZMqXtBUzzxu7vYrZmZf2vEefCpb+eVVYQtWvV0CPEKgImQJo2ynAObzZ1UtNm1Yfmnfc/Kp9+/oW+6r09e/fJpMnvhULhIefOycQv77Z27dkrbzgBc+f9j8jd/QbJS6+9JQsWL7OyyZd6fDR05BjZtGWrvuKe2iullKVHZIrJi35lkQ6WRac8LiuoZgahhuCJr1yjTjnnfGdu6b34+CJy9e8v0xVsK1O6lKeBsG///tC+Jer9zO7du50PaZHy6WVDU2BNrVqzTj6bNVfeemeq/O3Ff8jS5avk0OEjoTuB6666Qv+/Cm7J8pUy58v5uvo5FWArVq8N/XyTp3wgq52fW4XCsZwcKVYsxbgJo+qE/N6/P5TR456XzdvCm33XsV0badnc3nbC6WXLhALXLbWhXYN6teXVN/6lrxTcpRd3kgZ1a+sK0cjkz4RLz8ZlduiiVunZ6VXhSExMkMkTx+sKkfDcy6/Jfz76VFfeU980qJ0fM+rVkbSSJaVkWqqkpZb43z4kOTnHQ/vPHz5yJLT3/8ZNW0KP3TY6dxrrNmwKrVw/k7+PfULKl3PXQ0s9DjP9j6V8+bKhjtRqb361n32JEsUltXjx0LlE8WKhTgkHsg86R3Zos63Nzp3K8hVrQ7tSemXgg/cY32UUVP8ho2TZipW6KpiqlSpKw4b15SODR6XjRg2ValUq6QrRSL23tCyDgAkg9cF+2739Q4+K/KbvXb3kvDbuZsSNeuY5mfXFV7ryl1QnyP7x/Bhd2fO2c/f2yhtv68quBOcbkLdffV5XiFaRCBjewQSQ6qR725//pCt/WWkw1XeLc2fhVxef30GP7GoWwY7GLTyYzYhgIGACSvWhUhtj+c2q1ev0qOC2bPFnBwL1COr67lfpyq6zalQX87dm7jRjejI0AibA1Na+l19yoa78YeUa9wFjsglWNLi+ezc9ioxINZ5kgSVOImACruf11/luFt8v+2DlRc0S86POF5xn3O3YVPMINJ4sXrx4aLIEoBAwMeCPf/id3ND9D7qKfm72RlGz0/zmYidc7rj5el1FTtPG3qyRyksmj8dwCgImRvz+skvk4b69rbYk8cqqNQUPmM1b/PWCXz2yvLMQwkVRe9YUTUnWlR3NmtgPMfgHARNDWjVvIk8OG2B9zUW4Vrm4g9kS5iLHSLrq8ktDjywLU2Zju4/JIvEYDv5BwMSYcmVKhxb29endKzSLKRqplf4FtWVrlh5Fr4b16srjjz4gPa67Ul8pPDa/uVBdJEqlldQVQMDErA7ntpRnnxomN/3xaqNdD21y85L4tj//UW50voZobKyYnJQkPXtcK8MHPRjqfBANbPYIM917BsHFSn6EfL1gsfx3xixZuHCpHD6a20U3klq3aCptMptJm5bNQz3CTKhuzLO/nC/fLFoiq9d8J9mHCmf6sloH0rZVcznX+VpSU0voq9Hjhtv7GO3vkp8H7r5V2rVuoStEO1rFoFCo7XEXLVkmy1auljXr1ktOTo7+O95Rj40yGtQN7XrY0PnuPqWo9y+f1f4sakaaeuSm3uuEs19LXlT/NXUH1SqzSShUbHZG9sKY8S/K9JlzdOWdN14YJykpRXWFaEfAoNCpvVZWr10fCpqtWdtl587dsmPXLufYLYePHHXC55gcO5YjOceOSZH4eElMSpDkxCRJTk6WZGesPmwrlC8n5cs5R3o5qVg+3fkwri5JSUn6Z4gc1a5ffQ3bsnbI1m1Zztg5Z2WF9sNXX8vJBp1qfOTw4VCwJqckS0pyUedrSZaiRXO/ruLOHZYKlNBRs0aouzTgNwQMAMAKml0CAHyLgAEAWEHAAACsIGAAAFYQMAAAKwgYAIAVBAwAwAoCBgBgBQEDALCCgAEAWEHAAACsIGAAAFYQMAAAKwgYAIAVBAwAwAoCBgBgBQEDALCCgAEAWEHAAACsIGAAAFYQMAAAKwgYAIAVBAwAwAoCBgBgBQEDALCCgAEAWEHAAACsIGAAAFYQMAAAKwgYAIAVBAwAwAoCBgBgBQEDALCCgAEAWEHAAACsIGAAAFYQMAAAKwgYAIAVBAwAwAoCBgBgBQEDALCCgAEAWEHAAACsIGAAAFYQMAAAKwgYAIAVBAwAwIq4zA5dGjjn5bml9xISEuRvTw3TFQAgGtx8dz89sibDesAAAGJSBo/IAABWEDAAACsIGACAFQQMAMAKAgYAYAUBAwCwgoABAFhBwAAArCBgAABWEDAAACtUwJzIHQIA4JkTKmA2O8fxUAkAQPhUpmwuMn/mtP3OYFXoEgAA4VulsuXkO5j5+gwAQLhCmULAAAC89rOAma3PAACEK5QpoYCZP3PaPOc0UY0BAAjDRJ0pP1sHc49z/JA7BADANZUhKktC/hcwTuLscU49cysAAFzrqbMkJF6fQ7Z8v2ZN5Rp11LCDc8SpAQAA+VDrXgY74fJCbpnrtCGS2aFLe+f0snPUDl0AAOD01jrHDU64zMotf/KzO5iTnDuZDc6dzARnmOYcLZ2DuxkAwKlUm7FnneMqJ1xUyPxKvsHh3M1UdU4qZDJPOdKdAwAQO7Y7h1rfcvL4ygmWTc75DET+H+iBgtEX3YnsAAAAAElFTkSuQmCC;fontSize=14;" parent="1" vertex="1">
          <mxGeometry x="60" y="360" width="60" height="80" as="geometry" />
        </mxCell>
        <mxCell id="DlqXC4TE-N95-IHuBmYz-4" value="&lt;font style=&quot;font-size: 14px;&quot;&gt;Orders&lt;/font&gt;" style="text;html=1;strokeColor=none;fillColor=none;align=center;verticalAlign=middle;whiteSpace=wrap;rounded=0;fontStyle=1" parent="1" vertex="1">
          <mxGeometry x="60" y="440" width="60" height="20" as="geometry" />
        </mxCell>
        <mxCell id="DlqXC4TE-N95-IHuBmYz-27" style="edgeStyle=orthogonalEdgeStyle;rounded=0;orthogonalLoop=1;jettySize=auto;html=1;entryX=0;entryY=0.5;entryDx=0;entryDy=0;fontSize=14;strokeWidth=2;" parent="1" source="DlqXC4TE-N95-IHuBmYz-7" target="DlqXC4TE-N95-IHuBmYz-26" edge="1">
          <mxGeometry relative="1" as="geometry" />
        </mxCell>
        <mxCell id="DlqXC4TE-N95-IHuBmYz-7" value="" style="shape=image;verticalLabelPosition=bottom;verticalAlign=top;imageAspect=0;aspect=fixed;image=data:image/png,iVBORw0KGgoAAAANSUhEUgAAAZgAAAIACAYAAAC/5nrmAAAAAXNSR0IArs4c6QAAAARnQU1BAACxjwv8YQUAAAAJcEhZcwAADsMAAA7DAcdvqGQAAC3OSURBVHhe7d0HvM7l/8fxz+Ece+9smYe0RNmRpCGFMsqozLKKxq8yGkYaCklWqBRpq7QXhYwSiRLZM5sU+X+v+3z8S+Gc77juc4/Xs8f9u6/37fHo/6/Ofd7fdV1XgqSiWr0mxZ236mb4j1dB5wUA0eCY81rtvBb/47Vg0Rez9zjvsOiUBeMUSzbn7RHndZvzSrWIACCK7HJePZ2SeTElwoaTFodTLnWct8nOq2zoAwCITW84r25O0WxNiQhSBn3/f065DHTePndelAuAWHeN81ru/N67IiUiSCecwTj/kps4b++lJACIG384r+ucM5m3UiKC8P8F45RLHudtmfMqFvoAAOILJROwf14ie9J5US4A4lUm5/WKc7B9dUqEX6EzGOdfaA3nbb4ZA0Cc40wmIMfPYGrrOwDEO85kAnK8YMzkSQBACkomABQMAJwcJeNTgvMvL6fzvtt5/WdODACAezJemVIpqu8AgP/iTMYjUyysMwYAp0fJeMCZCwCkDSXjEgUDAGlHybhAwQCAO5RMGlEwAOAeJZMGFAwAeEPJpIKCAQDvKJnToGAAwB9K5hQoGADwj5I5CQoGAIJByfwLBQMAwaFk/sEsdlnJeV+REoN3LEFkWbVdmgDAn5x7EqX0T2aN3ojGApkO+wWT4ZgsrrlTEwD4k2tXJin/Qy5NES3uS4ZLZABgR9xfLqNgAMCeuC4ZCgYA7IrbkqFgAMC+uCwZCgYAwiPuSoaCAYDwiauSoWAAILzipmQoGAAIv7goGQoGANJHzJcMBQMA6SemS4aCAYD0FbMlQ8EAQPqLyZKhYAAgMsRcyVAwABA5YqpkwrIfzNoK+zQBgD9ZDyRKkQ1ZNcWsmFjq33rBAEA0yZc3j+TJnUt+WbtOP0k3UV8yXCIDgH/IlClJ+vboLGVKl9BP0k3UXy6jYADgX7JmzSL9enShZHyiYADgJCgZ/ygYADgFSsYfCgYAToOS8Y6CAYBUUDLeUDAAkAaUjHsUDACkESXjDgUDAC78f8mUomRSQ8EAgEuhkulJyaSGggEADyiZ1FEwAOARJXN6FAwA+GBKpm/PzpTMSVAwAOBTtqxZKZmToGAAIACUzH9RMAAQkOMlU7pkcf0k3UREyVAwABAgUzL9enWhZBwUDAAEjJJJQcEAgAWUDAUDANbEe8lQMABgUTyXDAUDAJbFa8kkOP+HKjnvK1Ji8BISEqR82TKaAMCfgwcPyoZNWzQFr0jhgjJkwF2agnXw0CF5bOQ4Wbtug36Sbv5wXtct+mL2WynRDusFk5SUKDOnjNUEAP4s/m6ZPPDIk5qCZ7NgjHgqGS6RAUAYxdPlMgoGAMIsXkqGggGAdGBKpm/P2C4ZCgYA0kn2bLFdMhQMAKSjWC4ZCgYA0lmslgwFAwARIBZLhoIBgAhxvGRKlSimn6SbQEqGggGACGJKpl+vrjFRMhQMAESYWCkZCgYAIlAslAwFAwARKtpLhoIBgAgWzSVDwQBAhIvWkqFgACAKRGPJsB8MgKhiez+YzJkzS+WK5TRFngMHD8mqn3/RlK5S3U+GggEQVWwXDFw5bclwiQwA4NVpL5dRMAAAP46XTNOU+DcKBgDglymZF52SKZkSU1AwAIAg5HReE1OGKSgYAEBQGjlnMd10TMEAAAL1qFMyJcyAggEABCmH82piBhQMACBo55v/oWAAAEGjYAAAVpxdrV6TRAoGQFTJnNlMuUCEy+K8SlMwAKJKmZIlJCEhQRMiGGcwAKJLtmxZpUihgpoQySgYAFGn7JmldIRIRsEAiDrlypTWESIZBQMg6tSrVSN0qQyRjYIBEHXy58srndu30YRIRcEAiEoN69WS6uefowmRiIIBELVu69RecuYwS18hElEwAKJW3jy55YnB90vVypX0E0QSCgZAVCtUsIA8dF9f6dKxLbP8IwwFAyDqmZn9VzZuKE8NGyRXNG4gFcqdKZkyUTbp7FhCtXpNzLnlipQcvKSkRJk5ZawmAAiPo0f/kvUbN8nqtb/KgQMH9VMcN/H56TqyJpmCAYA41KxtJx1Zk8wlMgCAFRQMAMAKCgYAYAUFAwCwgoIBAFhBwQAArKBgAABWUDAAACsoGACAFRQMAMAKCgYAYAUFAwCwgoIBAFhBwQAArKBgAABWUDAAACsoGACAFRQMAMAKCgYAYAUFAwCwgoIBAFhBwQAArKBgAABWUDAAACsoGACAFRQMAMAKCgYAYAUFAwCwgoIBAFhBwQAArKBgAABWUDAAACsoGACAFRQMAMCKhGr1mlRy3lekxOAlJSXKzCljNQHBe3T+NFmzZ5Om2FAmd1G588K2mlI3b9NymbrsPU2xY2Dtm6Vw9nyaEKRmbTvpyJpkCgZRr+nMu2TJ1lWaYsN5hSvI2y2Ha0rdjB8/kTs+HqkpdnzWdrSUy1tcE4IUjoLhEhkAwAoKBgBgBQUDALCCggEAWMFN/hiwbu9WeXDuJDl2TD9wqd+FbSQ5f2lN3g2aM1HW792myZ2EhAQZWr+rFMyWVz9JO27yc5Mf7vEUGdKsx4dPyBurvtDkzoVFq8ir1w7W5M0nvy6S9rMe0uRe28qNZXiDWzW5Q8FQMHCPp8iQZg/U6SR5s+TU5M78TcvlrZ/maHLvyF9H5aG5z2lyr0DW3HJfrfaaAMQKCiZG5M+aSwbWuVmTew9/NVkOHTmsyZ0Xf/hAftq1QZN7A2rfLLkz59AEIFZQMDGkZcUGUq/EuZrc2bR/h4xe9KqmtNv3x0F5YsFLmtyrU/xsaV6xviYAsYSCiTHDLu4uWRMza3Jn7JI3Qg8MuDFq0Suy89BeTe5kypgkQ+t30wQg1lAwMaZkrsLSz8UaVv90+Ogf8qCLeymmjCZ8N0uTez2rtZQyeYpqAhBrKJgY1OmcpnJ2wbKa3Jn9yzz5cv13mk5v6NdT5Y+jf2pyp2yeYtLj/BaaAMQiCiYGZUzIII827CGJGTLqJ+4MnDMh9GTY6SzaslLe/nmuJvfMpbykjImaAMQiCiZGVSlQRrqc20yTO6t+Wy+Tv39X08k9MGeSjty7rlJDqVnsLE0AYhUFE8P61mgtpXOfocmdxxe8dMqb92/+9KUs3rpSkztmrk7/2h01AYhlFEwMy5wxk+fZ8ebx42Hzntf0N/MggLn34tX9tTpKviy5NAGIZRRMjKtVrKq0Tm6kyZ3pKz6SpdtXa0ox4bu3ZcO+7ZrcMUvSXJ/cUBOAWEfBxAFzSapgtjya0u6vY8ek/xfj5Jjzl7Hj0B5PkzENc0Pf3NhPcP4CEB8omDhglmF5qG5nTe6Yp8VeW/l5aGzuy5hLZ17cel5zKc+ihUBcoWDixFXlakvjMjU0uTP4qymhm/rTln+gn7hjHjTodUFLTQDiBQUTRwbX6yo5krJqSrttB3dJ6zcHytFjf+kn7gyp3zX0wAGA+ELBxJEzcuSX/3lcFv/gn7/ryJ1rKtTzvAAngOhGwcSZ9mc1kQuKmD3m7MuVObsMrO19CwEA0Y0dLeOQ2bul8fQ+8ufRI/qJHeapsRurXKbJng37tsnvR/7QFBuyJGaS4jkLaUqdefhi64HfNMWOUrmLSFIGlhSygS2TYc0T37wsTyx4WVPwqhWpKG+0GMZjyUCEYstkWNPz/JZSIV8JTcEyi2w+cvGtlAsQ5yiYOGUmPg5vcJtkSAi+BLqce7VUyl9KE4B4RcHEMXOzv/1Zl2sKRomcheT26q01AYhnFEycu6dmu9Djy0EZXL+r5y2bAcQWCibOmYmXXveN+bcry9aShqWqaQIQ7yiYOHfoyGF5buk7mvy5t6a3SZwAYhMFE+eGz3tR1u3dqskfs5Q/ABxHwcSxJVtXycSlwZWC2Wb5i/XfagIQ7yiYOGVm8ff9ZHRoz5egmH1j7vh4lOw5vF8/ARDPmMkfp8wsfjOb34Zm5evK0437arLv3s/Hyqrf1muKDWYS7JD63TSl7rN1iz1vBhfJnmrUR4rlLKgJQWKpGFix8rd1ctn02+XIX0f1k+CNdgrmGqdowqHpzLtCl/tiyXmFK8jbLYdrSt2MHz9xzh5Haoodn7UdLeXYqM4KlopB4Mwlsb6fjLJaLsZ9nz8rWw7s1AQgHlEwcWbCd2/Jt1t/0mSPuQ9zu3NEfXw/fwDxh4KJI+Zx5EfnT9Nk35frv5PJS9/VBCDeUDBx5M5Pnw5NrPQiY4K3H5XBX0+Rn3dt0AQgnlAwceKlHz6UuRuWanLHrFU28Yp7NbljNgLr9dGT1u/5AIg8FEwcMDsdPvTVZE3uPVi3kzQqfYFcX6mhfuLO0m0/y5PfTNcEIF5QMHHgvi+elb2HD2hy55JSF8jlZ9YMje+v3VHyZskZGrs1atHMmHuUGMDpUTAxbtbPc2X2L/M1uWOW3X+4fhdNIvmy5JL7a3XU5M7RY3+FLpV5vQcEIPpQMDFs9+/75f4vxmlyr0/160MbiP1Tq+RL5KKiVTS5s2b3Jnlo7nOaAMQ6CiaGDZozUXYc2qPJHbNUSddzr9F0omEXdw9tuezF1GWz5dNfF2sCEMsomBhl1qaaufJTTe4kOH8Nrd9dEjNk1E9OZJbuuO285prcMysJ7Pp9nyYAsYqCiUEH/vxd7v7sGU3uXZ/cUC4sWlnTyfW8oKWUzn2GJne2Hdwl9/j4/w9AdKBgYtCwr5+Xjfu2a3LHPCV2X60Omk4tc8ZMzllO2lf7/bd3Vn8lr638XBOAWETBxJhvNq8IbfzllSkX87RYWtQtcY5cW6G+JvfM49Ob9u/QBCDWUDAx5I+jf4aWg/G6wGSNM5JDT4m5MbDOzZI7cw5N7uz746D0+egpFsQEYhQFE0NGfDPd87pf5oa+eTrM3OB3o0DW3M5ZT3tN7n218Xv28gdiFAUTI37YsVaeWfK6Jve6nNtMKuQrqcmdNpUvlerO2Y9Xw75+IeZ2pARAwcQEM0vezyZixXMWlNurt9LknjnrecQ5+znVY82pOXzULIg5ggUxgRhDwcSAZ5e8Id9vX63JvYfrdQ0tC+OHOfs51cTMtFi2/Rd5fMFLmgDEAgomypnlVx5f8LIm95qceVFopeQgmLOgkrkKa3JvzOLXZOGWHzUBiHYJ1eo1qeS8r0iJwUtKSpSZU8ZqAoLXdOZdMbdS83mFK8jbLYdrSt2MHz+ROz4eqSl2fNZ2dGjlCASvWdtOOrImmTMYAIAVFAwAwAoukSHqmbXXjsbYE2gZM2SU7ElZNKXuz6NHYnKvnRyZskmGBHdzs5A24bhERsEAQBziHgwAIGpRMAAAKygYAIAVFAwAwAoKBgBgBQUDALCCggEAWEHBAACsoGAAAFYwkz+Krd69Ubq//6im2NGvRltpXKaGptT1/uhJWbFzrabYkJy/tDzVqI+m1H2wZoE8tmCaptgx8fJ7pUSuQpoQJJaKwWkt37FGLpt+u6bY8cQlveT6Sg01pY7l+lmuH+6xVAwAIGpRMAAAKygYAIAVFAwAwAoKBgBgBQUDALCCggEAWEHBAACsoGAAAFZQMAAAKygYAIAVFAwAwAoKBgBgBQUDALCCggEAWEHBAACsoGAAAFZQMAAAKygYAIAVFAwAwAoKBgBgBQUDALCCgoliGRISJFPGpJh7ZUxw92OZKWPif/4e0f9K1H+6tDH/zk7+94nuVwaXPwuILAnV6jWp5LyvSInBS0pKlJlTxmoCAESCZm076ciaZA4PAABWUDAAACsoGACAFRQMAMAKCgYAYAUFAwCwgoIBAFhBwQAArKBgAABWUDAAACtYKiaKrfptnbR6c4Cm2PFAnU5ydfk6mlLXftZD8v321ZpiQ9WCZWXqVf01pe6tn+bIwDkTNMWO15sPldK5z9CEIIVjqRgKJoot37FGLpt+u6bY8cQlveT6Sg01pa7pzLtkydZVmmLDeYUryNsth2tK3YwfP5E7Ph6pKXZ81na0lMtbXBOCxFpkAICoRcEAAKygYAAAVlAwAAArKBgAgBUUDADACgoGAGAFBQMAsIKCAQBYQcEAAKygYAAAVlAwAAArKBgAgBUUDADACgoGAGAFBQMAsIKCAQBYQcEAAKygYAAAVlAwAAArKBgAgBUUDADAioRq9ZpUct5XpMTgJSUlyswpYzUhSKt+Wyet3hygKXY8UKeTXF2+jqbUtZ/1kHy/fbWm2FC1YFmZelV/Tal766c5MnDOBE2x4/XmQ6V07jM0IUjN2nbSkTXJFAwAxKFwFAyXyAAAVlAwAAArKBgAgBUUDADACgoGAGAFBQMAsIKCAQBYQcEAAKygYAAAVlAwAAArKBgAgBUUDADACgoGAGAFBQMAsIKCAQBYQcEAAKygYAAAVlAwAAArKBgAgBUUDADACgoGAGAFBQMAsIKCAQBYQcEAAKygYAAAVlAwAAArKBgAgBUUDADACgoGAGAFBQMAsIKCAQBYQcEAAKygYAAAVlAwAAArKBgAgBUUDADACgoGAGAFBQMAsIKCAQBYQcEAAKygYAAAVlAwAAArKBgAgBUUDADACgoGAGAFBQMAsIKCAQBYQcEAAKygYAAAVlAwAAArKBgAgBUUDADACgoGAGAFBQMAsIKCAQBYQcEAAKygYAAAVlAwAAArKBgAgBUUDADACgoGAGAFBQMAsIKCAQBYQcEAAKygYAAAVlAwAAArKBgAgBUUDADACgoGAGAFBQMAsIKCAQBYQcEAAKygYAAAVlAwAAArKBgAgBUUDADACgoGAGAFBQMAsIKCAQBYQcEAAKygYAAAVlAwAAArKBgAgBUUDADACgoGAGAFBQMAsIKCAQBYkVCtXpNKzvuKlBi8pKREmTllrCYAabFm7TpZbV5rfpUdv+2S/QcPyIH9B+XAwUOh8eFDhyVb1qySJWuW0HuB/HnljMKFpHChAlK6ZAmpULaMZMuWVf9uwH81a9tJR9YkUzAB2bBps9zWr78m7yaMGi4F8+fTFLwJz78sb7/3kSZvKlUoK48M+p+mkztw8KC07dRLU9qdUaSQjH1iiKb4sW37Tvn4i7my5LtloVI5cvSo/ol3pUsWl6pVKkmt6tWkcqXy+mkw+g9+XJYu9/dr47JL6sutt7TTFLy9+/dLuy59NHn3xOD+UrZMKU2xIxwFwyWygBQveoY0blBXk3czXntbR8Hbu2+/73IxBtzVW0fwa8Hi72Tok2Okc++75eVX35KVP/8SSLkYa9dtCP33/t+Dj0i32++VF195Q3bt3qN/6k//u9wfPPzb+x9/Llu379AUvCC+SxfXuSgmyyVcKJgA3da5g468++DTL2XL1u2agjXjdf9fuDYtrpbs2bJpglcrVv0sdw8aKoMfGyXzFizWT+3ZvHWb899/lnS8ta+Mmfi8rNuwSf/Em0xJSdKuVXNN3gXxM3kyoYOp2R9r8u72W60f5cc0CiZg/Xp11ZF30y186YL4wuXInl1aOwUDf56f/prcM2iY/LhqtX4SXubMoeddA2TSC9NDlzK9atnsCsmdK6cmbz76bK5s3LxFU3CCOHuhXPyjYAJW96LqoRusfnzyxVeycVOwX7ogvnBBXBaJZzt2/ia97xkkM998Vz9JX2+++6F07v0/+dA5a/aq/53+fyamvzZLR8HYs3efvP2+v4Mpc1nMXB6DPxSMBf3v9n+PIsizmCC+cHWc4qxUvqwmuLVv/wEZ8sTTofsikeTAgQMyevwUGTXuOfnzzyP6adqVdw6m6tasocmbz+fOC/SAylwK9CuI4gQFY0WuHDlClw/8+HzufOdLt1mTP0F84e4M4NJfvDK/uIc+MTr0dFikMpeqbr/3Qflp9Rr9JO369eyiI++mvfqmjvzZvWevzPJ5MGW+u3nz5NYEPygYS8wN0OzZs2vy5sUZ/r90QXzhenTx//BCPHts1DhZ/uNPmiLX+o2bpF//wfLlvG/0k7Tr4fMBlzlffyMbN/s/oHrljXd05E2WLJkDeXgBKSgYi+7p001H3sxdsDA0v8YPv2cvZtLepRf7f/w6Xn01f6HMW2j/KbEgPTbyWfnr2DFNaXNpg7pSqkQxTd5Mnf66jrzZvWeP74MpLo0Fi4Kx6OwqyVL9vLM1eTP15Vd15J45e3nng080efO/22/VEbyYNvMNHUWPh+/vJxkSEjSl3X39eurIG/O4tp8Dqhmv+zt7ueiC8+Ws5IqaEAQKxrL7fR4RzV/4razf6O1L5/dBgWuvaiJFChfUBLdmvPGO898u+EdwberT/RapWtks7uFe4YIF5KrLLtHkzeQXX9GRO2YCqd+Dqb49O+sIQaFgwuCWdq105M3kF2foKO3MF+7dDz7V5F5ixozSsW1LTfBizlfzdRQd2rduIQ3q1tTkTecObUL3Mbz6ZslST5NAzSoIfnS/+cbQ5FEEi4IJg6svv1SKn1FEk3sLv/3e9Zdu2iv+Ls34vdwR7zZv2Sa/+pwtf5z5hX3FpQ3kphtayt19usuTQwbK1LEj5LGH7gtN7DXFUNXnpZ0rGjeQFldfrsmfvrf5m6A46QV3B1TmYGr2x59rcq9EsSLSpNHFmhAkCiZM7nJ+MfgxYepLOkrdb7t2h5ac8crcNzr/nLM0wYslS5fryLt8eXJLhzYtZOozI6TrTTfINVc2kVo1qkmZ0iVCM+hDc1Auqh4qhof73ykjhg6Qppc3cv304oXVzpWuHW/Q5F+NaufJOWcla3JvydJlsm79Rk2pe2HGazry5s5e/h7GwalRMGFinrC5pH5tTe59t2yFcxaTti+dnwcDjN7db9ERvFrs/JL0w5S8WVm7edPLJXPmTPrp6Z1ZqqR0atdaJo58RK5s3FA/PT0zY/3evj00Bcfv33N8Gg+ozMGUmcPjVdPLLnG+m8U1IWgUTBj16nqTJCYmanJv7KRpOjq1nb/tkk+//FqTe106tJWcOfzN34HIps1bdeRe0SKFQw+HZMyYUT9xJ2vWLNKlY1sZMuAuqVzh1Mv0m8mEwx+4V1OwsmTOLG1bNtPk3tLlP8qv61Nf9WDyNG8PBRzXqUMbHcEGCibMTMl4tfzHlc6X7vRnMZM8PBBwXJFCheTKy9J25IvT2717t47cq37eOTryp0qlCjJ00N1y/bVX6ScnemTQPc4Bj7cSS4tWzZuGNkHzauzEF3V0cuZgyqx44dU9PIJvHQUTZvVrX+jrhuyYiVN19F87du4KzYj2qm8PVo8NwuHDh+XAod81udfmumBXrL7humvk1k7tNaUYOvBuKVzI/iPovbvfrCP3flj102nXbps4dbqO3Dvv7CpSs/r5mmALBZMO/Czpb5Z4X/Prek0nGj/l9Ed8p3N5o4ulQrkzNcEPM8HVq2JnFJGsWbJoCs5lDevJAF2EtV+PLlK5YrA7XJ5KcoVyzkGV91WJnx4/RUcnMttIm5UuvOrRpaOOYBMFkw7y5M4lLa72vhjmqHGTdfQ3sxT8vIXfanKv28036gh+7TvgfY8V8+SYLdXOqSovTxwtdWv5W/3YrTtu6yQJCd5+1axaveakB1RjJ72gI/fMk3kF8uXVBJsomHTSvnVzKZQ/vyZ3zKq8v6xdpynFMxOf15F7bKwULLOatldbt9nbQtgwDwCkh243tdWRe/8+oDIHU98s/k6TOwXy5ws9mYfwoGDS0a2dT7wu7obZw+O47c4XzkzG9MLcD2JjpWD52eVx286dsnf/fk2xw0xkTK7gbT+hfx9Q/fNn360+3bzfE4J7FEw6Mjca69Ssrskd86Vbo1+6kWOfC7170b1TOx0hKGbeSpZM3pdL+djHvI5I1svHL/fjZzHbduz0PInVrPhctYq3ddbgDQWTzvre5n2BvZHOl27L1u2ydPkK/cSd1s2bhm4qI3jJlcrpyL2XZr7p60GBSGXm91xzZWNN7pgzmDVr18vIZybpJ+51bs+cl3CjYNJZhgwZpFP71prcMV+6YU+O0eSOuYzTxsdEOJyen6e0Dv/xh+8JhJHqphuu9/wgw2NPj5fvV6zU5M6tt7RL84oICA4FEwGaNmkkFcqW1uTOqR5ZTo2fCZ9IXZXkCjryxqzGMOTx0XLM5cZf0aBzR283/Dds9LZ4aKUKZeWyS+prQjhRMBGi+y3eb/i7Va9mDbnA50ZoOD0zi750SX9rXM1f9K30H/zYf54YjHZmwc6aNcI3yTHIhTzhDgUTIc4sXdI5k/G3WVNaeT2ChDtXpHHBydP5/oeVcvu9D8r01/xtHhdpeoZpouO1V14W+m4hfVAwEaRT+zaSO1cuTXaYzc9y5fQ+TwNpZ2bP58ubR5M/02a+KXc4RfPlPO9LAUWS7Nmyhfa3sclsW9Dxhus0IT1QMBHG5uquZml2s/kZwqd1i6Y68m/12nXy2Mhn5Z5BQ2XBoiX6afQy+9uYn0lbbruFR/DTGwUTYerVrC41qp2rKVhmO1uE12UN6wd+v2vFqtUy+PGnpf+QxwPZ2Cw92Xp02GyiVvuiCzQhvVAwEairhXskZstds/Agwq9DGzuXgpYuWyGDho2Qhx4dKcs8Pr6b3pIrlgv9bAatcwfuM0YCCiYCmfWS2rVqrsk/M6ucs5f0U7J4UavrvS1cslTue+jR0JyoVT//op9GD7MdtNttnk/nxuuvlYIF8mlCeqJgIlTLZleEtlkOQtebbwhN6ET6Meu9eZ1Qm1ZfL1gsdw4YIk88PV42+thRMz10CegAqESxonLdNVdqQnrjt04EM9sX+3Vu1crSsF4tTUhPZkJtq1PsLhkks8vjrX3vk+envyZ//nlEP41spoDPP+csTd6ZJzEROSiYCHZW5YrS2OcMZC6NRZa2110jN9/YSpNdM998V7r0uUc+/PxL/SSydfF57/GSerWdA6pkTYgEFEyE69y+tWTJ4m1lXnOpoHjRMzQhUjS74lLp3S08S/X8tmu3jH52SmiJ+yNHjuqnkcns39/W4/p4iT7W9IM9FEyEy5SUJGdV8rau1ZUBzCSHHQ2do+3B/e/0vZxMWn346ZfS+38DZdkPkf202ZWXXSKJGd3/WqqcXFGyZcuqCZGCgolwa9dt8LyZ2NjJ3vfoh31nOb8Unxo2KGwHAhs2bpH7Hn5UPvpsjn4SecZNniZHjv6lKe3MlhUrf1qtCZGCgolw46a8pCP35i1YHDNLi8Qyc+/hrl7dwnY2YzbvmvbKG5oih9kG+fO58zS596xTTogsFEwEe+/DT2W5zwl04/nSRQUz69yczZiVf/Pl9bZfihvTX58lYye9oCkyjJvq72fV7PL6+qz3NSESUDARat/+AzL2Of+XuPbs3ceRXRS5onEDGf/UI6Gb3TkCnHx4Mu999JnMcIomEkx9+TXZtm2nJu/MRm3btvv/+yAYFEyEGj8luFJ494NPZPmPqzQh0iUmJkqr5k1l8pjHpUObFp53gEyLF195I93vyZj9bl59611N/o3j3mPEoGAi0IJF34YmywXp2QDOhhBeSUmJ0rzp5fKcUzRmPlORQgX0T4Jl7smsW79RU/iNf977fcaT+WbJ0tCOoEh/FEwECuLS2L/96vwCiZTLIXDvqssukWefHCa3dmofWg4laBOen66j8Hrvo0/lhxU/aQrOuOe4LBwJKJgIM/XlmbLzt12agmUuh2zdvkMTopHZxGz0ow+GJmoGuVPjd8t+kNfefk9TeOzbt1/GTrJzZn3w90Py9PgpmpBeKJgIsiZ0LXq2JjvGTJiqI0QzM1FzxJAB0q9X18A27Xp91mz569gxTfaNnxrspbF/++DTL0PFifRDwUSQcEyM/Pb7H0KzuhEb6l5UXZ4Y3D+0GnGunP6eOtu774C88/7Hmuyab+E+48nYOkNC2lAwEeKd9z+RH1eFZyayjXs8SF9miZVRwx/yfTYza/YnOrJr9LjndGTXpi1bQ5eGkT4omAiwd99+GRfgY8mpOXLkiIwYM0ETYkWe3Llk4N19fJXMlm3bZM2v6zXZMWXazNDZUriYh1u2bN2mCeFEwUQAs/6SVz27dNSRO5/NmRf1+7njv3Lnyindb2mnyRub9y3MnJfXZnm7z9jt5hskIcHbr6ynwnTGhBNRMOlswaIl8uXXCzS506NzB2l0cZ3QxDwvxoznhn8sKn9mabm80cWa3Pt++Y86Cp7ZNsCryxs1kF5dOmhyxzwK/e4Hn2pCuFAw6ezxUd4uVZklzS9tUDc0NkXjxbadO2XKtFc1IZbUuai6jtzbtWevjoJlHiAw64V5cXz/nIb1a3veHymcl6GRgoJJR5OnzZTf/zisyZ0+3TvpSKRB3ZqSPbu3vTBem/WebOb6dMwpVrSIjtzbt3e/joJj1sTzujJ4lkyZQ49lH3dbp/Y6cufYsWPy6MixmhAOFEw6SVn51du1aFMmdWvV0JSi283er7uPeJob/rEmb57ckqBjt3bvC/4MZswE75fGet96s45S1Kt1oedHsufMWyiLPO6vBPcomHQyYsx4HbnXu9stOvpbvZo1PC+KuPLnX2TW7PDMf0B4mK2SvU6ZzJMzl46CMX/hEpm38FtN7uTOlUtq1aim6W/dbvJ+QDV63GQdwTYKJh2YX+brN27R5E7+fHnlwmrnajpRl5tu0JF7tmdVI7yWr/S+vleePMEWzNARz+jIvT7dTzx7Oc7sn1Mgf15N7vy2e49M4Oc9LCiYMNu9Z6+vX+a9uqbc7DyZmtXP97Xi7tAnRusIfpg1vW7ucWfoQMLs65Me5vjYyTTIDc8mTHlJjh1zvwWyUahQfjn/nLM0/VfXjm115N7bzn8bMwkTdlEwYfbkM5N05F6xM4rIuVUrazq5Tu3b6Mg9cxlj4ZKlmuCV2fveLFhqDiRu7NJbhj05RubOW6h/at9b730Y2i7bqzy5gymYn39ZK2/7WHrmtltOP8erRrXzpGiRwprce3TkszqCLRRMGH39zWJZsnSZJvfMRLPUVD//HF/LuY8YM1FH/iR4vsUc/dZv3KSjFF87v+yHjxwrrTreFjpLfO/Dz6wdPZslhyb6XHq/ZPFiOvLnkZHeL42VKlHMOZhK1nRqnTq01pF7ZtLn27M/0gQbKJgwGjZijI7cM8t/nF0l9S+c0am99y/d/gMH5NkAFt1MSIjfgtm45eSPfZtH0s1Z4tjnXpDud9wnPe4cELoX8NX8hbJxk7d7cseZM89Bw0YEMtfjwgtOfo/PjTfeed/XFshdOqTt8le1c6pK6ZLFNbk3YerLoceXYUdCtXpNKjnvK1Ji8MyufDOn8Oy52ZvCLB/u1dCBd0vliuU1pe6O+x7yPKnNGPPYw77mUhw69Lu0vqWHprTLlJRJkiuW0xQZsmTJJPfekfZ/lmZt/56j5EbmTJlCR+7mF+YBp+gvrH6+5MiRXXJmzy7Zs2eTnDlzyMEDh0IHATt37ZZNm7fKhk2b5JvFS0PzTIJQObm8DO1/tyZvdu/ZIx2699XkXsVyZ8rwB+/VlLpvv18hA4c+rsk9c5/HrOEWb7z+nLqQTMGEwU+/rJV+9z+syb0qlcrLkAHuvvRmuY/7Bz+myT1zmc1sbOWV14KJRG7+XUT7P/fNN14vza5orMmbex98VJb/uFKTe8MG3SPJFdwdZNw1YEjocXuv7u/XM3R5OZ6Eo2C4RBYGQx4bpSNv2rdpqaO0q1qlUqiYvDL3Ed5890NNSKt/33+JJuYMqvaFF2jyxjzM4KdczGVgt+VidGjr/jvyT4+NHKcjBImCscwsFW6eu/fKnL5XKl9WkzvtWrfQkTeTXpguf/3l7RHTeLUuigumY9vrpED+fJq8MQ8z+NGu1bU6cqdKpQpStXJFTe6Z+2PPsk9S4CgYi3Y5xeJ3s6Mbrvf2hTPMkeB5Z1fR5M0DjzypI6TFps3Rua7beWefJVc0bqDJG797DNWodq5UKHemJvfatfJ3QPXuh5/Kxs2bNSEIFIxFQx73N3HxohrnSzmfOxT6KSjDbLG8YPF3mpCaLad4giySmSf+Ovq8xLTq519Cewz50abF1TrypmL5M+WCc6tq8ubBR/xdzsaJKBhLPv3yK1m1eo0mb1pdc5WOvDN7g/h97PSREU/rCKnZuMXf48bhZlYqHnTPHb4e9TUGPTJCR97UrnGBnFm6pCbv/B5QmR0933znA03wi4KxxM+MfaNOzeqBfOGMNi2a6cibI0f/kmcmPq8Jp7Nly3YdRT6zkOQD992RpgmNp/PCjNflwIFDmry5vrn/gynDfGdqOmf+fkx6cYYcPXpUE/ygYCwY/pT/x7KDOHs5rkypElK35onL+7s1++PPZf1Grk+nxuv+PuFmHr1+4H+3e36A5DizavMrb7yjyZt6NS/0fQb1T34vtRmDhnHvMQgUTMCW/bBS5s73t+5U/doXSskSwSzXcVzrFk115N0Dw/xdBol123Z4n7keTq2bNw3N6zEHHn4F8RBIqxbBHUwZpUoUd75DF2nyZunyFaHtzOEPBROwQUF84a71Xwb/VrzoGXJJvVqavNm+87fQEiA4uUIF8jtnBXfIxXVqSrYs3nYYtclMJBw1/AFp09LfJdPj3v/kC1m7boMmby6uc1HoZzNoQRxQDX6ce49+UTABeu7FGfLnn39q8qahUwJ+lmg5ndYB/GJ57sVX5MgRrk+filnt+vZbb5GXJo2SAXf1liaX1Pe1+KhfBfPnk6svv1SGDbwnNFs9qIUsjTETpurIu1bO2ZQNZpXlxg3qavJuDPcefaFgArJ123bn6N7/0yc2zl6OM0fYlze6WJN3D/h8YiheVDu3qnS/pV3octQL454KFU7rFleHJs/myO5ty9+0MJe+rmzcUB6+v59MGDVcbmnXKvD13R5+dKSOvGt0cW1fy+2nplVz//di3v/4c1m3IXonz6Y31iID0sm+fftly/YdssU5ONm61Xk57yYf/v2w/H74sBx2Xoec8eE//giNExMTJUvmzJIlS2bJnJQp9J4pSyYpWriQlC1dWs4sU9J5LxX6zgGpYbFLAIAVLHYJAIhaFAwAwAoKBgBgBQUDALCCggEAWEHBAACsoGAAAFZQMAAAKygYAIAVFAwAwAoKBgBgBQUDALCCggEAWEHBAACsoGAAAFZQMAAAKygYAIAVFAwAwAoKBgBgBQUDALCCggEAWEHBAACsoGAAAFZQMAAAKygYAIAVFAwAwAoKBgBgBQUDALCCggEAWEHBAACsoGAAAFZQMAAAKygYAIAVFAwAwAoKBgBgBQUDALCCggEAWEHBAACsoGAAAFZQMAAAKygYAIAVFAwAwAoKBgBgBQUDALCCggEAWEHBAACsoGAAAFZQMAAAKxKq1WtSyXlfkRKDl5iYKM88/rAmAEAk6Nz7Hh1Zk2y9YAAAcSmZS2QAACsoGACAFRQMAMAKCgYAYAUFAwCwgoIBAFhBwQAArKBgAABWUDAAACsoGACAFaZgjqUMAQAIzDFTMJuc11+hCACAf6ZTNmVY9MXsfc5gVegjAAD8W2W65fg9mEX6DgCAX6FOoWAAAEE7oWDm6jsAAH6FOiVUMIu+mL3AeZtixgAA+DBFO+WEeTB9nNfGlCEAAK6ZDjFdEvL/BeM0zm7nrVNKAgDAtU7aJSEZ9T1k868//1y0VDkzrOe8EswAAIBUmHkvDzjlMjElpjhpiVSr16SO8zbZeZUNfQAAwMmtdl4dnXKZkxL/dsIZzHHOmcw650xmgjPM7byqOy/OZgAA/2SWGXvaebVwysWUzH+kWhzO2Uxx582UTLV/vAo6LwBA/NjuvMz8luOvb5xi2eC8n4LI/wGkBKH8L2F99QAAAABJRU5ErkJggg==;fontSize=14;" parent="1" vertex="1">
          <mxGeometry x="60.01" y="680" width="60" height="80" as="geometry" />
        </mxCell>
        <mxCell id="DlqXC4TE-N95-IHuBmYz-8" value="&lt;span style=&quot;font-size: 14px;&quot;&gt;Dim Country&lt;/span&gt;" style="text;html=1;strokeColor=none;fillColor=none;align=center;verticalAlign=middle;whiteSpace=wrap;rounded=0;fontStyle=1" parent="1" vertex="1">
          <mxGeometry x="60.01" y="760" width="60" height="30" as="geometry" />
        </mxCell>
        <mxCell id="DlqXC4TE-N95-IHuBmYz-29" style="edgeStyle=orthogonalEdgeStyle;rounded=0;orthogonalLoop=1;jettySize=auto;html=1;entryX=0;entryY=0.5;entryDx=0;entryDy=0;fontSize=14;strokeWidth=2;" parent="1" source="DlqXC4TE-N95-IHuBmYz-1" target="DlqXC4TE-N95-IHuBmYz-24" edge="1">
          <mxGeometry relative="1" as="geometry" />
        </mxCell>
        <mxCell id="DlqXC4TE-N95-IHuBmYz-1" value="" style="shape=image;verticalLabelPosition=bottom;verticalAlign=top;imageAspect=0;aspect=fixed;image=data:image/png,iVBORw0KGgoAAAANSUhEUgAAAZgAAAIACAYAAAC/5nrmAAAAAXNSR0IArs4c6QAAAARnQU1BAACxjwv8YQUAAAAJcEhZcwAADsIAAA7CARUoSoAAADu/SURBVHhe7d0HmFTV3cfx/+zObO+wyyLSO4Ki2I0YxYKvsSRqisbYW8QWG2qiYNdookYjMZqIJRp71xi7scZOBwERWLawvff3ntlDgoZlp9wzc+7O9/M895177hp9d2fm/u7pPunDtOkzt3VedlGnmx2FzgEAXtDtHCud49PNjo8+efvlWucVBvUaME6wZDgvNzrHWc7RZxABgIdUO8fZTsg81FOECVsMDidcvue83Occo4MXAKB/eto5znCCpqynCDcl6df/cMLlSuflLecgXAD0d0c4xyLnvvd/PUW46Vs1GOePPNN5eamnBAAJo805jnZqMs/2FOGG/wSMEy55zstC5xgSvAAAiYWQcdnmTWS3OgfhAiBRpTjHY87D9mE9RUQrWINx/qC7Oi8fqnMASHDUZFyyqQazl34FgERHTcYlmwJGTZ4EAPQgZFxAwADAlhEyUfI5f7xs57XGOf5nTgwAgD6ZSKlQ2Ua/AgD+FzWZCKlgYZ0xANg6QiYC1FwAIDSETJgIGAAIHSETBgIGAMJDyISIgAGA8BEyISBgACAyhEwfCBgAiBwhsxUEDABEh5DpBQEDANEjZLaAgAEAdxAy30HAAIB7CJnNqMUuJzivS3qK7uv2icx5i23+Abhn7vSD9Zm1WCDTYb4G4+vWJwCQMKjJOGgiAwAzEj5kCBgAMCehQ4aAAQCzEjZkCBgAMC8hQ4aAAYDYSLiQIWAAIHYSKmQIGACIrYQJGQIGAGIvIUKGgAGA+Oj3IUPAAED89OuQIWAAIL76bcgQMAAQf/0yZAgYALBDvwsZAgYA7NGvQsZ8wKgNYQAAoeo3IWN8wzEA8JKC/DzJy82RVV9/o6/Ejec3LaOJDAA2k5ISkAtmnSojRwzVV+LG8zUZAgYAviM9PU0unHUaIRMlAgYAtoCQiR4BAwC9IGSiQ8AAwFYQMpEjYACgD4RMZAgYAAgBIRM+AgYAQkTIhIeAAYAw/CdkhhMyfSFgACBMwZA5m5DpCwEDABEgZPpGwABAhAiZrSNgACAKKmQuOPtUQmYLCBgAiFJGejohswUEDAC4gJD5XwQMALhkU8iMGLatvhI3VoQMAQMALlIhc+E5pxEyDgIGAFxGyPQgYADAAEKGgAEAYxI9ZAgYADAokUOGgAEAwxI1ZHzOf2iC87qkp+g+n88nY0eP1CUAiE5TU5OsKynVJfcVDyqU6664WJfc1dTcLDfffrd8/c06fSVu2pzj6E/efvnZnqIZxgMmEPDL4/Pn6RIAROfTLxbK3Btv1SX3mQwYJZFChiYyAIihRGouI2AAIMYSJWQIGACIAxUyF5zdv0OGgAGAOMnM6N8hQ8AAQBz155AhYAAgzvpryBAwAGCB/hgyBAwAWGJTyAwfOkRfiRtXQoaAAQCLqJC58JzT+0XIEDAAYJn+EjIEDABYqD+EDAEDAJbyesgQMABgMS+HDAEDAJbzasgQMADgAV4MGfaDAeAppveDSU1NlUnjx+iSfRqbmmX5V6t0Ka763E+GgAHgKaYDBmHZasjQRAYAiNRWm8sIGABANDaFzKE9xf8iYAAA0VIh85ATMsN6ij0IGACAG7Kd496e0x4EDADALfs7tZgz9DkBAwBw1W+dkBmqTggYAICbspxjpjohYAAAbttJ/R8CBgDgNgIGAGDE9tOmz/QTMAA8JTVVTbmA5dKcYwQBA8BTRg4bKj6fT5dgMWowALwlIyNdiosKdQk2I2AAeM7oUcP1GWxGwADwnDEjR+gz2IyAAeA50/fcNdhUBrsRMAA8Z0BBvpz6i5/pEmxFwADwpP2m7ym77LSDLsFGBAwAzzrrlF9IdpZa+go2ImAAeFZ+Xq787tpfy5RJE/QV2ISAAeBpRYUD5erLL5DTTjiGWf6WIWAAeJ6a2X/IgfvJbTfMkf87cF8ZN2aUpKQQNnHW7Zs2faaqWy7pKbsvEPDL4/Pn6RIAxEZnZ5esXV8iK79eI42NTfoqNrn3gb/rM2MmEjAAkIAOP+YUfWbMRJrIAABGEDAAACMIGACAEQQMAMAIAgYAYAQBAwAwgoABABhBwAAAjCBgAABGEDAAACMIGACAEQQMAMAIAgYAYAQBAwAwgoABABhBwAAAjCBgAABGEDAAACMIGACAEQQMAMAIAgYAYAQBAwAwgoABABhBwAAAjCBgAABGEDAAACMIGACAEQRMAuvu7DkAt236bPH5Smy+adNnTnBel/QU3RcI+OXx+fN0CbHS8pVfmpcGpHmlX9qcQ7121iVJV6NPOht80t202bNFUrck5zhHdpck5/Yc/vwuSRncKWljO3qOMe3OtW79P0Ci6mwRaV3ufK5W+J3PWEDa1iZLZ02StDtHZ606fNJVnyTd7T79v3BuMmnOZyqzW3zO4XeOlJHO52m0c4zqkNRR7ZI1rV3/k4ilw485RZ8ZM5GA6SfUk2LNS+lS969UaXCO1q/9+ifuSS7slHQnbIpn1UvO9FZ9Ff1dR1WSrJmdJ81LnEBZbeBzldcl2d9rley9WiR3v1ZJGUK1JxZiETA0kXlc8xK/rJ2bK19OGSyrzyiQygczjYSL0lmRLA3vpTpPp/oCEoIvpVtqX0w3Ei6KqgHVPJ8uay/Nl4W7FcuqM/Kl9o1U/VN4GQHjUU2L/bLylAJZcsAgqfhzVrD5K1ZStuEJM5EkZ8W2abTm+QxZedxA57NdJDX/SNNX4UUEjMeo/pO1c3Nk6YGDpPbldH01tgIETOJxajGxpprkVp08wKnRFEjLCjO1J5hFwHhIwwcpwae6ij9n6yvx4c+lsz/RpMbxoUI1ny3ed5BUPpahr8ArCBiPqHgwQ5YfVShta+P8JJeUmOHS3SFS+2aqrL8hR5YdPVAW7VMkn283WD4bs40s2H2QLD2sUNZcnCeVT6VLe3n/+1oFLOh4X3N+vqy/PkeX4AUEjAeU3pkla2fn61J8JWL/S9m8LFkwrVhW/nyglN2RLY3vp0rryoB01SZJd4tP2tf5penTFKn8W6asObtAFuw0WNb+Olfa1ifrf4P3pQx2EtYCZXdmy9fn5+kSbEfAWG7jwxlScn2uLsVfYHDiBEz9BymycI9Bsv6aXOmoDC8sKu7LCo6Iqrg/U1/xNpve96rHMmXd1dRkvICAsZgaQfPNRXbUXDZJlBqMapJc4UKT5NrL8mTtFfY8IETKtve9/E/ZUvbHLF2CrQgYS3W1iqy7yr4bUyLUYKpfSHO1SbLiL1lOLdTbT9w2jhxcf12uNH0Z0CXYiICxlGqWaVtj39DM1H4+y7ppQUBWn1OgS+4pvTNbKh7w7igoW2uu65zvCexFwFio7l8pUvFXO6v//X0OTNldzt+99b/raLlpw23ercXYGjBqZYmyP9FUZisCxkJVj9rbMdyf14lqWhSQ6mfN1TI6SpOl/F5vdvrbPPep8u/Mj7EVAWOZ9ookqXrS3i+MDfMhTKl83PzKCJWPcjN0W8vyAGuXWYqAsYztN6BAfpc+63/q3zG/7lXzohTPzo8JWDIXZksIbjsRMJapf5cnsXho/SZZWpbGZkRS3VvefI9t7n+ri8HDAcJHwFim8csUfWYff1H/bR5rr4hdraK93Js1GJtHEHbVJEnLShbEtA0BYxH1BVFfFFv15xFkHdVmRo5tSYfF7/HW2P7+N37BnBjbEDAWaV4W+ycwX1q3ZO7eKnk/aJaBxzVI/g+bJPeAZsnas1XSJ357Z7H+PIJMrSsWK14NmO/WYAJDOiRz11bJmdEieYc1ycBjGyX/iCbJ2qsluPtprKnOftiFLZMtUvVUunx9tvuT/LYke78WKXRuCLn7t4ivjxabtpIkaVntl+5WX3BL2/6o5tU0WXXCAF0yq/CkBhl6Va0ueUfL18nSvDAgaWM7goevj5ysfz8lOCKy8uHYDM0uPMX5u87x3t81XtgyOcF0tZhvplH9KKPuqZSx91dK3kF9h4uSsk2X5OzV1m/DRQnkxW50nD+G/y03pY3olPwftEj6+L7DRcneo02G/7ZGxj1bLpm7mP/sxOL7g/AQMBYx/QVJn9Qm4x7fKHkzW/QVbJJcEMOAKey/Q723JGun9uDnLufgZn3FDALGPgRMgkjK7ZJR91VJ2ih75zLEk/q7pI79dp+TKTn7JF7Aq5rymD9XBftsTPEJO63ahoCxSIrBlYqHXVsT121vvSD3++Zv/KoWmToscd+HodfU6DP3JdJeRV5BwFjE1BdEjQYrOMJs80R/UHCU+b/RgJ806bPElDGpQwqObtQld6m+QtiFgLGIqRpMzv6ESygytmuX/MPMBUBgUKcUnWzm5uoluQeYqSn6i6nB2IaAsUigqEt8qe63I6vRPAjNoDMbRAy8B0rx+XX6LLFl72WmHyaVJjLrEDCWyd7D/S9fUiZNB6HKmNIuI2+v0iX3DDqrXgp/ntjNY5skZ7kf4EnZXZIxOTaDNBA6AsYyWQYCxsQXuj/LP6RFhl5frUvRKzyhQYZcSu1lEzWiTK0g4aasXaml24iAsYyJGkxHJW9zuAqPa5LRD24Uf0F0zS5DrqiVodcwu3xznY0+6XZ5zkpWDCZyInzceSyTuVO7BLZxd64KazRFJvf7rTL5/TIpvqhOkvPDCxq1LtfE18tk0GkN+go2MbHmXs50AsZGBIyF8g9zd9RXPBbR7C+SMrtlm3PrZftPS2XUfZVSeGJDcC6LeghIyugSX6A7uLBj2th2yTu0SYbdUi2TP94gw26skfRxTGrdErcfeNKntEnG9vS/2IiAsVCBywHT+Km9e8x4hc+5J+bt3yJDr66Via9UyJSPymTq8g2y4+oS2eGzUpn0RrmMuqtaBv6kSVKKGVSxNU2fuft5dPuBDO4hYCyknsbUU5lb1Da9Lau9uckV+h+3d/TMP5yAsRUBY6mCH7r7pal9jS1lEX9NiwLSts69Jlu1dxFLINmLgLFUwRHuzpmoe5WAQfzVvuZu7aXgSGovNiNgLKVm9ef+n3tfnvp/pUnLV3T2I76qn8rQZ9FTgyvyf0DA2IyAsZjbtRi1YyYQL3XvpkjLCvdGkA34ESsj2I6AsVj+/7UEd6B0S6WLT49AuNysvSgFBIz1CBjLuVmLaf/GL7VvuNsGDoSiq8WpQT/tXsBk7t4qGdsxz8h2BIzl3B5NVvUMtRjEXpVTe3FzeRiax7yBgLGcWt03bYJ7s5Srn06Xzib2LkdsVT7p7oNN3qF07nsBAeMBri6A2eELhgwQK01L/dL4vntNsxnTWsWfzQrhXuCbNn3mBOd1SU/RfYGAXx6fP0+XEInqF9Nk9WkDdCl6WXu1yri/b9Qlbym5JVvK78nSJW/J2L7N+btX6lLiWH99jpTdma1L0Rt0dr0MuYTtD6J1+DGn6DNjJlKD8QC394hpeDdVWlZ6d05MV32SJ4+k9MR86q560t0as4ktLWAGAeMBgfxuCQxxd8RM9bM0k8VaIgZMzaup0r7B3YeZ9EmsnOwVBIxH+Ae4u0Jv/QcMV461pAT8kzcY+JwFXP4uwBwCxiMCA10OmPdSpIsHQRjmdsAkqx1GGQTpGQSMR0S7de93+bp90kgtBgZ11Pik6XN3936h9uItBIxH+AzsGdayhj1iYI6by/L/R4DhyV5CwHhEl4HJkZ01vP0wp6Pa/c9XVzOfWS/h3fKIhg/dr8KYuAEAm3QYeIBpW+2XthJq3l7BHcYDal5Oc32op9JZx9sPczprzPTGVz7CenpewR3GA0rvMjNzPVDMVrMwJzDYzOer7E9Z0l7OrcsLeJcsV/LbbGn6xMxorxRDNwBAMfX56mpMkrVzcnUJNiNgLFZyfY6U3pajS+4z9YQJKCmDzQ0prnk2Q1aeVqBLsBUBY6H2jUnyzWW5UuriAoFbksGSGzDIX9AlqaPMfcZqX0yXr04okKZF7m3DDHcRMJYp+2OWLNx9kGy83+yKwTkzWiQwiElrMMv0vi11r6bL0oOKZO2VudJRzRR/2xAwFqj/MCX4Bfly52JZf12udLeYf1vyD2VHQJhXcFhsNgaruDdLFuxSLF+fly81r6Tpq4g3AiYOmpf6ZePfM2TN7FxZ9L1BsuLIwuAXpKM0NuP7/cWdkh+jLz4SW/r4Dsme3qJLZqkHs6rHM2TVSQPki8nFsvrcfKn4a6Y0fhoQobIeF2w45oKuZp90tTkf8Pb/vopzqAlhbeudY51+LfFL45cB6W6Ib66P/FOl5B8Smy+929SGY6W/NzfwwaSCo5pkxK3VupQ41N5Di2cUBXdTjZukbsmY2i4p23ZIypDO/x7bdARXufYFusWX0t1z7rwmZ/X/JWliseEYARMltZ7X4r2Kdcl+A49vkGHX1uqS9xAw3lTxQKasvTRPl+w3/PfVMuDo/t2MzI6WcFX2fi0y7GrvhssmKSOdp9AYHHBP4XGNUnhygy4hUVCDiZJXajD5hzXJyD8m5tNzJNQwcbdH8uUf6bwHtyX2e7Dh1mzZcLP9NVBqMK6gBpMIBh7bSLhYwMdK8zL4vHrZ9poa54w/RiIgYPqx7H1bZNwTFTLsRvWFRrx1c08NKjqhUSZ/WBZ88EH/RsD0Q9n7tMioeytl7AOVkrVbm76KuCNg/kON4FIPPuNfKJe8w5pE/Pxx+iMCpp/I3LlVhlxZI9t9tEHGPlQpeQd5cxgyEkvmDu0y6o/VMnVpiYy4vUpyZzI/qz8hYDwmOb9T0qe0yYCfNMqQOTUy9tEK2X5hiYx/eqMMOrVRUrdhRpm1eEjvVVKaSMGPmmX0PVUydfX6YM1m2G+rpfDEBsnctVUCgxnV50UEjOXGPFIhk94qC4bITuvWyw4LSmXiSxUy/JYaGXRKo2Tv2Sb+PO5cnsDbFJKkQE/NZuDPmmTo1bUy/smNMuXfZT2f/+UlMvnDUpnwYrkk5/AwZTsCxnJZu7ZJ2ugOQqQfoJM/eskZ3cH+m4ztWQncCwgYIFYIGCQYAsZyJb/LkYr7M6X6+XSpeztVGj8PSOva2CyKCbexnHwk2iuSgp/72ldTpfKxDCm7O1PW32h2ryS4g5n8UYrXTP6k7C5JH9cuaeM7gq9Zu7dJxmSaDdxiYiZ/3g+aZdS8Kl3ClrRtSJK6N9OkeVkguOp4y/KAdJTH/oGKmfyuYCa/V3XVO091nzhPdH/LlHVz8mTpzCJZvH+RlNycLU0L2eHPSjSRbZGqkZffkynLfzxQFu4yWL65KF8q7smShn+lxSVc4B4Cph9pWRqQ0ltzgmGz4rgBUv9eiv4JbEAn/7e1rE6WNRflyaI9ioMPSQ3vpeqfoL8gYPqp+jfSZMWPC2XVqQU9Gy4h7liLrEdHrU/Wzs2VxXsXS+XDmfoq+iMCpp+reSldlh1WJJWPpesriBdqMCKNnwVk+eGFUvFnd/u3YCcCJkGsOb8g2D+DOErwgKl8XD3sFErLV9SoEwUBk0BU/8yG23lyROzVvJwma84rcEKWodqJhIBxQero9uAOiKkj1Wu7pI6yd7jwhptyg/NpEAcJWoNRQ4+/mW33dslpE9p7jvHOMY7h/m5hHoxhXW0iHRXJ0laeJB0bk6V5SUBalvilyXltjVNTQcrQjuD6ZkkMMuuViXkwuQc0y+i/Jt48mK+OHyB1r6XpUmylbNsRDI70ic4xqUNSijslUNgp/sIuSc5M7DZL5sH0A+omrtZOytqxXfIOaJHB59TLyLuqZbs3y2WHFetl9P0bpfD4BgkMid1qsW1r/cEZ0YitROzkb/oyENNwUROQ83/YJCPuqJLtF5TI5A/KZMx9VTLkknopOLRZsnZpk9QRnQkfLrFCwMRRcrrzVLtfqwy9tlamfFgmw2+ulrwfxGb2cBUBE3sJeE+L1YNM1m6twU32pi7ZICP/UC0FRzSLP58QiTcCxiIDftoko+ZVy/hny40HTePHqcGnS8RS4nVwVz5qNmDUXjEqWMY9sZFN9ixEwFgoc6f2YNAUn1enr5jBopkwqW1dsnQ1mrvFqKYwtVcMwWIvAsZi21xYH9zVz5TW9X59hphIsBabtvXmHmAyp7UGm8JgNwLGcmpXvwE/bdQld7UbvAHgfyVaJ3+rU4MxIX2HNhn/zEZdgs0IGA8YdFa9PnMZc95iKtHWIvMZursU/9LQ9wGuI2A8IG1kp2Tu1qpL7vEP7NRniIVEq8GouSZu86V3Sf4h9Ll4BQHjEWnD3Z8nEyhy/waArUiwgFETGt2WMoyHIi8hYLzCQH+8iRsAsInfwAOMLznBUtrjCBiP6Njo/lulZjUjhhKtBpPfFVymxU2dlQxM8RICxiPaXQ6YjB3bJDmLp8GYSsA/d9au7vYdthl40II5vFse0eHyk5vbX3z0LRHXIsvezd1asq/TJx3VDH/0CgLGAzqbnSe3Ne52wuTOYCRO7CXejTF7X+dzluRusrasYIkjryBgPKDhPXf3b0mf1CbZe9L/AvP8Od1ScJS76+rVu/x9gDkEjAe4/YVy+wsPbM0AAiZhETAe4PYXasBRzfoMME/VltMmuTeaTNXou2jh9QQCxnLNy/zSvMC9rSfzftQk/gImWCK23K41V7+Qrs9gMwLGclVPurufxkCaxxAHbn/u3P5ewAwCxnJVT7r3pJY2rl1ypjM8GbGnas0FTu3ZLfVvpUnLKiZd2o6AsVjNP9KkfYN7w5Pzj6D2gvhxu5ms6ilqMbYjYCxW6XIzQMEP6dxH/Kjas6pFu4VmMvsRMJZqL0+SWhc7MtWEt9ShLG6J+HJzyLKafFz7OkOWbUbAWMrt6n/eAYzrRPzlHuju55BmMrv5pk2fOcF5XdJTdF8g4JfH58/TJYRqyUGF0rzIveHJ271VJqmj3d9TxqS2kiQpuSFXl2Kr4bOAtK12d0kSf2Gn5OxtdpDFoF/WS/oEu9/nL3cplo4N7nXQb7+oRPy5LNwarsOPOUWfGTORgLFQ4xcBWXZIkS5FLzCsQ6a8V6ZL3qECZuGug3UJoZjwcrlkTHZ3iXy3rT4rX6qfca/mMfSGain8OQNYwhWLgKGJzEI1z7s7iSxrJ9Ydgz0yprr7eax+jkmXtiJgLFT1rLtfmFQD2y0DkUob7u5gk4Z306T1G+bE2IiAsUzDpwFpX+/u0vwpLn+hgWikDHP/gafujTR9BpsQMJZp/Ni9jv1NUodSg4E9Ug088DQY+N4gegSMZRo/NTCunwE2sImBz6OJBzNEj4CxjIknsc4m3mbYo7PR/Z0929b6pXUd/TC24c5jkc56n3SUuv8l6TLwhQYiZSJglNav3e27RPQIGIu0GwgXpf59mg9gD7e3AN+kbQO3M9vwjlikzVTAvMMIG9ij7m0zAWPqAQ2RI2AsYuoLohYFrHmVRQERf23rk6X2VTMPPB1lBIxtCBiLdNSY6yspuTY+a3oBm1t3dY50t5i57XTUcDuzDe+IRZIMtmS1rAjIN5cRMoifsrszpeZ5c6sf+1IZj28bAsYipr8gG+/PkjUX5ukSEDsb7siS9VeZ/ewlpREwtiFgLBKLL0jlI5my/MiBwSVpANPaSpNk9dn5siEG2y4kUYOxDgFjEX9Olz4zq+HDVFl+WJGsOjNfqp9P+9++H+f/jY5an7R85Xd+ni4lv8uWVWfky9pf08SWyKqfSZdVpxdI6R+zpPqlNGla7Jf26iTp+s7iyGreVd2/UuWbS3Nl0fcHSXWMNgVLziNgbMN+MBZp35gkC6bGaf8Tf7f4C7qCkz27m7f83JEzo0XGzK/UJfPYDyZ8JveDUcFScl0vDxlO7cGf5Xx+nHAx1Ynfl9HzN0ruDLMbuvUn7AeTYAIDuyQwJE4LU3b4pKM8uddwUdpLGAaayNQQ4161Op+fSufzE6dwUdIt32gtEREwlsmYYu+XZKs3mP7C1+18K7qlO9nMEfx3e3T1UZvf/8DgDkkZFJsmZoSOJjLLVDyQIWsvzdcl++y0br0+Q6JZcmChNC+2c9mhAT9vlOE31OgSQkETWQIacHST+NJ4EoN9Wi1uIlXfG9iHgLGMmmxp85eltYSPTKLqqrEzYDJ2bJOsae7u8w93cLewUIHFAdO2gSXRYZcBP23UZ7ANAWOhrJ3apfDUel2yS+eGBOjox/9QEyZtlL13ixQeS/OYrQgYSw25pC44MsY2NrfDwxxbR5Bt43xPYC8CxlKqL8bGL08bAZOQOixsGi2aVS+ZU5n7YjMCxmIDjmqWwRfbFTKtiTAXBv/Dtve94EdNsu1sai+2I2AsN/ic+uAYf1swmz8xtVnU95a5e6uMuL1al2AzAsYD1AQyW0KGJrLEZMv7rjr1R99dpUuwHQHjESpkbGgu66wgYBJRuwU1mIKfNMrYhyuDi7LCGwgYD1HNZcNvq7JydBn6t3g3jW4zu1ZG3MJSMF5DwHjMgCObZdLbZVJ4SoO+EnttZXxsEk17WXwCJucA5/P+ZpkUz4rf5x2R407hQcnpIkPn1Mq4JyuCo2lijX4YmJa5R6uM+EOVjPlrlaSNocbuVQSMh2Xt2hYcTTP5w1IpPqdOAtvG5ovYwWz+hNKxMTa3iaTMLik4ulHGPl0h4x/bKAU/bNY/gVexXH8/07QwIHVvpkrtm2nS/EVAuraygVio/AM7JW1ch2Ru3xbc1Cl3RoskZ7M9bSJR2yU3fJIirav8wa2029a5M/EybXy75OzTIjnfb5Wc6exGGUuxWK6fgOnnWlYnS8vygDQvC0hnra9nS9umpJ7Xzp5/xudkkC+1W5KcQ+1r7s/rksA2nZI6tEPSxnYEd9oENtfZ4JOWFX5pXeMPjjBrr3Q+U7VJ0tXkk65W57O1WWU6OdP5XGU5n6+MLqeW0h1s8kob1y7p4zvER2U4bggYAIARbDgGAPAsAgYAYAQBAwAwgoABABhBwAAAjCBgAABGEDAAACMIGACAEQQMAMAIAgYAYAQBAwAwgoABABhBwAAAjCBgAABGEDAAACMIGACAEQQMAMAIAgYAYAQBAwAwgoABABhBwAAAjCBgAABGEDAAACMIGACAEQQMAMAIAgYAYAQBAwAwgoABABhBwAAAjCBgAABGEDAAACMIGACAEQQMAMAIAgYAYAQBAwAwgoABABhBwAAAjCBgAABGEDAAACMIGACAEQQMAMAIAgYAYAQBAwAwgoABABhBwAAAjCBgAABGEDAAACMIGACAEQQMAMAIAgYAYAQBAwAwgoABABhBwAAAjCBgAABGEDAAACMIGACAEQQMAMAIAgYAYAQBAwAwgoABABhBwAAAjCBgAABGEDAAACMIGACAEQQMAMAIAgYAYAQBAwAwgoABABhBwAAAjCBgAABGEDAAACMIGACAEQQMAMAIAgYAYAQBAwAwgoABABhBwAAAjCBgAABGEDAAACMIGACAEQQMAMAIAgYAYAQBAwAwwjdt+swJzuuSnqL7AgG/PD5/ni4Boautq5eVq9cEj2/WlkhDU6M0Njb1HM3NUt/QKP6kZMnISJO0tDTJycmSQYWFMri4SIqLBsq40aNkyDbF+t/mHRsrq2TJipVSUlIqpeUVUlpaIbX19dLs/M5NLS3S0d4h6elpkp6RLhnO7z2ocKAUD3J+76IiGT1quIwbM0r/m4DeHX7MKfrMmIkEjEfM/9vj8uTzL+tS33zOkZScLD6fT5KS1NF3ZbWzs8u5ebVLty5vcu1vLpLJE8frklkfffKZvP7O+7Ly6zVSXl6pr0YuNydbxo8dLbvuvIPstcvOThil65/YZdHS5fKm83svWLxUNpRV6KuRSU1JkQnjRsueu06TfafvGSzHwqyLrpC160t06dt8viTx+5Mk2flMfldnZ6d0dXUHX7/r7luvl0FFhboUurr6Bjnu9PN0KXQ3X325jB09Upf6t1gEDE1k/ZQKCfWF7ejokLa2dmlpae3zaN9CuCgqpEzaWFUtjz71vJxx/mVy7S13yvsffepKuCiqFvTRJ5/LHX+aLz875Wy5/nd/lE8+/1L/NP5efvVNOXf2HLnsqpvklTfeiTpclNa2Nvli4RK56y8PyjEnz5I/3P1XWb+hVP80Prq7u5zPV0cvn7uOLYaLsmDJMn0GLyJg0CeTAfPIE8/IybMukocee9q5uZbrq+Z88PGnctVNt8tFv7lWXn/7XX019t754N/BYFEh8PU36/RV93U4tdJX33xXfnnBr+XeB/4uzc4N3UsWL1mhz+BFBAz65As2uLlLNQld4NzkH37iOX0ltpavXC23zfurXHzFdU6NZoG+Ght33fuA3Hz7n4wGy5Y8+9I/5bzZc53azWJ9xX4Lli7VZ/AiAgZ9czlfHn36hWCT0FfOTT7eln21yqnR3CY33TYv2G5v0tr1G+T8y66Sl197S1+JvdLycrniut/J48+8qK/YTTWV9tZ8BvsRMIgp9RT90KNP6ZI93v3wYznv0rny4Sef6yvuWrL8K7ni2ptl1dff6Cvx9cDfnwwOHPGCBYuX6zN4DQGDPrnVB/PPN94J9gPYqrKqWq675Q4nAJ/WV9yxeOkKJ1xukaqaWn3FDmpU4ry/PKhL9lq0lI5+ryJg0Cc3+mAWLFoqd/x5vi7Z7dGnn5drnaBxg5rT8rs7/yxt7e36il1eevVNefK5l3TJTosYSeZZBAz65EYF5uEnntFn3qCGNv/pvod0KXIqXCqckLHZ/IefCI5qs9UipwYIbyJgYJya6+G1m8RuO0+V0084Vpcio+b2eOX3vt8JGTVnylbrSzboM3gJAYM+RdMH09zcIg89Zl+n/taMGTlcLvvVLF2KjJrRrub2eEV5xcZgx7+tFlKL8SQCBkb9+7MvpK6+UZfsl5+XKzfOvVSXIvfw48/qM+94+oVXZM3a2M7NCRX9MN7EWmQeoZ4uP18Y3du0obRcGhvDv9lHsz7TrXfdK2+8874uRWf7yRNl3KiRMqhoYHB9KrWgZXtHh5Q5T9/lZRtlbckGee2dd6WlOfLZ6pGufbW5ZStWysVXXq9L0dt+u4myg/O7DxxQIAML8oMLXVZWVUnFxurg7/6PV9+SljZ3ZujvN31POfeMk3QpPFtbiyxaBfl58tc7b9alvkW8Ftk1v5axo0boUv/GYpdw1U23zpN3P/pYl0IXTcD84ozzg+uBRWP3nafKIQfNCN5o+9LV1SWvv/1ecBmYcPs/rr/yEpk0fqwuRU5N2lTzaqI1Y/pectCM6cHFOremra0tOHnzxVded2Uts9tvnCPDh26rS6EzGTDKo/f9MeSFOwmYvrHYJTxtqfMkH224XDDrVLn0V7NCChdFrRq9//e/J9ddcYlccu6ZwaX7Q3HhrNNcCZf1Gza4Ei6zTj9ezjnjxD7DRUlxbrqHHXyA3DDnUufvpJ4Xo/Pya2/rM7ssXEwzmdcQMDBGdRxH44wTj5Xpe+6mS+Hbc7dpMu9318nRRxyir2zZicf+WPbec1ddis7rb0fXHJiZmS5zL71ADthnb30ldHm5OXL15RcGaz7ReNP5Hbq6t7SudnwRMN5DwMCYquoafRa+USOGycEH7KtL0fn5j38YbPooLhyor/zXoTNnyBGHHKhL0XvrXx/os8ioodFTp4RWW+uNqvmMHjlcl8LX1NLshMx7umTW1CmT5KpLfyX77r2HvtI7tUAqvIWAgTE1tXX6LHw77TBZn7lDtavfeNVlMm6zvqQ9dt1JTvnFz3Qpep99uSiqSZUHzdhH9tlrd12KzmknHKPPIvP2+x/pM7PUqL0dnJBRgwv6ohYmhbcQMDAmmhrMiOFD9Zl7VBPSb6++XHaeOkXGjxkls8/7pf6JOz5fsEifha9wQEGwSdAtE8aOdkJ6ii6F7/MFS4IbgcVKqDumxnqLA0SHgIExas/8SA3Iz9Nn7vvNxee6Mtflu1QNJlIH7Lt3SNtah0MNkIh0iqzagTKawAyX+t2Li/oekLFoCc1kXkLAwBi1H36kysqjH267NW7v0qnmo6xZu16XwnfgftP1mXuyMjPkgBn76FL4vlgQ243JJk/qexSf8X4YCwc3eBkBA2NysiMPmJWW7JsSquUrIu8fUP0Pqi/ChAOdmlGkFi//Sp/FxnYTxumz3i2kBuMpBAyMiaYG8+FHn+kzb1BbMEdqj12n6TP3qcENQ4dso0vhWbl6TYz7Yfqew1NbVycNjU26BNsRMDBm3JjIZv8r5ZWV8jcPLRa5YmXkNZhJ48foMzO2mxj5BNKvVn2tz8wrKhwg/uRkXeod65J5BwEDY7abOF6SQ7hh9ObvTz0f047maKxYGdmNWK3cnJWZqUtmRLNCwVerYxcwyuRJfY8mo5nMOwiYROJuv3afknw+2W5CdMuvXHn97+XdD6JfesUktWtlR2enLoVnYpR/n1BMCqFvozemB1t813YT+/7/lQmX3kHAJBCXB06FZN/v9T1Duy833T5Pnnnxn7pkHzWCLFITx5ptHlPUHJuiLaxiEIrS8uiW+wnXlBD6YVTfELyBgEkosU+Y/fbZS4qKBuhS5P7y4N/lsqt+K8stnM1dFsVNWPU7xMLAgfn6LDzlMa7BTAyxPyqWfUOIHAGTQJJ88Xm7D3FpTbFFS5fJRVdcJ/c88IhU19Tqq/EXTQ2mcGBsAqawILL/Tll5pT6LnW0HF+uz3jHh0hsImAQSp3yRIw6ZGfFQ2S157qVX5cRfXiD3P/KkFUNW6yLcksDv9weXr4mFwoEF+iw8aiOz1rY2XYqNyduF0NFPP4wnEDCIieN/dqQ+c4eab/3Esy/KyWddJI888Uxw0614iXTPm1g1jymR9sEo0e7pE67JE/oOmEWLl+oz2IyASShx6OXXdtlph6hmlfdGPWE//MRzctKsi+TJ517SV2Mr0hpM4YDYBYzq6I9UrAMmlJFkjc0tUa3WjdggYBKI2+tvheusU4+XKSHMc4iEWlhz/sNPyIlnXSjPvfyqvhobNRHegNPT0vSZeWof/0jV1cc2YNT++2lpqbrUO4Yr24+ASSBxzpcgtY3xiGHh7/ceKrVFwD33PyKnn3eZ/POtd/RVsyLto0hNDW1/eTekpfZ9w+5Na0urPoudyaxL1i8QMAkk3jUYJTs7Sy4+94yQlmaPRml5udzxp/ly6dU3ypeLluirZnR0RLZeVyhP6W6JprbU2dmlz2Jn8qS+58PQD2M/AiaB+OLYB7O5IYOL5ZpfXyBjNttd0pTFS1bIb669RW69616pa2jQV93VGeEs/vQYBkxaWuS1pUhXKYjG5BD6YdasK9FnsBUBk0jsyJcgNf/j2l9fKDtu7+7WyL1545335bzZc+XDTz7XV9wT6RN+NM1W4UqN4r/V0RW7FZU3GRviw8eSGG8pgPAQMAnEhj6Yzakb7JzZ58kPf3CQvmJWZVW1XHfLHcH5M26K9AYcyz6YqJrIOmLfRKaMGNp3X93ipSv0GWxEwCQQX7xmWvbhhGOOlssvmCVFMRq2q+bPXHPzH6S5pUVfiU5ykl+fhae1rV2fmdfaGvk8oVCW0DchlBGHC+iHsRoBk0Asq8B8y67TpsptN86Rg/f/vr5i1r8//UJmz7lRvolim+NN/MmRfY1aW2M3OiuaME2O8PeL1iRWVvY8AgbWyMhIlzNO+rn8/rorZK9dd9ZXzfn6m7Uy+6obZPXXa/WVyES6541bNahQtEQx1NifHFkNLVqh7A3T5tQC1XYJsBMBk0iSvPF2jxoxTC4+7wy56rJfyY7bb6evmtHY2BzcDqCmNvLFM9WaYpFobqYGszU5WVkhbcbGfBh7ETAJxOYmsi3ZYfIkmTP7fLnm8gtlt2lT9VX3lZSWyc23361L4UuPsLO+tTWGNZgomuOiGYEWrckTQ1iXjC2UrUXAJBCvBcwmU7abIJddMEtunHupfG+PXfRVdy1wblL3zH9Yl8KTk5Otz8Kjak+x0tDQqM/CF6sVn7dk8qS++2HUewc7ETAJxIaZ/NGYMHa0XHT26XLrdVfKftP31Ffd89w/XpOPPg1/nkxuhDfgso2x22ulYmPk/RSRBqgbtgthyZgNpeX6DLYhYBKI1wNmk5Ejhsq5Z5wkd958tRw4Yx991R333v+otLeHN68lLyeygCmPYqOycJVvjPy/lRvHgFH9caGgH8ZOBEwi6R/58h/bbjNYzjr5OLn71utl5LCh+mp01BpmL7zymi6FJpompGh2wwxHeYQ7U6pO9pRAQJfiI5QlheiHsRMBk0BsWYvMbYOKCuXWG64MNp3tvnP0gwFeeOUNfRaaQYMiX7izPIr9/MNRWhHZ3vqDiiLfqMwtkyeM1We9W0jAWImAcVlFZZV88vkC5/hSPvlCvYZ+mNZfmsh6o5rOLv3VLDnx2B/rK5FRTVevvvkvXepbcRQ7U64r2aDPzCotLdNn4Sl2wjveQumHWbCYJjIbETAu++jjz+Wqm25zjtvlqhvVa+iHaS0RDovNyIjdxlhuOOKQA6MOmS8WhL7Ef3EUNZhY7C2/bMWq4A6QkSgeFP8azJQQlu7v7u6S0rLIamkwh4BxWTTt8d3daqd5cxqbIhsWm50Vv07eSKmQiWZI8xeLFuuzvuVkZ0XcEb5gkfm1tBYtjbz5aPDgQfosftRunPl5ubrUuwVLWZfMNgSMy3JzI78ZRxoAoWpqiuwpNjur79nUNvrpjw7TZ+FT+9CHs4TMuAj3tgn+d9ZEt1RNXxYsjjxgxo8apc/iK5R9+hfRTGYdAsZl+VHUYL5atUafmaHW3gpXZmamZ/tuhg4ZLJPG9d1B3Juaujp91rdxYyK/EX+xMPTaUrja2ttlUYRDeNV7P2zoEF2Kr1C2UCZg7EPAuCw3t++qfG+WLje3t8WateuCT8vhysnK0GfetO2QYn0WvpracAIm8t05X371LX3mvpf++aa0tkW2VH+ktTITQtlCubyyUjo6Yr/7JnpHwLgsKzPDeeKP7M+6MIqmjL58sTCyfemzs7L0mTeF0nbfm9owajDbTRwf8fu+oaxc3n7vQ11y10uvhjfkenPbb9f3OmCxomqjoYimvwnuI2AMmDA2sic/tabSkmVmtoB95fV39Fl4xo8brc+8qbK6Wp+FLzeMGfoBv1+m7RD5ys8vvfKmPnPP2+//O6plVKZOMbuSdbgmhvBZjKa/Ce4jYAyYFMLEsN689Kr7Nxq1udba9SW6FJ7tQ9iTw2bLVqzWZ+HLz8vTZ6GZGsXWAouXr5BnXnxFl6JXV98g9z30qC6Fr6hoQMjLtMRKKPNh6IexCwFjwMQoOpbfevcD+edbkdU2tkT1I9z1lwd1KXyTJ/bd9t2bw485RW7+w92yZLmZWllfVLNgpMGqFOSFN2Bjpx0m67PI/OXBR137W/3x3vulsiry2ttuO5rbHiFSofTDqKBe/tUqWbna7IAZhIaAMSCaGowy754HZemKlboUnTv+PD/iG834MaOCu0xGYtOCke+8/5HMnnODnHjWhfLIE8/GbOa6GtBw118e0KXI5OWH138zZHCx7Lzj9roUmbvuuV/KK6JbZfmxp1+Q9z/6VJcis6+B1aqjFcpQZeWiK66TOTf8XpcQTwSMAZkZGTJ65HBdCl9HZ2dwv/h3P/xYXwlffUOj/Oa6W4LNY5EK5YmxN9+tOVRV18jDTsCcdeFv5NzZc+W+vz0mny9YpH/qLrU75bW33BFV/8PAAQXBHRXDtd/e0d2Y16wrkdlzb4h4r3kVqg8++pQuRWbSxLFRfX5NUYtuFjrvC7yDgDFkRpRPgGrpi5tumye3z/urrN8Q3lP/My+8IudcfIV8GeHIsU2+v9du+ix8W6upqPk4Tz3/D7ny+t/L0SecGQyDF/7xuixetkIam5r0PxU+tQ7c3x57Wn75q8tlWZQ1wEh30Nxr952luDC65VVUjfOyq24K/o3qGhr01a1Ta9nNvfFWV4Y8m9hrxy2h1mJgB9+06TPVY2p0d6KtCAT88vj8ebqUWE785QVSVRP5Xu+bmzJpfHD72InjxwaH3qoJnSkpKVLt/PurnSd2NetcPfWqQ12L1vQ9dpMLzj5Vl8L3kHOjf/Sp53UpPMVFA2X4sG1l+NBtZZBzs87KygwuG69WFMjMSJfk5ORgDa2hsVHWl5ZKyfoyWbJ8hXO406yozL30Apk6ZaIuheflV9+Mqt/ru/bdew/Z3qlNDnCe3gcW5AeXTtnohOlGJ4jKyjfKa2+949QYS/U/HZ2Rw4fKrddfqUvhmXXRFWH3eanf7bwzT9alvqlFSP9w93265L6br75cxlo0/8ck1Udq2EQCxqAnn3tJ5j/8hC55i9qeWO0gGambbp0n734UeRNfPKl1xe6fF10bfiQ3WxtcMOtUmb5nZDXXWASMmjN0xvmX6ZL7CBhXTaSJzKBDDz4guNyG16iO6mjCRSkpi2x5eBsc8P299VnkfvKjH+gz79hh8qSIwyVWBg8q6qe7GvVPBIxBavLdj484WJe84wcHzdBnkduwwZsBM3zbbeS4n/5IlyK39x67BpsZveTEY47WZ3ab7PG5WYmEgDHsiENmyox99tIl+53yi5/KjlFMGNykJcL1r+Lt+GPdu8kef+xRTg02smHesXbMUYcHN2zzAtUXCW8gYGLgnNNPtGrhwN783wH7yqEz99elyEUzwS+eZs7YR6btMEWXoqc65H/1y8gHSsTKPnvtJj/50aG6ZL9QZvTDDgRMjJx75kmSlp6qS/aZOmWSnH7isboUHbdGNMXSgU64nHnycbrkHtWfdcZJ7vxdTVDbGfzqLPtDcHM0kXkHARMj224zWH59wdlSNCDy/dtN2WWnHeTCWafpUvRKPdbBf9jBB8hZBsJlk4P331fOcCm83aSWtrniknN1yTvU/kSDBxXqEmxGwMSQ2lv8t9dcHvWaVW468rCZ8usLz5bsbPeW5VdDSb3i6CMOkZOP+4kumXPwAfvKpeefJWkpdtRiVb/glZecF5xT40XRrDKB2CFgYkzt2a++2GrP+HhSQz3PO/Mk+cVPj+q54CIvBIxaDuWGK2fLz3/8Q33FvN132VFuv2mO7DzVvX6ecKWkBGTWqccH+wW9jH4YbyBg4uTEY38crDnsMDmy2eLROGjGPnL7jXNl3yjXzerNmScdJ8f/7EgZY+F6VmlpqXLa8cfI9b+5RCaOH6Ovxs6gokL5zcXnyqnH/yyqzdAioTrzb79hrhywb/TzfOKNfhhvYCa/BdSy8s//4zX56JPP9RX3+f1+OfSgGXLIzBkxXTBQrQ/23gcfy6dfLpTlK1ZLU0uz/klsqWbJPXed5tQidgouOWODjo4OeeLZl4J7ALmxvE9vVI3pqMMPMR6osZjJv7mjjj/jP6t2u4WZ/K5iqRibqL1A1AKVC5cskwWLlwcXvIyGekJWcwbU097ee+wSXOU53r7+Zl1wv44VK1fLMud1zdr1+ifuUr/76BHDgqO49nCCRTVN2kytnP3GO+877/tSaWlp1VcjpyaM7rHbzrLv9/aQ4hh1iMc6YObccKt85jy4uImAcRUBY6uuri75ctEyWbx0uazfUCp19fXBBR6DR32DtOqJjBlp6ZKVkyHZmVmSk91zqC+ICha1cKHturq6pbS8PLhoY2lZz+uGigqpr6uXlta24M22pVUdbdLa0iKdzj+fmhqQ9LQ0SU1JlbS0FKecGlwEc8yoEU6oDJfRI4dJ4UD7RuuFasWqr2XJshVSsqHM+dtUBFdFqG9qlo729uBWDl1dnZKc7JcUf0ACKf7ggqDFRUVSXFwYbJZUC6KqzwGwNQQMetXq3HCTk5OCTV8AEC4Wu0SvUlNTCBcAViNgAABGEDAAACMIGACAEQQMAMAIAgYAYAQBAwAwgoABABhBwAAAjCBgAABGEDAAACMIGACAEQQMAMAIAgYAYAQBAwAwgoABABhBwAAAjCBgAABGEDAAACMIGACAEQQMAMAIAgYAYAQBAwAwgoABABhBwAAAjCBgAABGEDAAACMIGACAEQQMAMAIAgYAYAQBAwAwgoABABhBwAAAjCBgAABGEDAAACMIGACAEQQMAMAIAgYAYAQBAwAwgoABABhBwAAAjCBgAABGEDAAACMIGACAEQQMAMAIAgYAYAQBAwAwwjdt+swJzuuSnqL7/H6/3HXLNboEALDBqefO1mfGTDQeMACAhDSRJjIAgBEEDADACAIGAGAEAQMAMIKAAQAYQcAAAIwgYAAARhAwAAAjCBgAgBEEDADACBUw3T2nAAC4plsFTIlzdAWLAABET2VKSdInb79c75wsD14CACB6y1W2bOqD+US/AgAQrWCmEDAAALd9K2De1a8AAEQrmCnBgPnk7Zc/cl7mq3MAAKIwX2fKt+bBnOcc63tOAQAIm8oQlSVB/wkYJ3FqnJdTekoAAITtFJ0lQcn6NWjDmq++2mb4GHU63Tl86gQAgD6oeS9znXC5t6fYY4shMm36zO85L/c5x+jgBQAAtmylc5zghMu/eor/9a0azCZOTeYbpyZzj3Oa6xy7OAe1GQDA5tQyY3c6x5FOuKiQ+R99BodTm9nWeVEhM22zo9A5AACJo8I51PyWTce/nWBZ57z2QuT/AQ9QEylTV8B+AAAAAElFTkSuQmCC" parent="1" vertex="1">
          <mxGeometry x="60.01" y="520" width="60" height="80" as="geometry" />
        </mxCell>
        <mxCell id="DlqXC4TE-N95-IHuBmYz-2" value="&lt;font style=&quot;font-size: 14px;&quot;&gt;Clients&lt;/font&gt;" style="text;html=1;strokeColor=none;fillColor=none;align=center;verticalAlign=middle;whiteSpace=wrap;rounded=0;fontStyle=1" parent="1" vertex="1">
          <mxGeometry x="60.01" y="600" width="60" height="20" as="geometry" />
        </mxCell>
        <mxCell id="DlqXC4TE-N95-IHuBmYz-22" value="" style="shape=image;verticalLabelPosition=bottom;verticalAlign=top;imageAspect=0;aspect=fixed;image=data:image/png,iVBORw0KGgoAAAANSUhEUgAAAgAAAAGOCAYAAADhKrvPAAAAAXNSR0IArs4c6QAAAARnQU1BAACxjwv8YQUAAAAJcEhZcwAADsMAAA7DAcdvqGQAAA/KSURBVHhe7d0LkF/VQcfxsxDIgwRCJyk0dGgtbyEBC8mUygqJhCJBUYLBFkOqpajVoSK1U0cdZBSrlA592NoCtYYINaEwpUMqNZhAgxZTHgECFCyOhYrQrBBIICQkrP+7/xsmpR1MsnfJzf4+n5lLzrkwYXfO3D3f/2P/t6dsu4s7x/b89wDAG6u/c1zSHb6+19vQl3SOaZ1j74EZALAreb5zrOgcMwdmr7Fb/efW/qJzbOocJ3cOmz8A7JqqPbzay6s9vdrbf8RrnwFY2TmO7g4BgGHkvs5xTHf4o88A3NA5bP4AMDxVe3y11w/Y+hmA6o0DAMDwNrD3b3kG4Jn6TwBgeBvY87c8A+DRPwDk6Nm9849Pdo7jB6YAQIK9q5cAjuuOAYAQx1UvAaztHGMHpgBAgnVVAHj9HwDC/KRPAgQAhjkBAACBBAAABBIAABBIAABAIAEAAIEEAAAEEgAAEKjRDwKaNLGUn/+5kWWPkXvUZwCAwXp5w8vlX761oTy5uj7RgEYDYM6ppSy8op4AAI05+8JSFt1STxrgJQAACCQAACCQAACAQAIAAAIJAAAIJAAAIJAAAIBAAgAAAgkAAAgkAAAgkI8ChgZdu3JK+c8nOpdUY1cV7NrefkB/mXvsqnq2c/39tw8vT6wemnvVHLj/5jJv2kP1bGg0/VHAAgAG6ZK/27s89MDzA+M77i6N3qwDdnWTJpZywrHd8dg3jS2nnHlwOfvIld0TQ+zKZe8oy5c8UTauf3lgPpTX59bf56hxo8vJv/hTZe7UZoNAAEBLfP6bB5bbb3ncpg/bodooL/zwfuUjs5+uzwyNj312dFlw/fqddm1W3+eHztu3/PG5z9ZnBs/NgKAF/vBTo8qllz4+cDHa/GHbVdfLFZ9+ulx0+Yj6TLO+/O3DBjbKnbn5V6r/9+evfrZc8JfV4+x2EgCwnT7+lQnluhtfsvHDDqqunX/8+qbyJ1/Yqz7TnFsWPdKaMK++hhtu6S9/cNnu9Zl2EQCwHao3+f3N3/bZ/GGQqmvoy9e9UK66/aD6zOD90efGDLwk1ybV97nw5s3lE9fvV59pDwEA22Hxtats/tCQ6lq69WuP1bPB+dLyQ8o1C19s5fVZfU2f+uzT5fqH31mfaQcBANth86ZX6hHQhOoR+/x/P6Ke7bg7v/VUq+O8+tpW3tv9baG2EACwjb50xyGte3oRdnXVxrhq1Qv1bMc937e2HrXXU489VY/aQQDANrr/vrWtfoQBu6qnHvufejS8rXtmXT1qBwEA26jvcbs/DIUtH9Szo2565KjyvcfrCdtMAMA22vctb6pHQJNG7Dm4X5M747BV5eAD6wnbTADANpr49vb9Gg8MB/u9Y/96NLyN2WdMPWoHAQDb6IjD9hz4eE+gOdU1NXnK2Hq248aMb9fm+pPsf1C7QkcAwDaac8Q9pXdqPQEaUd1A5zeOf6Se7bhp735zqwO9+tqOmjKunrWDAIDtcOpZh3sWABpSXUu9M99azwbnd2b+V3nvGe18lq76mqobA51z9H31mXYQALAd3n/8d8v5799bBMAgVdfQ+35lZPm9035Qnxm8yy/a+Ootedukd2pPo3cFbIoAgO108W8+X+actpsIgB1UXTuz31PKJy7cUJ9pzomnHtiaa7P6Oqrb5J9+zpH1mXapfvfiz7rDwTvy4FJ+tfPNwnB36gn9ZeOoCeXhh14sa1+sTwL/r2pT/MDcvctlv9/85l+ZevBz5YDjji4jN/SV/32mf6ddn9X3OfesUeWLF28qU97yw/rs4Hz1m6U8+L160oDqRsX93eHgVaWz8Ip6AgGuvXdyWXzdgwP3CKg+JtgnBcKPqzbDLU/NnzL7kPKBE/6jOxlif71wYrnnzu5F+UZcn1t/n9UzER96T7OfTnT2hWXgVsdNEQDQkIUPvrN899ENZW3fc6W/v7HLCnZpe+07rvz04SPLr03euW+AW3DXkeWhh9eXjeuH5pmH0ePGlCOOGF3OOeb++kzzBAAABGo6ALwJEAACCQAACCQAACCQAACAQAIAAAIJAAAIJAAAIJAAAIBAAgAAAgkAAAgkAAAgkAAAgEACAAACCQAACCQAACCQAACAQAIAAAIJAAAIJAAAIJAAAIBAAgAAAjUaAHfcXcpVtx9UzwCAJlR7a7XHNqmnc/R3h82YNLGUE46tJwDAoFWb/5Or60lDGg8AAKD9vAcAAAIJAAAIJAAAIJAAAIBAAgAAAgkAAAgkAAAgkAAAgEACAAACCQAACCQAACCQAACAQAIAAAIJAAAIJAAAIJAAAIBAAgAAAvV0jv7usBkTxpcy+dB6Qqs88GgpfWvqSQOsdTs1vc4Va91OrukcQ3FdNx4AX7x8ejl/1rLl9ZQWmTGv9C5bUU8GqfpBcfWnTypnTLvNWrfMrQ/O6n3veYsb+2FRrfVXrp5VTj5ysbVumZtWnNR73odva2ytp08rZen8Yp1b6MrF03t/6yPL6lkzGn8JYMKbJ9YjhrPqUYLNv52qjbrJR3HV32Xzb6fqGvSIPcNQ7K3eAwAAgQQAAAQSAAAQSAAAQCABAACBBAAABBIAABBIAABAIAEAAIEEAAAEEgAAEEgAAEAgAQAAgQQAAAQSAAAQSAAAQCABAACBBAAABBIAABBIAABAIAEAAIEEAAAEEgAAEEgAAEAgAQAAgQQAAAQSAAAQSAAAQCABAACBBAAABBIAABBIAABAIAEAAIEEAAAEEgAAEEgAAEAgAQAAgQQAAAQSAAAQSAAAQCABAACBBAAABBIAABBIAABAIAEAAIEEAAAEEgAAEEgAAEAgAQAAgQQAAAQSAAAQSAAAQCABAACBejpHf3fYjAnjS5l8aD2hVR54tJS+NfVkkKxzu1nrHNY6Q5PrvEXjAQAAtJ+XAAAgkAAAgEACAAACCQAACCQAACCQAACAQAIAAAIJAAAIJAAAIJAAAIBAAgAAAgkAAAgkAAAgkAAAgEACAAACCQAACCQAACCQAACAQD2do787bMbcub9QfnnmuHpGW2x46aVywUe/XvrW1CcGacL4Ui7+2All0qRJ9Rna4rnn1pSP/uk/N7rWl/35KWWffToDWuXJJ58sl/zVHY2u9Wcu+6UyctSo+gxt8bUla8uCBf9Uz5rReADccM2ccubURcvrKS0yY17pXbaingzS9GmlLJ1frHNLWesc1jrDjd+Z0zv73EX1rBleAgCAQAIAAAIJAAAIJAAAIJAAAIBAAgAAAgkAAAgkAAAgkAAAgEACAAACCQAACCQAACCQAACAQAIAAAIJAAAIJAAAIJAAAIBAAgAAAgkAAAgkAAAgkAAAgEACAAACCQAACCQAACCQAACAQAIAAAIJAAAIJAAAIJAAAIBAAgAAAgkAAAgkAAAgkAAAgEACAAACCQAACCQAACCQAACAQAIAAAIJAAAIJAAAIJAAAIBAAgAAAgkAAAgkAAAgkAAAgEACAAACCQAACCQAACCQAACAQAIAAAIJAAAIJAAAIJAAAIBAPZ2jvztsxoyTppTTZ4yuZ7TFhg2byic/d3fpW1OfGKQJ40v54NzDysSJnQGtsm7d+vKZK+9vdK0vOH9KGTvWdd02q1evKVcteKTRtb7od48tI0eOqM/QFjcvXV+W3nZ/PWtG4wEAALSflwAAIJAAAIBAAgAAAgkAAAgkAAAgkAAAgEACAAACCQAACCQAACCQAACAQAIAAAIJAAAIJAAAIJAAAIBAAgAAAgkAAAgkAAAgkAAAgEA9naO/O2zGsT9zYJn5s6PqGW3x8suby/yFj5W+NfWJQZowvpSzTj+gjB+/V32Gtli/fkO59obvN7rW58x+Wxk9emR9hrZYs+aF8tWb/7vRtZ539kFljz12r8/QFkv+9aVy972P17NmNB4AN1wzp5w5ddHyekqLzJhXepetqCeDNH1aKUvnF+vcUtY6h7XOcON35vTOPndRPWuGlwAAIJAAAIBAAgAAAgkAAAgkAAAgkAAAgEACAAACCQAACCQAACCQAACAQAIAAAIJAAAIJAAAIJAAAIBAAgAAAgkAAAgkAAAgkAAAgEACAAACCQAACCQAACCQAACAQAIAAAIJAAAIJAAAIJAAAIBAAgAAAgkAAAgkAAAgkAAAgEACAAACCQAACCQAACCQAACAQAIAAAIJAAAIJAAAIJAAAIBAAgAAAgkAAAgkAAAgkAAAgEACAAACCQAACCQAACCQAACAQAIAAAIJAAAIJAAAIJAAAIBAAgAAAgkAAAgkAAAgUOMB0PfD1fWI4eyBR0u5acVJvfWUFrn1wVm91fo0pfq7qr+zntIi1TXY5FrTXkOxt/Z0jv7usBkTxpcy+dB6QqtUPyj61tSTBljrdmp6nSvWup1c0zmG4rpuPAAAgPbzHgAACCQAACCQAACAQAIAAAIJAAAIJAAAIJAAAIBAAgAAAgkAAAgkAAAgkAAAgEACAAACCQAACCQAACCQAACAQAIAAAIJAAAI1NM5+rvDZkwYX8rkQ+sJrfLAo6X0raknDbDW7dXkWlvn9nJN52h6rSuNB8CCL8wqv37i4uX1lBaZMa/0LltRTwap+kFx3VWnlZlHfcNat1CTaz19WilL5xfr3EJLVp3W+74PfqOxjcFat9c/3D6rd+5vL65nzWj8JYAxY/aqRwxn1aMEmz/sXNU16BF7hqHYW70HAAACCQAACCQAACCQAACAQAIAAAIJAAAIJAAAIJAAAIBAAgAAAgkAAAgkAAAgkAAAgEACAAACCQAACCQAACCQAACAQAIAAAIJAAAIJAAAIJAAAIBAAgAAAgkAAAgkAAAgkAAAgEACAAACCQAACCQAACCQAACAQAIAAAIJAAAIJAAAIJAAAIBAAgAAAgkAAAgkAAAgkAAAgEACAAACCQAACCQAACCQAACAQAIAAAIJAAAIJAAAIJAAAIBAAgAAAgkAAAgkAAAgkAAAgEACAAACCQAACCQAACCQAACAQAIAAAL1dI7+7rAZb3vrXuVdx+xez2iLV17pL8v+bW3pW1OfGKQJ40vpnTam7LnniPoMbbFp0yvl9jvXNbrWJ75rbBkxwuOFttm4cVNZvuLFRtd6+rvHld12q7YG2uTOlZvL93/wQj1rRuMBAAC0n6QHgEACAAACCQAACCQAACCQAACAQAIAAAIJAAAIJAAAIFAVAOu6QwAgxLoqAO7pjgGAEPdUAXBXdwwAhLhryx0f3A8AAHL0bHkT4LP1nwDA8Daw5299z0fPAgDA8Dew92/9a4A31n8CAMPTq3v91s8AVFZ2jqO7QwBgGLmvcxzTHf74BwFV/+LSzrF5YAYA7OqqPb3a21/d/CuvfQZga0s6x7TOsffADADYlTzfOVZ0jpkDs9d4vQB4rYs7x/b89wDAG6t6Q/8l3eHrKeX/AOWb0xyD1c9XAAAAAElFTkSuQmCC" parent="1" vertex="1">
          <mxGeometry x="630" y="520" width="102.92" height="80" as="geometry" />
        </mxCell>
        <mxCell id="DlqXC4TE-N95-IHuBmYz-31" style="edgeStyle=orthogonalEdgeStyle;rounded=0;orthogonalLoop=1;jettySize=auto;html=1;entryX=0;entryY=0.5;entryDx=0;entryDy=0;fontSize=14;strokeWidth=2;" parent="1" source="DlqXC4TE-N95-IHuBmYz-23" target="DlqXC4TE-N95-IHuBmYz-22" edge="1">
          <mxGeometry relative="1" as="geometry" />
        </mxCell>
        <mxCell id="DlqXC4TE-N95-IHuBmYz-23" value="" style="shape=image;verticalLabelPosition=bottom;verticalAlign=top;imageAspect=0;aspect=fixed;image=data:image/png,iVBORw0KGgoAAAANSUhEUgAAAgAAAAGOCAYAAADhKrvPAAAAAXNSR0IArs4c6QAAAARnQU1BAACxjwv8YQUAAAAJcEhZcwAADsMAAA7DAcdvqGQAABCqSURBVHhe7d0PbF3VfcDxY5I4f3nhT4AALQYKIQ2YROB2KssKhHaSmaqJdZCOdVu7oqlq8Top06ohZIbFWJkW9Y/bqZpoaTf+lZVKUzUirVsKXcZYG1iCgxTSEWqS0ALhTx4OiZ0E793nE5QyxOy8a3Lj3+cjXXzPtRXxdHR9vve+5/fa0vjd1Ngm8vMAwDtrtLHdPLb79t5uQf9BY3t/Y6s1RwDA0aTe2H7c2D7cHL3JMfnroW5pbPsb24cam8UfAI5OxRperOXFml6s7b/kzXcANjS2pWO7AMAUsrGxLRvb/eU7APc3Nos/AExNxRpfrPVNh94BKF44AABMbc21/+AdgJfyVwBgamuu+QfvALj6B4A42qY1/rO6sX2gOQQAIqgVTwF0je0DAEF0FU8BvNrY5jWHAEAEQ0UAeP4fAIJ5q3cCBACmOAEAAAEJAAAISAAAQEACAAACEgAAEJAAAICABAAABFTqGwEtWrQo/cEnP5lmtM/MRwCAVu0bGU7fvuOOtGXLlnykdaUGQG9vb1qxYkUeAQBlWbt2berr68uj1nkKAAACEgAAEJAAAICABAAABCQAACAgAQAAAQkAAAhIAABAQAIAAAISAAAQkLcChhKN7D+QhvbsaZxUpZ1WcFSbN2t2mjljeh4dWXtGRtJrw8N5VK65s2alWTNm5NHkKPutgAUAtOj5nTvTz7ZuTUNDQ2n9+vXp2Wefzd8BTjvttNTV1dXcX3j66encc85JM6ZNa44nWxHj/7NlS3rpxReb48k8Pw99nCedsjAtWnRuI3zKDQIBABVR3/1a2vzEpvTggw+mdevWpXq9nr8DvJVarZa6u7vTymuvTSfMn5+PTo5t27ene+6++4icmwcf52+vXJlOOuGEfLR1ZQdAkWF/MbbbuksvvTSdddZZeQRT18+eeSZ9+45vpjvvvDNt2rQpDU/SbUWYSorzZNu2bWnnCy+khaeemk44/vj8nfLsGR5J//3Yo+lLX/xieuSRR47IuXnwcb60c2dasGBBcyvD008/nR566KE8ap0XAcIEvfjyK+m+e+9NDzzwgKt+mKDinCnOndu+8IW0fRJuxw9s3JBuueWWUj83/3AcfJyrV69OT23dmo9WiwCACShe5Hffvfc0bysCh69YoO++8860e8/efKR123bsSLfffnulwrx4nPd/97vppV278pHqEAAwAcXVxZo1a1z5QwmKkH5i4PE8as3uvcPpnrvuOuJX/m+leJzfufvutP/11/ORahAAMAG7GhVv8YdyFOdS8SLaPSP78pHD98wzz1T2zlzxOJ988sn08q5q/e4QADBOxd8PF39GBJSn+LO8XSVE9c+3b6t0nG/dujW98PxzeVQNAgDG6YWdOz33DyUrFsZf7NieR1NXESe/2LEjj6pBAMA4DTZ+Ubn9D+UqzqmDb9RzuF4fHU2Dg4N5xHgJABind3ec2XyDD6Bc01t8x7xj2tpSR0dHHjFeAgDGqXbccenss8/OI6AMRVSfdc65eTR1FY/z5IUL86gaBACM0/y5c5vv9w2UZ/ny5WlBCW+Xe8qpp1X6Dl1x8XDywlPzqBoEAIzT9GnHpMsuv9zTAFCS4ly67LLL0uyZ7fnI4Tuj44xmTFRR8TjPO++8dFzFfncIAJiAzqVLmx/yIQKgdcWCfd6SJXnUmmPnzEnXrFyZFi1alI9UR/E4iw8Gap/+znwK4ngJAJiA2e3t6aNXX13ZKw04WhQL9TUf+1iaP29ePtK6Mzs60nXXXVepQC/+X1asuKLUTwUsiwCACTp5wYJ01VVXpSuvvNKdAJig4pwpzp1Vq1alM884Ix8tz+Lzz6/MXboicm688cbUuWxpPlItPg4YDsOJJ56YFi85P40M721+7KePA4b/X7EoF4vztR//eOqYhMW/MLO9PS276KK0ZMmSNG3atPTcc8+94+dn8TivuOKK9Jnrr09L3vveNP2Ycq61y/444LbGNjq227re3t60YsWKPIKpb3j//rRp48bmZwQUbxNcvK1poXh3M28aRHTFQli8+r3465murq40b968dMHSpWnOzJn5JybXi6+8kp7asiUNDQ29cX5Oxrn5Vo9z8fkXpNrcOfknyrF27drU19eXR60TAFCS/QdeT7t27077Glcb+w8cSEOvvZa/AzHNmzMnzZo9q/k8/4zG1fiRNLxvX9r16lAaGRkp/dwsHufMRtTMP3Zeap8+PR8tnwAAgIDKDgAvAgSAgAQAAAQkAAAgIAEAAAEJAAAISAAAQEACAAACEgAAEJAAAICABAAABCQAACAgAQAAAQkAAAhIAABAQAIAAAISAAAQkAAAgIAEAAAEJAAAICABAAABCQAACKjUAFi/fn3avXdvHgEAZSjW1mKNLVNbYxsd221drVZLy5cvT11dXfkIANCqYvFft25dqtfr+UjrSg0AAODo4DUAABCQAACAgAQAAAQkAAAgIAEAAAEJAAAISAAAQEACAAACEgAAEJAAAICABAAABCQAACAgAQAAAQkAAAhIAABAQAIAAAISAAAQUFtjGx3bLUetVksdHR15RJUMDg6mer2eR60z19VU9jwXzHU1OafjmIzzuvQAuKnv1nT5By9Zk4dUSE9PT/fAwEAetab4RdF361+nZRcsNtcV89Ont3ev+txnSvtlUcz16i//bTr3rHeZ64rZsGlzd+8Nf1baXHd2dqb+/n7zXEE//NHD3Tf33pBH5Sj9KYCTTj4l7zGVFVcJFv9qKhbqMq/iin/L4l9NxTnoij2GyVhbvQYAAAISAAAQkAAAgIAEAAAEJAAAICABAAABCQAACEgAAEBAAgAAAhIAABCQAACAgAQAAAQkAAAgIAEAAAEJAAAISAAAQEACAAACEgAAEJAAAICABAAABCQAACAgAQAAAQkAAAhIAABAQAIAAAISAAAQkAAAgIAEAAAEJAAAICABAAABCQAACEgAAEBAAgAAAhIAABCQAACAgAQAAAQkAAAgIAEAAAEJAAAISAAAQEACAAACEgAAEJAAAICABAAABCQAACAgAQAAAQkAAAhIAABAQAIAAAISAAAQkAAAgIAEAAAEJAAAIKC2xjY6tluOWq2WOjo68ogqGRwcTPV6PY9aY56rzVzHYa5jKHOeDyo9AACA6vMUAAAEJAAAICABAAABCQAACEgAAEBAAgAAAhIAABCQAACAgAQAAAQkAAAgIAEAAAEJAAAISAAAQEACAAACEgAAEJAAAICABAAABCQAACCgtsY2OrZbjmt+5/fTBy+9NI+oir1796a+3j9P9Xo9H2lNrVZLn/3cqnT66e/KR6iKXa+8nG67ta/Uuf78Db1p/nHH5yNUxY4d29PXvry61Lnu7furNGvWrHyEqvjRQw+l++75+zwqR+kB8NWvfyNdsPg9a/KQCunp6ekeGBjIo9Z0dnam/v5+81xR5joOcx3Dps1PdV//6U/lUTk8BQAAAQkAAAhIAABAQAIAAAISAAAQkAAAgIAEAAAEJAAAICABAAABCQAACEgAAEBAAgAAAhIAABCQAACAgAQAAAQkAAAgIAEAAAEJAAAISAAAQEACAAACEgAAEJAAAICABAAABCQAACAgAQAAAQkAAAhIAABAQAIAAAISAAAQkAAAgIAEAAAEJAAAICABAAABCQAACEgAAEBAAgAAAhIAABCQAACAgAQAAAQkAAAgIAEAAAEJAAAISAAAQEACAAACEgAAEJAAAICABAAABCQAACAgAQAAAQkAAAhIAABAQAIAAAISAAAQUFtjGx3bLcev/trl6QOXXJJHVMXI8HD61jf/LtXr9XykNbVaLX306pXpxAUn5yNUxe6hV9Nd//CtUuf6d3/vE2nuvGPzEarixZ3Pp/v/8TulzvUn/vCPUvvMmfkIVfGfDz+c/uPff5hH5Sg9AACA6vMUAAAEJAAAICABAAABCQAACEgAAEBAAgAAAhIAABCQAACAgAQAAAQkAAAgIAEAAAEJAAAISAAAQEACAAACEgAAEJAAAICABAAABCQAACCgtsY2OrZbjvM7l6b3db0vj6iKffv3p+//0/dSvV7PR1pTq9XSFR/69TR//nH5CFWxZ++etOafv1/qXHf/xkfS7Fmz8xGqYteuV9K//eu/lDrXH/nN30ozpk/PR6iKn6z/SXpiYGMelaP0APjq17+RLlj8njV5SIX09PR0DwwM5FFrOjs7U39/v3muKHMdh7mOYdPmp7qv//Sn8qgcngIAgIAEAAAEJAAAICABAAABCQAACEgAAEBAAgAAAhIAABCQAACAgAQAAAQkAAAgIAEAAAEJAAAISAAAQEACAAACEgAAEJAAAICABAAABCQAACAgAQAAAQkAAAhIAABAQAIAAAISAAAQkAAAgIAEAAAEJAAAICABAAABCQAACEgAAEBAAgAAAhIAABCQAACAgAQAAAQkAAAgIAEAAAEJAAAISAAAQEACAAACEgAAEJAAAICABAAABCQAACAgAQAAAQkAAAhIAABAQAIAAAISAAAQkAAAgIAEAAAEJAAAICABAAABCQAACKj0AHjh+efyHlPZ4OBg2rBpc3ceUiE/fXp7dzE/ZSn+reLfzEMqpDgHy5xrqmsy1ta2xjY6tluOWq2WOjo68ogqKX5R1Ov1PGqdua6msue5YK6ryTkdx2Sc16UHAABQfV4DAAABCQAACEgAAEBAAgAAAhIAABCQAACAgAQAAAQkAAAgIAEAAAEJAAAISAAAQEACAAACEgAAEJAAAICABAAABCQAACAgAQAAAbU1ttGx3XLUarXU0dGRR1TJ4OBgqtfredQ6c11dZc61ea4u53QcZc91ofQAuG31V9KvXHzhmjykQnp6eroHBgbyqDXFL4q/+dLX0qKz322uK6jMue7s7Ez9/f3muYK2bN3W/ad/8tnSFgZzXV3/9ejj3Z9f9cd5VI7SnwKYO3du3mMqK64SLP5wZBXnoCv2GCZjbfUaAAAISAAAQEACAAACEgAAEJAAAICABAAABCQAACAgAQAAAQkAAAhIAABAQAIAAAISAAAQkAAAgIAEAAAEJAAAICABAAABCQAACEgAAEBAAgAAAhIAABCQAACAgAQAAAQkAAAgIAEAAAEJAAAISAAAQEACAAACEgAAEJAAAICABAAABCQAACAgAQAAAQkAAAhIAABAQAIAAAISAAAQkAAAgIAEAAAEJAAAICABAAABCQAACEgAAEBAAgAAAhIAABCQAACAgAQAAAQkAAAgIAEAAAEJAAAISAAAQEACAAACEgAAEJAAAICA2hrb6NhuOU497fS0ePHiPKIqRkdfT489+miq1+v5SGtqtVq68MKlaUZ7ez5CVRzYfyBt2PBYqXO9bNlFadr0afkIVbFvZCQ9/vjGUuf6oosvTm1trg2rZvPmzennz+7Io3KUHgAAQPXJPAAISAAAQEACAAACEgAAEJAAAICABAAABCQAACAgAQAAARUBMDS2CwAEMVQEwGNj+wBAEI8VAbB+bB8ACGJ98VkABZ8HAABxvPGRTy/nrwDA1NZc8w/eASi4CwAAU19z7T/0zwC/l78CAFPTG2v9oXcAChsa29KxXQBgCtnY2JaN7f7fNwIqvvGXje1AcwQAHO2KNb1Y299Y/AtvvgNwqB80tvc3tlpzBAAcTeqN7ceN7cPN0Zu8XQC82U2NbSI/DwC8s4oX9N88tvt2UvpfAAWxBXWtmXcAAAAASUVORK5CYII=" parent="1" vertex="1">
          <mxGeometry x="433" y="520" width="102.91" height="80" as="geometry" />
        </mxCell>
        <mxCell id="DlqXC4TE-N95-IHuBmYz-30" style="edgeStyle=orthogonalEdgeStyle;rounded=0;orthogonalLoop=1;jettySize=auto;html=1;entryX=0;entryY=0.5;entryDx=0;entryDy=0;fontSize=14;strokeWidth=2;" parent="1" source="DlqXC4TE-N95-IHuBmYz-24" target="DlqXC4TE-N95-IHuBmYz-23" edge="1">
          <mxGeometry relative="1" as="geometry" />
        </mxCell>
        <mxCell id="DlqXC4TE-N95-IHuBmYz-24" value="" style="shape=image;verticalLabelPosition=bottom;verticalAlign=top;imageAspect=0;aspect=fixed;image=data:image/png,iVBORw0KGgoAAAANSUhEUgAAAgAAAAGOCAYAAADhKrvPAAAAAXNSR0IArs4c6QAAAARnQU1BAACxjwv8YQUAAAAJcEhZcwAADsMAAA7DAcdvqGQAABAgSURBVHhe7d19bJ3VfcDxY0ziGDuOSwKBUGgCIc14C1kCjIFZgZLR0rVSga2aNugmtazS1rF/NvamUq3b2KStXVuto5UmYJPWrWUSbeko0LI23XhLykshi7IAaYBAiBM7wcF5c7z7+J6glFYszj0mj/37fKRDnvMkCraOHp/vfe7NvW3p0H2iMcbz5wGAt9ZoY3yyefjm3mxDv68xzm+MnrEZADCZ7GiMRxrjirHZGxyVfz3YpxpjX2O8uzFs/gAwOVV7eLWXV3t6tbf/mDfeAXi8MZY0DwGAKeSJxji3efjjdwDubAybPwBMTdUeX+31Yw6+A1C9cAAAmNrG9v4DdwC25V8BgKltbM8/cAfAo38AiKOtvfGfv2mMC8emAEAEPdVTAMubxwBAEMurpwBebYzusSkAEMFQFQCe/weAYH7aOwECAFOcAACAgAQAAAQkAAAgIAEAAAEJAAAISAAAQEACAAACKvpGQHO6p6ULFs9JR0+fns8AAK3at2dPenhtf+of2pvPtK5oAFxxRm+65dpT8wwAKOWmrzyb7lszmGet8xQAAAQkAAAgIAEAAAEJAAAISAAAQEACAAACEgAAEJAAAICABAAABCQAACAgbwUMBd27c156YduuxlGxywomtXmzpqcrezbn2ZF199Zj0+bXJubaPHHm0ek9vVvybGKUfitgAQAt+tKjQ+mZDa+MHT+2cWfRD+uAya76kLilp3SNHR/TOytddMmSdHnHC2PziXbXpq60evW6tGfX7rH5RF6fB3+fHV1d6cKLzkpXziobBAIAauKrP+pIqx75H5s+jEO1Uf76VWelX1tcbT8T53Mrt6VvPPLiEbs2q+/zVy5bmH5zaWc+07rSAdDeGDc3D1t32nEz0rvPfFuewdT1d//Zn/712+vSUy++ll7bsz+fBf4/1fWy/kdbU//waLrw1O58tpy7t74t/ePda9L31jT+H0cwzKvv87kXt6eXd+xNFy3syWdbc/+agfTsluopxjK8CBDG6bYf7k3fXP2SR/1wmKpr557Ht6S//+/t+Uw5K7+zeuxRch2uz+pruP/pgfS397+Uz9SLAIBxuHfnielf7l1r84cWVdfQXQ9uTHe9XO4uwOf/a2DsKbk6qb7Pbz3Rn/5pTf3uFAoAGIfv3vuQzR8Kqa6lB1c+mWet+fors9LXH3qhltdn9TX98388nR7Ye0o+Uw8CAMZhZN9IPgJKqB6xf3NgTp4dvieefK7WcV59bWufaf5roboQAHCIqkcYdbu9CJNdtTGu37g1zw7f0EC5V8dPlC3Pv5iP6kEAwCFat2FLrR9hwGTVv/GteV+AI+21wfIvemyFAIBDtG3Ty/kIKOnAG/Ucru/vnpee39ba3xGRAIBD1Ht8689TAj+pffq0fHR4Lu7YlE4+tiPPOFQCAA7RsSfNy0dASce9Pca11Tmz/BsftUIAwCFacGLP2Nt7AuVU19Tp81u/u9bZMzMf1deck0/KR/UgAOAQXTZ9Y1r6jnoVPEx21QfoXDV7IM8O39lnvKPWgd4MnePyrB4EAIxD36XL3AWAQqpradnyd+ZZaz548mvpPUvn1vL6rL6m6oOBVnRtymfqQQDAOFw1e1u65pIFIgBaVF1D7112Qrp2Qbl/WnvjZce//pG8dfKz83uKfipgKQIAxukj53WnFWfPFgFwmKpr5/IzetPvvqv8LfHl5/9Mba7N6uuoPib/XSvOz2fqxccBw2H4+dNmppGZx6Znnx/wccAwDtWm+MGL50/I5l85o3ckzVu6NLUPbUuDO/ceseuz+j7fd9689MfvPSkt7CjzDqKlPw5YAMBhOndue5p7zpI0bee2tGB2R9oxPCIG4KeoNsPqM/GrPeKa91+QfvWdo/l3Jsap015Nly+elUZ7Zqeett1j/9+34vo8+Pv8pSuWpN9YMj3/ThmlA6CtMYqtRHWr45ZrT80ziOXbu09OG17akYYGBtLoxP58g0njmJ6Z6bSTZqXLO4/sC+Du2X58euaFgbR398S8Y+CMrq506tt704quifvs/5u+8my6b025zzwQAAAwCZQOAC8CBICABAAABCQAACAgAQAAAQkAAAhIAABAQAIAAAISAAAQkAAAgIAEAAAEJAAAICABAAABCQAACEgAAEBAAgAAAhIAABCQAACAgAQAAAQkAAAgIAEAAAEJAAAIqGgAPLZxZ/rayzPzDAAoodpbqz22pLbGGG0eljGne1paekpXngEArao2//6hvXlWRvEAAADqz2sAACAgAQAAAQkAAAhIAABAQAIAAAISAAAQkAAAgIAEAAAEJAAAICABAAABCQAACEgAAEBAAgAAAhIAABCQAACAgAQAAAQkAAAgoLbGGG0eltHb2Z4Wzu3MM+pk/ebhNDg8kmets9b1VHqdK9a6nlzTcUzEdV08AP7it69Ovzj7uZV5So3ccPu6vlUbhvKsNdUPir/6+DVp+Yz/tdY1s6Z9ad/v/OVtxX5YVGv9uT/8cDpj5DFrXTOrdp3e9wef/WqxtV4+vzvdev0i61xD39q6oO+PPn9nnpVR/CmAOXOOz0dMZdWjBJt/PVUbdclHcdXfZfOvp+oa9Ig9honYW70GAAACEgAAEJAAAICABAAABCQAACAgAQAAAQkAAAhIAABAQAIAAAISAAAQkAAAgIAEAAAEJAAAICABAAABCQAACEgAAEBAAgAAAhIAABCQAACAgAQAAAQkAAAgIAEAAAEJAAAISAAAQEACAAACEgAAEJAAAICABAAABCQAACAgAQAAAQkAAAhIAABAQAIAAAISAAAQkAAAgIAEAAAEJAAAICABAAABCQAACEgAAEBAAgAAAhIAABCQAACAgAQAAAQkAAAgIAEAAAEJAAAISAAAQEACAAACEgAAEJAAAICABAAABCQAACCgtsYYbR6W0dvZnhbO7cwz6mT95uE0ODySZ62xzvVmreOw1jGUXOcDigcAAFB/ngIAgIAEAAAEJAAAICABAAABCQAACEgAAEBAAgAAAhIAABCQAACAgAQAAAQkAAAgIAEAAAEJAAAISAAAQEACAAACEgAAEJAAAICABAAABNTWGKPNwzI+dPUH0mVnz8sz6mL37l3pTz9zRxocHslnWtPb2Z5+77r3pRNPtNZ1s2P7YPrUP/xb0bX+k9/65dQzqzefoS5eemlT+vQd3yi61n9243Wpo2NGPkNdfOeHm9KX77wrz8ooHgBfvPljadnowyvzlBq54fZ1fas2DOVZa5bP7063Xr/IOteUtY7DWsewuu2Cvo/e/IU8K8NTAAAQkAAAgIAEAAAEJAAAICABAAABCQAACEgAAEBAAgAAAhIAABCQAACAgAQAAAQkAAAgIAEAAAEJAAAISAAAQEACAAACEgAAEJAAAICABAAABCQAACAgAQAAAQkAAAhIAABAQAIAAAISAAAQkAAAgIAEAAAEJAAAICABAAABCQAACEgAAEBAAgAAAhIAABCQAACAgAQAAAQkAAAgIAEAAAEJAAAISAAAQEACAAACEgAAEJAAAICABAAABCQAACAgAQAAAQkAAAhIAABAQAIAAAISAAAQkAAAgIAEAAAEJAAAICABAAABtTXGaPOwjL4LlqVfOHNunlEXu/fsSV+684E0ODySz7Smt7M9fWjFeWnO7GPzGepiaOfOdNvXvl90rT/8/otTd1dXPkNd9G/dlr5876NF1/ojV1+aOqZPz2eoi+8+vTmtfHh1npVRPAAAgPrzFAAABCQAACAgAQAAAQkAAAhIAABAQAIAAAISAAAQkAAAgIAEAAAEJAAAICABAAABCQAACEgAAEBAAgAAAhIAABCQAACAgAQAAAQkAAAgoLbGGG0elnHO4tPShYvm5Bl1sW/fSLrzgcfS4PBIPtOa3s72dOXPLU6zZnbnM9TFrt270l3fe6roWn/gkrPSjI4Z+Qx1sf3VoXTPQ2uLrvXVly5NRx/dns9QFw+u609Prn0mz8ooHgBfvPljadnowyvzlBq54fZ1fas2DOVZa5bP7063Xr/IOteUtY7DWsewuu2Cvo/e/IU8K8NTAAAQkAAAgIAEAAAEJAAAICABAAABCQAACEgAAEBAAgAAAhIAABCQAACAgAQAAAQkAAAgIAEAAAEJAAAISAAAQEACAAACEgAAEJAAAICABAAABCQAACAgAQAAAQkAAAhIAABAQAIAAAISAAAQkAAAgIAEAAAEJAAAICABAAABCQAACEgAAEBAAgAAAhIAABCQAACAgAQAAAQkAAAgIAEAAAEJAAAISAAAQEACAAACEgAAEJAAAICABAAABCQAACAgAQAAAQkAAAhIAABAQAIAAAISAAAQkAAAgIAEAAAEJAAAICABAAABFQ+A/v5X8hFT2frNw2nVrtP78pQaWdO+tK9an1Kqv6v6O/OUGqmuwZJrTX1NxN7a1hijzcMyejvb08K5nXlGnVQ/KAaHR/Ksdda6nkqvc8Va15NrOo6JuK6LBwAAUH9eAwAAAQkAAAhIAABAQAIAAAISAAAQkAAAgIAEAAAEJAAAICABAAABCQAACEgAAEBAAgAAAhIAABCQAACAgAQAAAQkAAAgIAEAAAG1NcZo87CM3s72tHBuZ55RJ+s3D6fB4ZE8a521rq+Sa22d68s1HUfpta4UD4DP/P51qa/zqZV5So3ccPu6vlUbhvKsNdUPis/edH06c//j1rqGSq718vnd6dbrF1nnGnr6qHP7Pn7L7cU2BmtdXyuHz+q78a/vyLMyij8FcMwxXfmIqax6lGDzhyOrugY9Yo9hIvZWrwEAgIAEAAAEJAAAICABAAABCQAACEgAAEBAAgAAAhIAABCQAACAgAQAAAQkAAAgIAEAAAEJAAAISAAAQEACAAACEgAAEJAAAICABAAABCQAACAgAQAAAQkAAAhIAABAQAIAAAISAAAQkAAAgIAEAAAEJAAAICABAAABCQAACEgAAEBAAgAAAhIAABCQAACAgAQAAAQkAAAgIAEAAAEJAAAISAAAQEACAAACEgAAEJAAAICABAAABCQAACAgAQAAAQkAAAhIAABAQAIAAAISAAAQkAAAgIAEAAAEJAAAICABAAABCQAACKitMUabh2XMO643nXPKzDyjLvbv358eWftyGhweyWda09vZnpYtPC5Nmz4tn6EuRvbtT4+uK7vW5y06IbUf7fFC3ezdszetXr+l6Fqfv/iEdNRR1rpuntz4atq0ZTDPyigeAABA/ck8AAhIAABAQAIAAAISAAAQkAAAgIAEAAAEJAAAICABAAABVQEw1DwEAIIYqgLgB81jACCIH1QBsKp5DAAEsar6LICKzwMAgDjaDrwIcCD/CgBMbWN7/oE7ABV3AQBg6hvb+w/+Z4D/nn8FAKam1/f6g+8AVB5vjCXNQwBgCnmiMc5tHv7kGwFVv/HnjTEyNgMAJrtqT6/29tc3/8ob7wAc7L7GOL8xesZmAMBksqMxHmmMK8Zmb/BmAfBGn2iM8fx5AOCtVb2g/5PNwzeT0v8B6ORdQwBIqxEAAAAASUVORK5CYII=" parent="1" vertex="1">
          <mxGeometry x="236" y="520" width="102.91" height="80" as="geometry" />
        </mxCell>
        <mxCell id="QM9VKalPo0pKlb0j7DAL-1" style="edgeStyle=orthogonalEdgeStyle;rounded=0;orthogonalLoop=1;jettySize=auto;html=1;entryX=0.5;entryY=1;entryDx=0;entryDy=0;" edge="1" parent="1" source="DlqXC4TE-N95-IHuBmYz-26" target="DlqXC4TE-N95-IHuBmYz-23">
          <mxGeometry relative="1" as="geometry" />
        </mxCell>
        <mxCell id="DlqXC4TE-N95-IHuBmYz-26" value="" style="shape=image;verticalLabelPosition=bottom;verticalAlign=top;imageAspect=0;aspect=fixed;image=data:image/png,iVBORw0KGgoAAAANSUhEUgAAAgAAAAGOCAYAAADhKrvPAAAAAXNSR0IArs4c6QAAAARnQU1BAACxjwv8YQUAAAAJcEhZcwAADsMAAA7DAcdvqGQAABCqSURBVHhe7d0PbF3VfcDxY5I4f3nhT4AALQYKIQ2YROB2KssKhHaSmaqJdZCOdVu7oqlq8Top06ohZIbFWJkW9Y/bqZpoaTf+lZVKUzUirVsKXcZYG1iCgxTSEWqS0ALhTx4OiZ0E793nE5QyxOy8a3Lj3+cjXXzPtRXxdHR9vve+5/fa0vjd1Ngm8vMAwDtrtLHdPLb79t5uQf9BY3t/Y6s1RwDA0aTe2H7c2D7cHL3JMfnroW5pbPsb24cam8UfAI5OxRperOXFml6s7b/kzXcANjS2pWO7AMAUsrGxLRvb/eU7APc3Nos/AExNxRpfrPVNh94BKF44AABMbc21/+AdgJfyVwBgamuu+QfvALj6B4A42qY1/rO6sX2gOQQAIqgVTwF0je0DAEF0FU8BvNrY5jWHAEAEQ0UAeP4fAIJ5q3cCBACmOAEAAAEJAAAISAAAQEACAAACEgAAEJAAAICABAAABFTqGwEtWrQo/cEnP5lmtM/MRwCAVu0bGU7fvuOOtGXLlnykdaUGQG9vb1qxYkUeAQBlWbt2berr68uj1nkKAAACEgAAEJAAAICABAAABCQAACAgAQAAAQkAAAhIAABAQAIAAAISAAAQkLcChhKN7D+QhvbsaZxUpZ1WcFSbN2t2mjljeh4dWXtGRtJrw8N5VK65s2alWTNm5NHkKPutgAUAtOj5nTvTz7ZuTUNDQ2n9+vXp2Wefzd8BTjvttNTV1dXcX3j66encc85JM6ZNa44nWxHj/7NlS3rpxReb48k8Pw99nCedsjAtWnRuI3zKDQIBABVR3/1a2vzEpvTggw+mdevWpXq9nr8DvJVarZa6u7vTymuvTSfMn5+PTo5t27ene+6++4icmwcf52+vXJlOOuGEfLR1ZQdAkWF/MbbbuksvvTSdddZZeQRT18+eeSZ9+45vpjvvvDNt2rQpDU/SbUWYSorzZNu2bWnnCy+khaeemk44/vj8nfLsGR5J//3Yo+lLX/xieuSRR47IuXnwcb60c2dasGBBcyvD008/nR566KE8ap0XAcIEvfjyK+m+e+9NDzzwgKt+mKDinCnOndu+8IW0fRJuxw9s3JBuueWWUj83/3AcfJyrV69OT23dmo9WiwCACShe5Hffvfc0bysCh69YoO++8860e8/efKR123bsSLfffnulwrx4nPd/97vppV278pHqEAAwAcXVxZo1a1z5QwmKkH5i4PE8as3uvcPpnrvuOuJX/m+leJzfufvutP/11/ORahAAMAG7GhVv8YdyFOdS8SLaPSP78pHD98wzz1T2zlzxOJ988sn08q5q/e4QADBOxd8PF39GBJSn+LO8XSVE9c+3b6t0nG/dujW98PxzeVQNAgDG6YWdOz33DyUrFsZf7NieR1NXESe/2LEjj6pBAMA4DTZ+Ubn9D+UqzqmDb9RzuF4fHU2Dg4N5xHgJABind3ec2XyDD6Bc01t8x7xj2tpSR0dHHjFeAgDGqXbccenss8/OI6AMRVSfdc65eTR1FY/z5IUL86gaBACM0/y5c5vv9w2UZ/ny5WlBCW+Xe8qpp1X6Dl1x8XDywlPzqBoEAIzT9GnHpMsuv9zTAFCS4ly67LLL0uyZ7fnI4Tuj44xmTFRR8TjPO++8dFzFfncIAJiAzqVLmx/yIQKgdcWCfd6SJXnUmmPnzEnXrFyZFi1alI9UR/E4iw8Gap/+znwK4ngJAJiA2e3t6aNXX13ZKw04WhQL9TUf+1iaP29ePtK6Mzs60nXXXVepQC/+X1asuKLUTwUsiwCACTp5wYJ01VVXpSuvvNKdAJig4pwpzp1Vq1alM884Ix8tz+Lzz6/MXboicm688cbUuWxpPlItPg4YDsOJJ56YFi85P40M721+7KePA4b/X7EoF4vztR//eOqYhMW/MLO9PS276KK0ZMmSNG3atPTcc8+94+dn8TivuOKK9Jnrr09L3vveNP2Ycq61y/444LbGNjq227re3t60YsWKPIKpb3j//rRp48bmZwQUbxNcvK1poXh3M28aRHTFQli8+r3465murq40b968dMHSpWnOzJn5JybXi6+8kp7asiUNDQ29cX5Oxrn5Vo9z8fkXpNrcOfknyrF27drU19eXR60TAFCS/QdeT7t27077Glcb+w8cSEOvvZa/AzHNmzMnzZo9q/k8/4zG1fiRNLxvX9r16lAaGRkp/dwsHufMRtTMP3Zeap8+PR8tnwAAgIDKDgAvAgSAgAQAAAQkAAAgIAEAAAEJAAAISAAAQEACAAACEgAAEJAAAICABAAABCQAACAgAQAAAQkAAAhIAABAQAIAAAISAAAQkAAAgIAEAAAEJAAAICABAAABCQAACKjUAFi/fn3avXdvHgEAZSjW1mKNLVNbYxsd221drVZLy5cvT11dXfkIANCqYvFft25dqtfr+UjrSg0AAODo4DUAABCQAACAgAQAAAQkAAAgIAEAAAEJAAAISAAAQEACAAACEgAAEJAAAICABAAABCQAACAgAQAAAQkAAAhIAABAQAIAAAISAAAQUFtjGx3bLUetVksdHR15RJUMDg6mer2eR60z19VU9jwXzHU1OafjmIzzuvQAuKnv1nT5By9Zk4dUSE9PT/fAwEAetab4RdF361+nZRcsNtcV89Ont3ev+txnSvtlUcz16i//bTr3rHeZ64rZsGlzd+8Nf1baXHd2dqb+/n7zXEE//NHD3Tf33pBH5Sj9KYCTTj4l7zGVFVcJFv9qKhbqMq/iin/L4l9NxTnoij2GyVhbvQYAAAISAAAQkAAAgIAEAAAEJAAAICABAAABCQAACEgAAEBAAgAAAhIAABCQAACAgAQAAAQkAAAgIAEAAAEJAAAISAAAQEACAAACEgAAEJAAAICABAAABCQAACAgAQAAAQkAAAhIAABAQAIAAAISAAAQkAAAgIAEAAAEJAAAICABAAABCQAACEgAAEBAAgAAAhIAABCQAACAgAQAAAQkAAAgIAEAAAEJAAAISAAAQEACAAACEgAAEJAAAICABAAABCQAACAgAQAAAQkAAAhIAABAQAIAAAISAAAQkAAAgIAEAAAEJAAAIKC2xjY6tluOWq2WOjo68ogqGRwcTPV6PY9aY56rzVzHYa5jKHOeDyo9AACA6vMUAAAEJAAAICABAAABCQAACEgAAEBAAgAAAhIAABCQAACAgAQAAAQkAAAgIAEAAAEJAAAISAAAQEACAAACEgAAEJAAAICABAAABCQAACCgtsY2OrZbjmt+5/fTBy+9NI+oir1796a+3j9P9Xo9H2lNrVZLn/3cqnT66e/KR6iKXa+8nG67ta/Uuf78Db1p/nHH5yNUxY4d29PXvry61Lnu7furNGvWrHyEqvjRQw+l++75+zwqR+kB8NWvfyNdsPg9a/KQCunp6ekeGBjIo9Z0dnam/v5+81xR5joOcx3Dps1PdV//6U/lUTk8BQAAAQkAAAhIAABAQAIAAAISAAAQkAAAgIAEAAAEJAAAICABAAABCQAACEgAAEBAAgAAAhIAABCQAACAgAQAAAQkAAAgIAEAAAEJAAAISAAAQEACAAACEgAAEJAAAICABAAABCQAACAgAQAAAQkAAAhIAABAQAIAAAISAAAQkAAAgIAEAAAEJAAAICABAAABCQAACEgAAEBAAgAAAhIAABCQAACAgAQAAAQkAAAgIAEAAAEJAAAISAAAQEACAAACEgAAEJAAAICABAAABCQAACAgAQAAAQkAAAhIAABAQAIAAAISAAAQUFtjGx3bLcev/trl6QOXXJJHVMXI8HD61jf/LtXr9XykNbVaLX306pXpxAUn5yNUxe6hV9Nd//CtUuf6d3/vE2nuvGPzEarixZ3Pp/v/8TulzvUn/vCPUvvMmfkIVfGfDz+c/uPff5hH5Sg9AACA6vMUAAAEJAAAICABAAABCQAACEgAAEBAAgAAAhIAABCQAACAgAQAAAQkAAAgIAEAAAEJAAAISAAAQEACAAACEgAAEJAAAICABAAABCQAACCgtsY2OrZbjvM7l6b3db0vj6iKffv3p+//0/dSvV7PR1pTq9XSFR/69TR//nH5CFWxZ++etOafv1/qXHf/xkfS7Fmz8xGqYteuV9K//eu/lDrXH/nN30ozpk/PR6iKn6z/SXpiYGMelaP0APjq17+RLlj8njV5SIX09PR0DwwM5FFrOjs7U39/v3muKHMdh7mOYdPmp7qv//Sn8qgcngIAgIAEAAAEJAAAICABAAABCQAACEgAAEBAAgAAAhIAABCQAACAgAQAAAQkAAAgIAEAAAEJAAAISAAAQEACAAACEgAAEJAAAICABAAABCQAACAgAQAAAQkAAAhIAABAQAIAAAISAAAQkAAAgIAEAAAEJAAAICABAAABCQAACEgAAEBAAgAAAhIAABCQAACAgAQAAAQkAAAgIAEAAAEJAAAISAAAQEACAAACEgAAEJAAAICABAAABCQAACAgAQAAAQkAAAhIAABAQAIAAAISAAAQkAAAgIAEAAAEJAAAICABAAABCQAACKj0AHjh+efyHlPZ4OBg2rBpc3ceUiE/fXp7dzE/ZSn+reLfzEMqpDgHy5xrqmsy1ta2xjY6tluOWq2WOjo68ogqKX5R1Ov1PGqdua6msue5YK6ryTkdx2Sc16UHAABQfV4DAAABCQAACEgAAEBAAgAAAhIAABCQAACAgAQAAAQkAAAgIAEAAAEJAAAISAAAQEACAAACEgAAEJAAAICABAAABCQAACAgAQAAAbU1ttGx3XLUarXU0dGRR1TJ4OBgqtfredQ6c11dZc61ea4u53QcZc91ofQAuG31V9KvXHzhmjykQnp6eroHBgbyqDXFL4q/+dLX0qKz322uK6jMue7s7Ez9/f3muYK2bN3W/ad/8tnSFgZzXV3/9ejj3Z9f9cd5VI7SnwKYO3du3mMqK64SLP5wZBXnoCv2GCZjbfUaAAAISAAAQEACAAACEgAAEJAAAICABAAABCQAACAgAQAAAQkAAAhIAABAQAIAAAISAAAQkAAAgIAEAAAEJAAAICABAAABCQAACEgAAEBAAgAAAhIAABCQAACAgAQAAAQkAAAgIAEAAAEJAAAISAAAQEACAAACEgAAEJAAAICABAAABCQAACAgAQAAAQkAAAhIAABAQAIAAAISAAAQkAAAgIAEAAAEJAAAICABAAABCQAACEgAAEBAAgAAAhIAABCQAACAgAQAAAQkAAAgIAEAAAEJAAAISAAAQEACAAACEgAAEJAAAICA2hrb6NhuOU497fS0ePHiPKIqRkdfT489+miq1+v5SGtqtVq68MKlaUZ7ez5CVRzYfyBt2PBYqXO9bNlFadr0afkIVbFvZCQ9/vjGUuf6oosvTm1trg2rZvPmzennz+7Io3KUHgAAQPXJPAAISAAAQEACAAACEgAAEJAAAICABAAABCQAACAgAQAAARUBMDS2CwAEMVQEwGNj+wBAEI8VAbB+bB8ACGJ98VkABZ8HAABxvPGRTy/nrwDA1NZc8w/eASi4CwAAU19z7T/0zwC/l78CAFPTG2v9oXcAChsa29KxXQBgCtnY2JaN7f7fNwIqvvGXje1AcwQAHO2KNb1Y299Y/AtvvgNwqB80tvc3tlpzBAAcTeqN7ceN7cPN0Zu8XQC82U2NbSI/DwC8s4oX9N88tvt2UvpfAAWxBXWtmXcAAAAASUVORK5CYII=" parent="1" vertex="1">
          <mxGeometry x="433.01" y="680" width="102.91" height="80" as="geometry" />
        </mxCell>
        <mxCell id="DlqXC4TE-N95-IHuBmYz-35" value="" style="fontSize=12;html=1;endArrow=ERoneToMany;startArrow=ERmandOne;strokeWidth=2;rounded=0;edgeStyle=orthogonalEdgeStyle;exitX=1;exitY=0.5;exitDx=0;exitDy=0;" parent="1" source="DlqXC4TE-N95-IHuBmYz-22" target="DlqXC4TE-N95-IHuBmYz-18" edge="1">
          <mxGeometry width="100" height="100" relative="1" as="geometry">
            <mxPoint x="790" y="580" as="sourcePoint" />
            <mxPoint x="810" y="480" as="targetPoint" />
            <Array as="points">
              <mxPoint x="790" y="560" />
              <mxPoint x="790" y="400" />
            </Array>
          </mxGeometry>
        </mxCell>
        <mxCell id="QM9VKalPo0pKlb0j7DAL-6" value="&lt;span style=&quot;font-size: 14px;&quot;&gt;Bronze db&lt;/span&gt;" style="text;html=1;strokeColor=none;fillColor=none;align=center;verticalAlign=middle;whiteSpace=wrap;rounded=0;fontStyle=1" vertex="1" parent="1">
          <mxGeometry x="207.45" y="800" width="160" height="30" as="geometry" />
        </mxCell>
        <mxCell id="QM9VKalPo0pKlb0j7DAL-7" value="&lt;span style=&quot;font-size: 14px;&quot;&gt;Silver db&lt;/span&gt;" style="text;html=1;strokeColor=none;fillColor=none;align=center;verticalAlign=middle;whiteSpace=wrap;rounded=0;fontStyle=1" vertex="1" parent="1">
          <mxGeometry x="404.45" y="800" width="160" height="30" as="geometry" />
        </mxCell>
        <mxCell id="QM9VKalPo0pKlb0j7DAL-8" value="&lt;span style=&quot;font-size: 14px;&quot;&gt;Gold db&lt;/span&gt;" style="text;html=1;strokeColor=none;fillColor=none;align=center;verticalAlign=middle;whiteSpace=wrap;rounded=0;fontStyle=1" vertex="1" parent="1">
          <mxGeometry x="601.46" y="800" width="160" height="30" as="geometry" />
        </mxCell>
      </root>
    </mxGraphModel>
  </diagram>
</mxfile>
